<svg id="Group_90" data-name="Group 90" xmlns="http://www.w3.org/2000/svg" width="45.567" height="45.567" viewBox="0 0 45.567 45.567">
  <path id="Ellipse_10" data-name="Ellipse 10" d="M9.264-.5A9.764,9.764,0,1,1-.5,9.264,9.775,9.775,0,0,1,9.264-.5Zm0,16.274a6.51,6.51,0,1,0-6.51-6.51A6.517,6.517,0,0,0,9.264,15.774Z" transform="translate(13.519 8.637)" fill="#ee9654"/>
  <path id="Path_56" data-name="Path 56" d="M31.655,20.064a1.626,1.626,0,0,1-1.391-.781,14.647,14.647,0,0,0-25.016,0,1.627,1.627,0,1,1-2.78-1.693,17.9,17.9,0,0,1,30.576,0,1.628,1.628,0,0,1-1.388,2.474Z" transform="translate(5.028 20.296)" fill="#ee9654"/>
  <path id="Ellipse_11" data-name="Ellipse 11" d="M22.284-.5A22.784,22.784,0,1,1-.5,22.284,22.81,22.81,0,0,1,22.284-.5Zm0,42.313A19.529,19.529,0,1,0,2.755,22.284,19.551,19.551,0,0,0,22.284,41.813Z" transform="translate(0.5 0.5)" fill="#ee9654"/>
</svg>
