<svg xmlns="http://www.w3.org/2000/svg" width="45.568" height="45.567" viewBox="0 0 45.568 45.567">
  <path id="Path_56" data-name="Path 56" d="M22.784,0a1.623,1.623,0,0,1,1.1.431L44,18.984A4.9,4.9,0,0,1,45.567,22.6V40.685a4.888,4.888,0,0,1-4.882,4.882H4.882A4.888,4.888,0,0,1,0,40.685v-18.1a4.887,4.887,0,0,1,1.562-3.6L21.68.431A1.623,1.623,0,0,1,22.784,0Zm17.9,42.313a1.629,1.629,0,0,0,1.627-1.627v-18.1a1.637,1.637,0,0,0-.521-1.215L22.784,3.841,3.772,21.376a1.629,1.629,0,0,0-.518,1.2V40.685a1.629,1.629,0,0,0,1.627,1.627Z" transform="translate(0)" fill="#ee9654"/>
</svg>
