<svg xmlns="http://www.w3.org/2000/svg" width="51.034" height="45.567" viewBox="0 0 51.034 45.567">
  <g id="Group_89" data-name="Group 89" transform="translate(0 -0.75)">
    <path id="Line_1" data-name="Line 1" d="M12.258,3.145H1.323a1.823,1.823,0,0,1,0-3.645H12.258a1.823,1.823,0,1,1,0,3.645Z" transform="translate(27.839 19.477)" fill="#ee9654"/>
    <path id="Line_2" data-name="Line 2" d="M12.258,3.145H1.323a1.823,1.823,0,0,1,0-3.645H12.258a1.823,1.823,0,1,1,0,3.645Z" transform="translate(27.839 30.413)" fill="#ee9654"/>
    <path id="Line_3" data-name="Line 3" d="M1.323,28.662A1.823,1.823,0,0,1-.5,26.839V1.323a1.823,1.823,0,0,1,3.645,0V26.839A1.823,1.823,0,0,1,1.323,28.662Z" transform="translate(33.307 8.542)" fill="#ee9654"/>
    <path id="Path_56" data-name="Path 56" d="M45.566,46.317H5.468A5.474,5.474,0,0,1,0,40.849V6.219A5.474,5.474,0,0,1,5.468.751H18.895a5.455,5.455,0,0,1,5.439,4.156l.784,3.134H45.566a5.474,5.474,0,0,1,5.468,5.468V40.849A5.474,5.474,0,0,1,45.566,46.317ZM5.468,4.4A1.825,1.825,0,0,0,3.645,6.219v34.63a1.825,1.825,0,0,0,1.823,1.823h40.1a1.825,1.825,0,0,0,1.823-1.823V13.51a1.825,1.825,0,0,0-1.823-1.823H23.694a1.823,1.823,0,0,1-1.768-1.381L20.8,5.786a1.82,1.82,0,0,0-1.77-1.391H5.468Z" transform="translate(0 0)" fill="#ee9654"/>
  </g>
</svg>
