<svg xmlns="http://www.w3.org/2000/svg" width="53.162" height="45.567" viewBox="0 0 53.162 45.567">
  <path id="Works" d="M7.595,1H21.113a1.9,1.9,0,0,1,1.712,1.077l4.951,10.315H45.567a7.6,7.6,0,0,1,7.595,7.595V38.973a7.6,7.6,0,0,1-7.595,7.595H7.595A7.6,7.6,0,0,1,0,38.973V8.595A7.6,7.6,0,0,1,7.595,1ZM19.918,4.8H7.595a3.8,3.8,0,0,0-3.8,3.8V38.973a3.8,3.8,0,0,0,3.8,3.8H45.567a3.8,3.8,0,0,0,3.8-3.8V19.986a3.8,3.8,0,0,0-3.8-3.8H26.581a1.9,1.9,0,0,1-1.712-1.077Z" transform="translate(0 -1)" fill="#fff"/>
</svg>
