<svg id="Next.js_Logotype_Light_Background" xmlns="http://www.w3.org/2000/svg" width="93.987" height="18.948" viewBox="0 0 93.987 18.948">
  <path id="Path_56" data-name="Path 56" d="M261.919.033H278.29V3.055H271.8v15.9h-3.247V3.055h-6.629Z" transform="translate(-199.44 -0.025)" fill="#fff"/>
  <path id="Path_57" data-name="Path 57" d="M96.8.033V3.055H83.673V7.916H94.226v3.022H83.673v4.992H96.8v3.022H80.426V3.055h0V.033Z" transform="translate(-61.239 -0.025)" fill="#fff"/>
  <path id="Path_58" data-name="Path 58" d="M169.755.066h-4.249l15.221,18.918h4.262l-7.611-9.453,7.6-9.451-4.25.007-5.477,6.8Z" transform="translate(-126.025 -0.05)" fill="#fff"/>
  <path id="Path_59" data-name="Path 59" d="M174.077,48.269l-2.128-2.646-6.494,8.065h4.262Z" transform="translate(-125.987 -34.74)" fill="#fff"/>
  <path id="Path_60" data-name="Path 60" d="M19.3,18.926,4.059,0H0V18.918H3.247V4.044L15.221,18.926Z" fill="#fff" fill-rule="evenodd"/>
  <path id="Path_61" data-name="Path 61" d="M330.86,73.471a.842.842,0,0,1-.609-.247.8.8,0,0,1-.251-.6.786.786,0,0,1,.251-.592.842.842,0,0,1,.609-.247.831.831,0,0,1,.6.247.8.8,0,0,1,.26.592.82.82,0,0,1-.121.427.877.877,0,0,1-.315.306A.812.812,0,0,1,330.86,73.471Z" transform="translate(-251.28 -54.66)" fill="#fff"/>
  <path id="Path_62" data-name="Path 62" d="M345.273,45.445h1.439v5.544a2.561,2.561,0,0,1-.328,1.312,2.181,2.181,0,0,1-.906.843,2.951,2.951,0,0,1-1.349.295,3.1,3.1,0,0,1-1.263-.249,2.032,2.032,0,0,1-.889-.737,2.121,2.121,0,0,1-.328-1.216h1.441a1.075,1.075,0,0,0,.143.551.92.92,0,0,0,.383.353,1.254,1.254,0,0,0,.568.124,1.119,1.119,0,0,0,.59-.145.922.922,0,0,0,.37-.429,1.766,1.766,0,0,0,.13-.7Z" transform="translate(-260.15 -34.605)" fill="#fff"/>
  <path id="Path_63" data-name="Path 63" d="M372.894,47.274a1.045,1.045,0,0,0-.458-.785,1.8,1.8,0,0,0-1.05-.282,2.036,2.036,0,0,0-.776.134,1.168,1.168,0,0,0-.5.366.9.9,0,0,0-.176.527.772.772,0,0,0,.117.427.957.957,0,0,0,.315.306,2.1,2.1,0,0,0,.44.21q.244.085.488.143l.75.184a5.186,5.186,0,0,1,.874.282,3.093,3.093,0,0,1,.755.447,2,2,0,0,1,.528.65,1.935,1.935,0,0,1,.2.893A2.1,2.1,0,0,1,374.04,52a2.364,2.364,0,0,1-1.038.82,4.115,4.115,0,0,1-1.639.295,4.176,4.176,0,0,1-1.617-.286,2.294,2.294,0,0,1-1.487-2.162h1.426a1.2,1.2,0,0,0,.257.685,1.386,1.386,0,0,0,.592.408,2.379,2.379,0,0,0,.818.134,2.284,2.284,0,0,0,.832-.141,1.3,1.3,0,0,0,.559-.392.918.918,0,0,0,.207-.59.759.759,0,0,0-.183-.512,1.4,1.4,0,0,0-.5-.338,5.155,5.155,0,0,0-.752-.245l-.911-.23a3.653,3.653,0,0,1-1.56-.761,1.724,1.724,0,0,1-.572-1.357,2,2,0,0,1,.385-1.221,2.5,2.5,0,0,1,1.047-.813,3.707,3.707,0,0,1,1.5-.291,3.575,3.575,0,0,1,1.494.291,2.434,2.434,0,0,1,1.01.8,2.035,2.035,0,0,1,.379,1.179Z" transform="translate(-280.412 -34.265)" fill="#fff"/>
</svg>
