<svg xmlns="http://www.w3.org/2000/svg" width="78.104" height="46.893" viewBox="0 0 78.104 46.893"><g transform="translate(-0.203 -0.287)"><g transform="translate(0.203 0.287)"><g transform="translate(0 0)"><g transform="translate(0 0)"><path d="M48.942,12.517H63.673v1.165H50.293v8.77H62.875v1.165H50.293v9.629H63.827v1.165H48.942Zm16.051,0h1.565l6.936,9.629,7.089-9.629L90.226.287,74.384,23.158l8.163,11.254H80.921L73.494,24.17,66.037,34.411h-1.6l8.225-11.254Zm18.138,1.165V12.517H99.918v1.165H92.184V34.411h-1.35V13.682Z" transform="translate(-30.513 -0.287)" fill="#fff"/><path d="M.2,32.632H1.891L25.167,67.295,15.548,54.526,1.615,34.288,1.553,54.526H.2Z" transform="translate(-0.203 -20.402)" fill="#fff"/></g><path d="M182.6,78.476a.488.488,0,1,0-.483-.488A.474.474,0,0,0,182.6,78.476Zm1.327-1.283a1.321,1.321,0,0,0,1.445,1.342,1.357,1.357,0,0,0,1.465-1.5V73.7H186.1v3.338c0,.527-.266.808-.736.808a.659.659,0,0,1-.716-.651Zm3.872-.043c.053.844.758,1.384,1.81,1.384,1.123,0,1.826-.566,1.826-1.469,0-.71-.4-1.1-1.373-1.329l-.522-.128c-.617-.144-.867-.337-.867-.674,0-.426.388-.7.969-.7a.9.9,0,0,1,1,.707h.716a1.544,1.544,0,0,0-1.708-1.355c-1.035,0-1.725.56-1.725,1.4,0,.694.391,1.106,1.248,1.306l.611.147c.627.147.9.363.9.723,0,.419-.433.723-1.025.723-.634,0-1.074-.285-1.136-.733Z" transform="translate(-113.333 -45.868)" fill="#fff"/></g></g></g></svg>