<svg xmlns="http://www.w3.org/2000/svg" width="48.156" height="48.156" viewBox="0 0 48.156 48.156"><path d="M39.557,23.759H8.6A8.609,8.609,0,0,1,0,15.16V11.72a1.72,1.72,0,1,1,3.44,0v3.44a5.165,5.165,0,0,0,5.16,5.16H39.557a5.165,5.165,0,0,0,5.16-5.16V11.72a1.72,1.72,0,0,1,3.44,0v3.44A8.609,8.609,0,0,1,39.557,23.759Z" transform="translate(0 24.397)" fill="#fff"/><path d="M15.539,20.979a1.72,1.72,0,0,1-1.306-.6L3.914,8.339A1.72,1.72,0,1,1,6.526,6.1l9.013,10.516L24.552,6.1a1.72,1.72,0,1,1,2.612,2.239L16.845,20.378A1.72,1.72,0,0,1,15.539,20.979Z" transform="translate(8.539 13.419)" fill="#fff"/><path d="M1.22,33.9A1.72,1.72,0,0,1-.5,32.177V1.22a1.72,1.72,0,1,1,3.44,0V32.177A1.72,1.72,0,0,1,1.22,33.9Z" transform="translate(22.858 0.5)" fill="#fff"/></svg>