<svg xmlns="http://www.w3.org/2000/svg" width="417.461" height="192.299" viewBox="0 0 417.461 192.299"><g transform="translate(-304.5 -2219.835)"><g transform="translate(305 2220.335)"><path d="M9.075.5h399.31a8.575,8.575,0,0,1,8.576,8.575V183.224a8.575,8.575,0,0,1-8.576,8.575H9.075A8.575,8.575,0,0,1,.5,183.224V9.075A8.575,8.575,0,0,1,9.075.5Z" transform="translate(-0.5 -0.5)" fill="#fff" stroke="#d6d6d6" stroke-width="1"/><path d="M64.093,91.417l-2.709-4.785H60.223v4.785H57.76V79.139h4.609a5.3,5.3,0,0,1,2.428.51A3.376,3.376,0,0,1,66.292,81a3.6,3.6,0,0,1,.51,1.9,3.694,3.694,0,0,1-.7,2.2A3.632,3.632,0,0,1,64,86.439l2.938,4.978Zm-3.87-6.632h2.058a2.081,2.081,0,0,0,1.5-.475,1.83,1.83,0,0,0,.493-1.354,1.689,1.689,0,0,0-.493-1.3,2.081,2.081,0,0,0-1.5-.475H60.223ZM73.268,91.54a5.894,5.894,0,0,1-2.322-.44,3.809,3.809,0,0,1-1.618-1.267,3.334,3.334,0,0,1-.616-1.953h2.639a1.724,1.724,0,0,0,.528,1.2,1.934,1.934,0,0,0,1.337.44,2.074,2.074,0,0,0,1.354-.4,1.37,1.37,0,0,0,.493-1.091,1.25,1.25,0,0,0-.334-.9,2.238,2.238,0,0,0-.844-.545,11.559,11.559,0,0,0-1.372-.457,16.42,16.42,0,0,1-1.953-.686A3.619,3.619,0,0,1,69.275,84.4a3.032,3.032,0,0,1-.528-1.865,3.318,3.318,0,0,1,.545-1.9,3.412,3.412,0,0,1,1.53-1.231,5.471,5.471,0,0,1,2.252-.44,4.816,4.816,0,0,1,3.078.932,3.386,3.386,0,0,1,1.319,2.568H74.764a1.37,1.37,0,0,0-.545-1.038A1.958,1.958,0,0,0,72.9,81a1.745,1.745,0,0,0-1.161.369,1.349,1.349,0,0,0-.422,1.073,1.156,1.156,0,0,0,.317.827,2.842,2.842,0,0,0,.809.528q.493.193,1.372.457a14.323,14.323,0,0,1,1.953.7,3.507,3.507,0,0,1,1.3,1.055,2.931,2.931,0,0,1,.545,1.847,3.476,3.476,0,0,1-.51,1.829,3.658,3.658,0,0,1-1.5,1.354A5.175,5.175,0,0,1,73.268,91.54Zm13.1-12.4v7.6a2.638,2.638,0,0,0,.651,1.917,2.921,2.921,0,0,0,3.676,0,2.636,2.636,0,0,0,.651-1.917v-7.6h2.48V86.72a4.891,4.891,0,0,1-.686,2.656,4.243,4.243,0,0,1-1.812,1.618,6.034,6.034,0,0,1-5.013,0,4.181,4.181,0,0,1-1.759-1.618A5.1,5.1,0,0,1,83.9,86.72V79.139Zm21.94,2.392a3.866,3.866,0,0,1,2.885,1.108A4.1,4.1,0,0,1,112.3,85.7v5.717h-2.463V86.034a2.4,2.4,0,0,0-.58-1.741,2.071,2.071,0,0,0-1.583-.616,2.129,2.129,0,0,0-1.6.616,2.4,2.4,0,0,0-.58,1.741v5.383h-2.463V86.034a2.4,2.4,0,0,0-.58-1.741,2.071,2.071,0,0,0-1.583-.616,2.152,2.152,0,0,0-1.618.616,2.4,2.4,0,0,0-.58,1.741v5.383H96.205V81.672h2.463V82.85a3.294,3.294,0,0,1,1.214-.967,3.873,3.873,0,0,1,1.654-.352,4.17,4.17,0,0,1,2.041.493,3.335,3.335,0,0,1,1.39,1.372,3.543,3.543,0,0,1,1.372-1.354A3.98,3.98,0,0,1,108.308,81.531Zm15.53.141v9.745h-2.48V90.186a3.313,3.313,0,0,1-1.249,1,3.875,3.875,0,0,1-1.654.352,4.191,4.191,0,0,1-2.023-.475,3.538,3.538,0,0,1-1.39-1.425,4.83,4.83,0,0,1-.493-2.252V81.672h2.463v5.365a2.56,2.56,0,0,0,.58,1.794,2.072,2.072,0,0,0,1.583.616,2.094,2.094,0,0,0,1.6-.616,2.56,2.56,0,0,0,.581-1.794V81.672Zm14.532-.141a3.866,3.866,0,0,1,2.885,1.108,4.1,4.1,0,0,1,1.108,3.061v5.717H139.9V86.034a2.4,2.4,0,0,0-.581-1.741,2.071,2.071,0,0,0-1.583-.616,2.129,2.129,0,0,0-1.6.616,2.4,2.4,0,0,0-.581,1.741v5.383h-2.463V86.034a2.4,2.4,0,0,0-.581-1.741,2.071,2.071,0,0,0-1.583-.616,2.153,2.153,0,0,0-1.618.616,2.4,2.4,0,0,0-.58,1.741v5.383h-2.463V81.672h2.463V82.85a3.294,3.294,0,0,1,1.214-.967,3.873,3.873,0,0,1,1.654-.352,4.169,4.169,0,0,1,2.041.493,3.333,3.333,0,0,1,1.39,1.372,3.544,3.544,0,0,1,1.372-1.354A3.98,3.98,0,0,1,138.37,81.531Zm14.814-2.392a7.281,7.281,0,0,1,3.4.756,5.322,5.322,0,0,1,2.269,2.164,6.878,6.878,0,0,1,0,6.473,5.385,5.385,0,0,1-2.269,2.128,7.28,7.28,0,0,1-3.4.756h-4.292V79.139ZM153.1,89.324a4.224,4.224,0,0,0,2.99-7.019,3.969,3.969,0,0,0-2.99-1.091h-1.741v8.109Zm7.771-2.815a5.711,5.711,0,0,1,.581-2.621,4.4,4.4,0,0,1,1.6-1.759,4.308,4.308,0,0,1,2.269-.616,3.917,3.917,0,0,1,1.9.44,3.845,3.845,0,0,1,1.319,1.108v-1.39h2.48v9.745h-2.48V89.992a3.72,3.72,0,0,1-1.319,1.143,4.02,4.02,0,0,1-1.917.44,4.187,4.187,0,0,1-2.252-.633,4.534,4.534,0,0,1-1.6-1.777A5.861,5.861,0,0,1,160.867,86.509Zm7.67.035a3.1,3.1,0,0,0-.352-1.53,2.4,2.4,0,0,0-.95-.985,2.543,2.543,0,0,0-2.551-.018,2.563,2.563,0,0,0-.95.985,3.071,3.071,0,0,0-.352,1.513,3.278,3.278,0,0,0,.352,1.548,2.7,2.7,0,0,0,.95,1,2.461,2.461,0,0,0,1.267.352,2.588,2.588,0,0,0,1.284-.334,2.556,2.556,0,0,0,.95-.985A3.207,3.207,0,0,0,168.537,86.545Zm13.945-.211a5.846,5.846,0,0,1-.07.95h-7.124a2.422,2.422,0,0,0,.739,1.654,2.277,2.277,0,0,0,1.6.6,2.011,2.011,0,0,0,1.953-1.179h2.656a4.486,4.486,0,0,1-1.618,2.322,4.757,4.757,0,0,1-2.938.9,5.192,5.192,0,0,1-2.533-.616,4.532,4.532,0,0,1-1.741-1.777,6,6,0,0,1,0-5.295,4.3,4.3,0,0,1,1.724-1.759,5.164,5.164,0,0,1,2.551-.616,5.074,5.074,0,0,1,2.48.6,4.127,4.127,0,0,1,1.706,1.706A5.03,5.03,0,0,1,182.482,86.333Zm-2.551-.7a1.927,1.927,0,0,0-.686-1.513,2.409,2.409,0,0,0-1.636-.58,2.247,2.247,0,0,0-1.548.563,2.417,2.417,0,0,0-.756,1.53Zm6.811-2.445a3.361,3.361,0,0,1,2.99-1.654v2.586h-.651a2.046,2.046,0,0,0-2.34,2.445v4.855h-2.463V81.672h2.463Zm4.016,3.325a5.711,5.711,0,0,1,.58-2.621,4.4,4.4,0,0,1,1.6-1.759,4.308,4.308,0,0,1,2.269-.616,3.917,3.917,0,0,1,1.9.44,3.845,3.845,0,0,1,1.319,1.108v-1.39h2.48v9.745h-2.48V89.992a3.72,3.72,0,0,1-1.319,1.143,4.02,4.02,0,0,1-1.917.44,4.187,4.187,0,0,1-2.252-.633,4.534,4.534,0,0,1-1.6-1.777A5.861,5.861,0,0,1,190.758,86.509Zm7.67.035a3.1,3.1,0,0,0-.352-1.53,2.4,2.4,0,0,0-.95-.985,2.543,2.543,0,0,0-2.551-.018,2.563,2.563,0,0,0-.95.985,3.071,3.071,0,0,0-.352,1.513,3.278,3.278,0,0,0,.352,1.548,2.7,2.7,0,0,0,.95,1,2.461,2.461,0,0,0,1.267.352,2.588,2.588,0,0,0,1.284-.334,2.556,2.556,0,0,0,.95-.985A3.207,3.207,0,0,0,198.427,86.545ZM208.8,81.531a3.9,3.9,0,0,1,1.97.493,3.22,3.22,0,0,1,1.337,1.425A4.769,4.769,0,0,1,212.6,85.7v5.717h-2.463V86.034a2.494,2.494,0,0,0-.58-1.777,2.041,2.041,0,0,0-1.583-.633,2.119,2.119,0,0,0-1.618.633,2.494,2.494,0,0,0-.58,1.777v5.383h-2.463V78.4h2.463v4.486a3.14,3.14,0,0,1,1.267-.985A4.108,4.108,0,0,1,208.8,81.531Zm23.719-2.392V91.417h-2.463V83.431l-3.289,7.986H224.9L221.6,83.431v7.986h-2.463V79.139h2.8l3.905,9.13,3.905-9.13Zm1.8,7.371a5.711,5.711,0,0,1,.58-2.621,4.4,4.4,0,0,1,1.6-1.759,4.306,4.306,0,0,1,2.269-.616,3.92,3.92,0,0,1,1.9.44,3.853,3.853,0,0,1,1.319,1.108v-1.39h2.48v9.745h-2.48V89.992a3.72,3.72,0,0,1-1.319,1.143,4.022,4.022,0,0,1-1.917.44,4.185,4.185,0,0,1-2.252-.633,4.531,4.531,0,0,1-1.6-1.777A5.861,5.861,0,0,1,234.323,86.509Zm7.67.035a3.11,3.11,0,0,0-.352-1.53,2.411,2.411,0,0,0-.95-.985,2.543,2.543,0,0,0-2.551-.018,2.563,2.563,0,0,0-.95.985,3.066,3.066,0,0,0-.352,1.513,3.272,3.272,0,0,0,.352,1.548,2.7,2.7,0,0,0,.95,1,2.459,2.459,0,0,0,1.267.352,2.589,2.589,0,0,0,1.284-.334,2.563,2.563,0,0,0,.95-.985A3.212,3.212,0,0,0,241.992,86.545Zm16.988-5.013a3.866,3.866,0,0,1,2.885,1.108,4.1,4.1,0,0,1,1.108,3.061v5.717H260.51V86.034a2.4,2.4,0,0,0-.581-1.741,2.071,2.071,0,0,0-1.583-.616,2.129,2.129,0,0,0-1.6.616,2.4,2.4,0,0,0-.581,1.741v5.383H253.7V86.034a2.4,2.4,0,0,0-.58-1.741,2.071,2.071,0,0,0-1.583-.616,2.152,2.152,0,0,0-1.618.616,2.4,2.4,0,0,0-.581,1.741v5.383h-2.463V81.672h2.463V82.85a3.3,3.3,0,0,1,1.214-.967,3.873,3.873,0,0,1,1.654-.352,4.17,4.17,0,0,1,2.041.493,3.336,3.336,0,0,1,1.39,1.372,3.543,3.543,0,0,1,1.372-1.354A3.98,3.98,0,0,1,258.98,81.531Zm8.793,1.548a3.681,3.681,0,0,1,1.3-1.108,3.96,3.96,0,0,1,1.917-.457,4.222,4.222,0,0,1,3.852,2.375,5.5,5.5,0,0,1,.6,2.621,5.716,5.716,0,0,1-.6,2.656,4.362,4.362,0,0,1-1.6,1.777,4.129,4.129,0,0,1-2.252.633,3.982,3.982,0,0,1-1.9-.44,4.084,4.084,0,0,1-1.319-1.108v6.034H265.31V81.672h2.463Zm5.154,3.43A2.951,2.951,0,0,0,272.557,85a2.4,2.4,0,0,0-.95-.985,2.494,2.494,0,0,0-1.267-.334,2.46,2.46,0,0,0-1.267.352,2.563,2.563,0,0,0-.95.985,3.5,3.5,0,0,0,0,3.061,2.7,2.7,0,0,0,.95,1,2.557,2.557,0,0,0,1.267.334,2.4,2.4,0,0,0,1.267-.352,2.524,2.524,0,0,0,.95-1A3.086,3.086,0,0,0,272.927,86.509Zm3.672,0a5.711,5.711,0,0,1,.581-2.621,4.4,4.4,0,0,1,1.6-1.759,4.306,4.306,0,0,1,2.269-.616,3.92,3.92,0,0,1,1.9.44,3.854,3.854,0,0,1,1.319,1.108v-1.39h2.48v9.745h-2.48V89.992a3.72,3.72,0,0,1-1.319,1.143,4.022,4.022,0,0,1-1.917.44,4.184,4.184,0,0,1-2.252-.633,4.535,4.535,0,0,1-1.6-1.777A5.861,5.861,0,0,1,276.6,86.509Zm7.67.035a3.11,3.11,0,0,0-.352-1.53,2.411,2.411,0,0,0-.95-.985,2.543,2.543,0,0,0-2.551-.018,2.565,2.565,0,0,0-.949.985,3.066,3.066,0,0,0-.352,1.513,3.272,3.272,0,0,0,.352,1.548,2.7,2.7,0,0,0,.949,1,2.461,2.461,0,0,0,1.267.352,2.589,2.589,0,0,0,1.284-.334,2.563,2.563,0,0,0,.95-.985A3.212,3.212,0,0,0,284.269,86.545Zm10.286-5.013a3.741,3.741,0,0,1,2.815,1.108,4.177,4.177,0,0,1,1.073,3.061v5.717h-2.463V86.034a2.494,2.494,0,0,0-.58-1.777,2.041,2.041,0,0,0-1.583-.633,2.12,2.12,0,0,0-1.618.633,2.494,2.494,0,0,0-.581,1.777v5.383h-2.463V81.672h2.463v1.214a3.339,3.339,0,0,1,1.249-.985A3.869,3.869,0,0,1,294.554,81.531Zm10.047-.018a4.021,4.021,0,0,1,1.917.44,3.455,3.455,0,0,1,1.3,1.108v-1.39h2.48v9.816a5.173,5.173,0,0,1-.545,2.41,3.977,3.977,0,0,1-1.636,1.689,5.17,5.17,0,0,1-2.639.633,5.676,5.676,0,0,1-3.413-.967,3.6,3.6,0,0,1-1.5-2.639h2.445a1.8,1.8,0,0,0,.827,1.055,2.909,2.909,0,0,0,1.566.4,2.39,2.39,0,0,0,1.741-.651,2.547,2.547,0,0,0,.668-1.935V89.975a3.72,3.72,0,0,1-1.319,1.143,3.86,3.86,0,0,1-1.9.457,4.187,4.187,0,0,1-2.252-.633,4.489,4.489,0,0,1-1.618-1.777,5.861,5.861,0,0,1-.58-2.656,5.711,5.711,0,0,1,.58-2.621,4.4,4.4,0,0,1,1.6-1.759A4.308,4.308,0,0,1,304.6,81.514Zm3.219,5.031a3.1,3.1,0,0,0-.352-1.53,2.4,2.4,0,0,0-.95-.985,2.543,2.543,0,0,0-2.551-.018,2.563,2.563,0,0,0-.95.985,3.071,3.071,0,0,0-.352,1.513,3.278,3.278,0,0,0,.352,1.548,2.7,2.7,0,0,0,.95,1,2.461,2.461,0,0,0,1.267.352,2.588,2.588,0,0,0,1.284-.334,2.556,2.556,0,0,0,.95-.985A3.207,3.207,0,0,0,307.82,86.545ZM66.714,109.325a3.768,3.768,0,0,1-.475,1.847,3.358,3.358,0,0,1-1.46,1.39,5.257,5.257,0,0,1-2.5.528H60.223V117.8H57.76V105.525h4.521a5.461,5.461,0,0,1,2.428.493,3.376,3.376,0,0,1,1.5,1.354A3.761,3.761,0,0,1,66.714,109.325ZM62.175,111.1a2.162,2.162,0,0,0,1.513-.457,1.747,1.747,0,0,0,.493-1.319q0-1.794-2.005-1.794H60.223V111.1Zm8.75-1.53a3.361,3.361,0,0,1,2.99-1.654V110.5h-.651a2.046,2.046,0,0,0-2.34,2.445V117.8H68.462v-9.745h2.463Zm4.016,3.325a5.711,5.711,0,0,1,.58-2.621,4.4,4.4,0,0,1,1.6-1.759,4.307,4.307,0,0,1,2.269-.616,3.918,3.918,0,0,1,1.9.44,3.856,3.856,0,0,1,1.319,1.108v-1.39h2.48V117.8H82.61v-1.425a3.72,3.72,0,0,1-1.319,1.143,4.022,4.022,0,0,1-1.917.44,4.184,4.184,0,0,1-2.252-.633,4.533,4.533,0,0,1-1.6-1.777A5.861,5.861,0,0,1,74.941,112.9Zm7.67.035a3.109,3.109,0,0,0-.352-1.53,2.411,2.411,0,0,0-.95-.985,2.543,2.543,0,0,0-2.551-.018,2.563,2.563,0,0,0-.95.985,3.066,3.066,0,0,0-.352,1.513,3.272,3.272,0,0,0,.352,1.548,2.7,2.7,0,0,0,.95,1,2.459,2.459,0,0,0,1.267.352,2.589,2.589,0,0,0,1.284-.334,2.562,2.562,0,0,0,.95-.985A3.213,3.213,0,0,0,82.61,112.931Zm7.348-3.465a3.684,3.684,0,0,1,1.3-1.108,3.963,3.963,0,0,1,1.917-.457,4.222,4.222,0,0,1,3.852,2.375,5.5,5.5,0,0,1,.6,2.621,5.715,5.715,0,0,1-.6,2.656,4.361,4.361,0,0,1-1.6,1.777,4.128,4.128,0,0,1-2.252.633,3.984,3.984,0,0,1-1.9-.44,4.093,4.093,0,0,1-1.319-1.108v6.034H87.5V108.058h2.463Zm5.154,3.43a2.952,2.952,0,0,0-.369-1.513,2.4,2.4,0,0,0-.95-.985,2.493,2.493,0,0,0-1.267-.334,2.461,2.461,0,0,0-1.267.352,2.563,2.563,0,0,0-.95.985,3.5,3.5,0,0,0,0,3.061,2.7,2.7,0,0,0,.95,1,2.557,2.557,0,0,0,1.267.334,2.4,2.4,0,0,0,1.267-.352,2.524,2.524,0,0,0,.95-1A3.086,3.086,0,0,0,95.113,112.9Zm3.672,0a5.71,5.71,0,0,1,.581-2.621,4.4,4.4,0,0,1,1.6-1.759,4.307,4.307,0,0,1,2.269-.616,3.918,3.918,0,0,1,1.9.44,3.856,3.856,0,0,1,1.319,1.108v-1.39h2.48V117.8h-2.48v-1.425a3.72,3.72,0,0,1-1.319,1.143,4.022,4.022,0,0,1-1.917.44,4.184,4.184,0,0,1-2.252-.633,4.53,4.53,0,0,1-1.6-1.777A5.861,5.861,0,0,1,98.785,112.9Zm7.67.035a3.109,3.109,0,0,0-.352-1.53,2.41,2.41,0,0,0-.95-.985,2.543,2.543,0,0,0-2.551-.018,2.563,2.563,0,0,0-.95.985,3.066,3.066,0,0,0-.352,1.513,3.272,3.272,0,0,0,.352,1.548,2.7,2.7,0,0,0,.95,1,2.459,2.459,0,0,0,1.267.352,2.589,2.589,0,0,0,1.284-.334,2.562,2.562,0,0,0,.95-.985A3.212,3.212,0,0,0,106.454,112.931Zm7.753-2.85V114.8a.985.985,0,0,0,.229.721,1.239,1.239,0,0,0,.809.211h1.143V117.8H114.84q-3.114,0-3.114-3.026v-4.7h-1.161v-2.023h1.161v-2.41h2.48v2.41h2.181v2.023Zm3.319,2.815a5.711,5.711,0,0,1,.58-2.621,4.4,4.4,0,0,1,1.6-1.759,4.307,4.307,0,0,1,2.269-.616,3.918,3.918,0,0,1,1.9.44,3.857,3.857,0,0,1,1.319,1.108v-1.39h2.48V117.8H125.2v-1.425a3.72,3.72,0,0,1-1.319,1.143,4.022,4.022,0,0,1-1.917.44,4.184,4.184,0,0,1-2.252-.633,4.53,4.53,0,0,1-1.6-1.777A5.861,5.861,0,0,1,117.526,112.9Zm7.67.035a3.109,3.109,0,0,0-.352-1.53,2.41,2.41,0,0,0-.95-.985,2.543,2.543,0,0,0-2.551-.018,2.563,2.563,0,0,0-.95.985,3.066,3.066,0,0,0-.352,1.513,3.272,3.272,0,0,0,.352,1.548,2.7,2.7,0,0,0,.95,1,2.459,2.459,0,0,0,1.267.352,2.589,2.589,0,0,0,1.284-.334,2.562,2.562,0,0,0,.95-.985A3.212,3.212,0,0,0,125.2,112.931Zm10.286-5.013a3.741,3.741,0,0,1,2.815,1.108,4.177,4.177,0,0,1,1.073,3.061V117.8h-2.463v-5.383a2.494,2.494,0,0,0-.581-1.777,2.041,2.041,0,0,0-1.583-.633,2.12,2.12,0,0,0-1.618.633,2.494,2.494,0,0,0-.58,1.777V117.8h-2.463v-9.745h2.463v1.214a3.337,3.337,0,0,1,1.249-.985A3.869,3.869,0,0,1,135.482,107.917Z" transform="translate(-32.579 -44.142)"/><path d="M738,284.8a8.8,8.8,0,0,1,8.8-8.8h83.556v61.568a8.8,8.8,0,0,1-8.8,8.8H738Z" transform="translate(-413.67 -154.844)" fill="#2773e4"/><path d="M61.336,317.367v6.794a2.435,2.435,0,0,1-.7,1.821,2.563,2.563,0,0,1-4.406-1.913h1.2a1.786,1.786,0,0,0,.343,1.1,1.45,1.45,0,0,0,2.019.026,1.587,1.587,0,0,0,.33-1.029v-6.794ZM64.9,316.8v9.763H63.7V316.8Zm2.429,9.842a.818.818,0,1,1,0-1.636.732.732,0,0,1,.554.237.828.828,0,0,1,0,1.161A.732.732,0,0,1,67.33,326.642Zm10.892-.079-3.786-4.2v4.2h-1.2v-9.2h1.2v4.261l3.8-4.261h1.517l-4.169,4.6,4.209,4.591Zm2.462-3.641a4.022,4.022,0,0,1,.449-1.939,3.259,3.259,0,0,1,1.227-1.306,3.419,3.419,0,0,1,1.755-.462,3.208,3.208,0,0,1,1.649.409,2.725,2.725,0,0,1,1.042,1.029v-1.319H88.02v7.23H86.806v-1.346a2.863,2.863,0,0,1-1.069,1.055,3.181,3.181,0,0,1-1.636.409,3.277,3.277,0,0,1-1.741-.475,3.331,3.331,0,0,1-1.227-1.332A4.15,4.15,0,0,1,80.684,322.922Zm6.122.013a2.939,2.939,0,0,0-.33-1.425,2.27,2.27,0,0,0-.9-.924,2.354,2.354,0,0,0-1.227-.33,2.429,2.429,0,0,0-1.227.317,2.3,2.3,0,0,0-.884.924,2.939,2.939,0,0,0-.33,1.425,3.046,3.046,0,0,0,.33,1.451,2.391,2.391,0,0,0,.884.937,2.536,2.536,0,0,0,2.454,0,2.361,2.361,0,0,0,.9-.937A3.017,3.017,0,0,0,86.806,322.935Zm4.443-2.269a2.827,2.827,0,0,1,1.055-1.029,3.173,3.173,0,0,1,1.649-.422,3.348,3.348,0,0,1,1.741.462,3.23,3.23,0,0,1,1.24,1.306,4.022,4.022,0,0,1,.449,1.939,4.15,4.15,0,0,1-.449,1.953,3.308,3.308,0,0,1-2.982,1.807,3.227,3.227,0,0,1-1.636-.409,3.039,3.039,0,0,1-1.069-1.042v4.763h-1.2v-10.66h1.2Zm4.908,2.256a2.939,2.939,0,0,0-.33-1.425,2.271,2.271,0,0,0-.9-.924,2.429,2.429,0,0,0-1.227-.317,2.4,2.4,0,0,0-1.227.33,2.365,2.365,0,0,0-.9.937,2.911,2.911,0,0,0-.33,1.412,3.017,3.017,0,0,0,.33,1.438,2.342,2.342,0,0,0,2.124,1.253,2.429,2.429,0,0,0,1.227-.317,2.361,2.361,0,0,0,.9-.937A3.046,3.046,0,0,0,96.157,322.922Zm4.272-2.6v4.261a1.039,1.039,0,0,0,.224.752,1.129,1.129,0,0,0,.778.211h.884v1.016h-1.082a2.153,2.153,0,0,1-1.5-.462,1.982,1.982,0,0,1-.5-1.517v-4.261h-.937v-.989h.937v-1.821h1.2v1.821h1.887v.989Zm9.937,2.348a7.069,7.069,0,0,1-.04.726h-5.779a2.251,2.251,0,0,0,2.348,2.269,2.219,2.219,0,0,0,1.293-.356,1.943,1.943,0,0,0,.739-.976h1.293a3.139,3.139,0,0,1-1.161,1.7,3.529,3.529,0,0,1-2.164.646,3.691,3.691,0,0,1-1.847-.462,3.292,3.292,0,0,1-1.267-1.306,4.5,4.5,0,0,1-.013-3.945,3.118,3.118,0,0,1,1.253-1.293,3.745,3.745,0,0,1,1.873-.462,3.629,3.629,0,0,1,1.821.449,3.051,3.051,0,0,1,1.214,1.24A3.559,3.559,0,0,1,110.366,322.671Zm-1.24-.251a2.18,2.18,0,0,0-.3-1.174,1.909,1.909,0,0,0-.831-.752,2.478,2.478,0,0,0-1.148-.264,2.249,2.249,0,0,0-1.557.58,2.379,2.379,0,0,0-.726,1.61Zm6.348-3.219a2.917,2.917,0,0,1,2.137.8,3.049,3.049,0,0,1,.818,2.3v4.261h-1.187v-4.09a2.3,2.3,0,0,0-.541-1.649,1.921,1.921,0,0,0-1.478-.581,2,2,0,0,0-1.517.594,2.444,2.444,0,0,0-.554,1.728v4h-1.2v-7.23h1.2v1.029a2.394,2.394,0,0,1,.963-.858A3.049,3.049,0,0,1,115.473,319.2Zm14.582.858a2.551,2.551,0,0,1-.792,1.913,3.324,3.324,0,0,1-2.388.752h-1.768v3.839h-1.2v-9.2h2.968a3.34,3.34,0,0,1,2.362.752A2.515,2.515,0,0,1,130.055,320.059Zm-3.18,1.676a2.134,2.134,0,0,0,1.478-.435,1.6,1.6,0,0,0,.475-1.24q0-1.7-1.953-1.7h-1.768v3.377Zm5.054,4.908a.818.818,0,1,1,0-1.636.732.732,0,0,1,.554.237.828.828,0,0,1,0,1.161A.732.732,0,0,1,131.93,326.642Zm11.564-9.275v.976h-2.507v8.219h-1.2v-8.219h-2.52v-.976Zm8.075,5.3a7.071,7.071,0,0,1-.04.726h-5.779a2.251,2.251,0,0,0,2.348,2.269,2.219,2.219,0,0,0,1.293-.356,1.943,1.943,0,0,0,.739-.976h1.293a3.139,3.139,0,0,1-1.161,1.7,3.529,3.529,0,0,1-2.164.646,3.691,3.691,0,0,1-1.847-.462,3.292,3.292,0,0,1-1.267-1.306,4.5,4.5,0,0,1-.013-3.945,3.118,3.118,0,0,1,1.253-1.293,3.745,3.745,0,0,1,1.873-.462,3.629,3.629,0,0,1,1.821.449,3.051,3.051,0,0,1,1.214,1.24A3.559,3.559,0,0,1,151.569,322.671Zm-1.24-.251a2.18,2.18,0,0,0-.3-1.174,1.909,1.909,0,0,0-.831-.752,2.478,2.478,0,0,0-1.148-.264,2.249,2.249,0,0,0-1.557.58,2.379,2.379,0,0,0-.726,1.61Zm6.347-3.219a2.917,2.917,0,0,1,2.137.8,3.049,3.049,0,0,1,.818,2.3v4.261h-1.187v-4.09a2.3,2.3,0,0,0-.541-1.649,1.921,1.921,0,0,0-1.478-.581,2,2,0,0,0-1.517.594,2.444,2.444,0,0,0-.554,1.728v4h-1.2v-7.23h1.2v1.029a2.393,2.393,0,0,1,.963-.858A3.049,3.049,0,0,1,156.676,319.2Zm4.468,3.72a4.022,4.022,0,0,1,.449-1.939,3.259,3.259,0,0,1,1.227-1.306,3.444,3.444,0,0,1,1.768-.462,3.227,3.227,0,0,1,1.57.4,2.763,2.763,0,0,1,1.108,1.016V316.8h1.214v9.763h-1.214V325.2a2.856,2.856,0,0,1-1.055,1.069,3.181,3.181,0,0,1-1.636.409,3.27,3.27,0,0,1-2.982-1.807A4.15,4.15,0,0,1,161.144,322.922Zm6.122.013a2.939,2.939,0,0,0-.33-1.425,2.27,2.27,0,0,0-.9-.924,2.354,2.354,0,0,0-1.227-.33,2.429,2.429,0,0,0-1.227.317,2.3,2.3,0,0,0-.884.924,2.939,2.939,0,0,0-.33,1.425,3.046,3.046,0,0,0,.33,1.451,2.391,2.391,0,0,0,.884.937,2.536,2.536,0,0,0,2.454,0,2.361,2.361,0,0,0,.9-.937A3.017,3.017,0,0,0,167.265,322.935Zm9.839-.264a7.062,7.062,0,0,1-.04.726h-5.779a2.251,2.251,0,0,0,2.348,2.269,2.219,2.219,0,0,0,1.293-.356,1.943,1.943,0,0,0,.739-.976h1.293a3.139,3.139,0,0,1-1.161,1.7,3.529,3.529,0,0,1-2.164.646,3.691,3.691,0,0,1-1.847-.462,3.292,3.292,0,0,1-1.267-1.306,4.5,4.5,0,0,1-.013-3.945,3.118,3.118,0,0,1,1.253-1.293,3.745,3.745,0,0,1,1.873-.462,3.629,3.629,0,0,1,1.821.449,3.051,3.051,0,0,1,1.214,1.24A3.559,3.559,0,0,1,177.1,322.671Zm-1.24-.251a2.18,2.18,0,0,0-.3-1.174,1.909,1.909,0,0,0-.831-.752,2.478,2.478,0,0,0-1.148-.264,2.249,2.249,0,0,0-1.557.58,2.379,2.379,0,0,0-.726,1.61Zm2.376.5a4.022,4.022,0,0,1,.449-1.939,3.259,3.259,0,0,1,1.227-1.306,3.419,3.419,0,0,1,1.755-.462,3.208,3.208,0,0,1,1.649.409,2.725,2.725,0,0,1,1.042,1.029v-1.319h1.214v7.23h-1.214v-1.346a2.863,2.863,0,0,1-1.069,1.055,3.181,3.181,0,0,1-1.636.409,3.277,3.277,0,0,1-1.741-.475,3.331,3.331,0,0,1-1.227-1.332A4.15,4.15,0,0,1,178.241,322.922Zm6.122.013a2.939,2.939,0,0,0-.33-1.425,2.27,2.27,0,0,0-.9-.924,2.354,2.354,0,0,0-1.227-.33,2.429,2.429,0,0,0-1.227.317,2.3,2.3,0,0,0-.884.924,2.939,2.939,0,0,0-.33,1.425,3.046,3.046,0,0,0,.33,1.451,2.391,2.391,0,0,0,.884.937,2.536,2.536,0,0,0,2.454,0,2.361,2.361,0,0,0,.9-.937A3.017,3.017,0,0,0,184.362,322.935Zm6.765-3.734a2.917,2.917,0,0,1,2.137.8,3.049,3.049,0,0,1,.818,2.3v4.261H192.9v-4.09a2.3,2.3,0,0,0-.541-1.649,1.921,1.921,0,0,0-1.478-.581,2,2,0,0,0-1.517.594,2.444,2.444,0,0,0-.554,1.728v4h-1.2v-7.23h1.2v1.029a2.393,2.393,0,0,1,.963-.858A3.049,3.049,0,0,1,191.127,319.2Zm15.664,7.362h-1.2l-4.829-7.322v7.322h-1.2v-9.209h1.2l4.829,7.309v-7.309h1.2Zm5.2.119a3.738,3.738,0,0,1-1.847-.462,3.356,3.356,0,0,1-1.293-1.306,4.11,4.11,0,0,1-.462-1.979,3.915,3.915,0,0,1,.475-1.953,3.305,3.305,0,0,1,1.319-1.306,3.978,3.978,0,0,1,3.72,0,3.241,3.241,0,0,1,1.306,1.293,4.179,4.179,0,0,1-.013,3.945,3.4,3.4,0,0,1-1.333,1.306A3.84,3.84,0,0,1,211.991,326.682Zm0-1.055a2.535,2.535,0,0,0,1.214-.3,2.266,2.266,0,0,0,.91-.91,2.872,2.872,0,0,0,.356-1.478,2.961,2.961,0,0,0-.343-1.478,2.2,2.2,0,0,0-.9-.9,2.46,2.46,0,0,0-1.2-.3,2.486,2.486,0,0,0-1.214.3,2.145,2.145,0,0,0-.871.9,3.057,3.057,0,0,0-.33,1.478,3.194,3.194,0,0,0,.317,1.491,2.234,2.234,0,0,0,.871.91A2.471,2.471,0,0,0,211.991,325.626Zm5.668,1.016a.818.818,0,1,1,0-1.636.732.732,0,0,1,.554.237.828.828,0,0,1,0,1.161A.732.732,0,0,1,217.659,326.642Zm7.25-2.639a1.906,1.906,0,0,0,.607,1.161,1.968,1.968,0,0,0,1.306.409,1.742,1.742,0,0,0,1.61-.858,5.669,5.669,0,0,0,.5-2.889,2.024,2.024,0,0,1-.924.937,3.118,3.118,0,0,1-1.438.33,3.438,3.438,0,0,1-1.583-.356,2.69,2.69,0,0,1-1.082-1.069,3.377,3.377,0,0,1-.4-1.689,3.151,3.151,0,0,1,.818-2.269,3.031,3.031,0,0,1,2.322-.871,2.79,2.79,0,0,1,2.586,1.2,6.828,6.828,0,0,1,.752,3.575,10.375,10.375,0,0,1-.3,2.744,3.035,3.035,0,0,1-1,1.649,2.974,2.974,0,0,1-1.926.567,2.9,2.9,0,0,1-2.1-.726A2.847,2.847,0,0,1,223.8,324Zm1.86-1.926a2.018,2.018,0,0,0,1.451-.541,1.989,1.989,0,0,0,.567-1.491,2.276,2.276,0,0,0-.554-1.6,2,2,0,0,0-1.557-.607,1.947,1.947,0,0,0-1.478.581,2.454,2.454,0,0,0,0,3.074A2.042,2.042,0,0,0,226.77,322.077Zm10.539,2.441H233.3l-.739,2.045h-1.267l3.325-9.143H236l3.311,9.143h-1.267Zm-.343-.976L235.3,318.9l-1.662,4.644Zm11.945-6.174v6.794a2.435,2.435,0,0,1-.7,1.821,2.563,2.563,0,0,1-4.406-1.913h1.2a1.786,1.786,0,0,0,.343,1.1,1.45,1.45,0,0,0,2.019.026,1.587,1.587,0,0,0,.33-1.029v-6.794Zm1.917,5.554a4.022,4.022,0,0,1,.449-1.939,3.259,3.259,0,0,1,1.227-1.306,3.419,3.419,0,0,1,1.755-.462,3.208,3.208,0,0,1,1.649.409,2.725,2.725,0,0,1,1.042,1.029v-1.319h1.214v7.23H256.95v-1.346a2.864,2.864,0,0,1-1.069,1.055,3.181,3.181,0,0,1-1.636.409,3.277,3.277,0,0,1-1.741-.475,3.331,3.331,0,0,1-1.227-1.332A4.15,4.15,0,0,1,250.828,322.922Zm6.122.013a2.939,2.939,0,0,0-.33-1.425,2.27,2.27,0,0,0-.9-.924,2.354,2.354,0,0,0-1.227-.33,2.429,2.429,0,0,0-1.227.317,2.3,2.3,0,0,0-.884.924,2.939,2.939,0,0,0-.33,1.425,3.046,3.046,0,0,0,.33,1.451,2.391,2.391,0,0,0,.884.937,2.536,2.536,0,0,0,2.454,0,2.361,2.361,0,0,0,.9-.937A3.017,3.017,0,0,0,256.95,322.935Zm7.28,3.628-2.836-3.193v3.193h-1.2V316.8h1.2v5.739l2.784-3.206h1.676l-3.4,3.6,3.417,3.628Zm2.3-3.641a4.022,4.022,0,0,1,.449-1.939,3.259,3.259,0,0,1,1.227-1.306,3.419,3.419,0,0,1,1.755-.462,3.208,3.208,0,0,1,1.649.409,2.725,2.725,0,0,1,1.042,1.029v-1.319h1.214v7.23h-1.214v-1.346a2.864,2.864,0,0,1-1.069,1.055,3.181,3.181,0,0,1-1.636.409,3.277,3.277,0,0,1-1.741-.475,3.331,3.331,0,0,1-1.227-1.332A4.15,4.15,0,0,1,266.534,322.922Zm6.122.013a2.94,2.94,0,0,0-.33-1.425,2.27,2.27,0,0,0-.9-.924,2.354,2.354,0,0,0-1.227-.33,2.429,2.429,0,0,0-1.227.317,2.3,2.3,0,0,0-.884.924,2.939,2.939,0,0,0-.33,1.425,3.046,3.046,0,0,0,.33,1.451,2.391,2.391,0,0,0,.884.937,2.536,2.536,0,0,0,2.454,0,2.362,2.362,0,0,0,.9-.937A3.018,3.018,0,0,0,272.655,322.935Zm4.443-2.428a2.315,2.315,0,0,1,.9-.963,2.83,2.83,0,0,1,1.438-.343v1.24h-.317q-2.019,0-2.019,2.19v3.932h-1.2v-7.23h1.2Zm5.185-.185v4.261a1.039,1.039,0,0,0,.224.752,1.13,1.13,0,0,0,.778.211h.884v1.016h-1.082a2.153,2.153,0,0,1-1.5-.462,1.982,1.982,0,0,1-.5-1.517v-4.261h-.937v-.989h.937v-1.821h1.2v1.821h1.887v.989Zm2.893,2.6a4.022,4.022,0,0,1,.449-1.939,3.259,3.259,0,0,1,1.227-1.306,3.419,3.419,0,0,1,1.755-.462,3.208,3.208,0,0,1,1.649.409,2.725,2.725,0,0,1,1.042,1.029v-1.319h1.214v7.23H291.3v-1.346a2.864,2.864,0,0,1-1.069,1.055,3.181,3.181,0,0,1-1.636.409,3.277,3.277,0,0,1-1.741-.475,3.331,3.331,0,0,1-1.227-1.332A4.15,4.15,0,0,1,285.177,322.922Zm6.122.013a2.939,2.939,0,0,0-.33-1.425,2.27,2.27,0,0,0-.9-.924,2.354,2.354,0,0,0-1.227-.33,2.429,2.429,0,0,0-1.227.317,2.3,2.3,0,0,0-.884.924,2.939,2.939,0,0,0-.33,1.425,3.046,3.046,0,0,0,.33,1.451,2.391,2.391,0,0,0,.884.937,2.536,2.536,0,0,0,2.454,0,2.361,2.361,0,0,0,.9-.937A3.017,3.017,0,0,0,291.3,322.935ZM59.621,346.445a4.051,4.051,0,0,1-1.636-.317,2.794,2.794,0,0,1-1.121-.9,2.33,2.33,0,0,1-.422-1.332h1.28a1.725,1.725,0,0,0,.528,1.1,1.961,1.961,0,0,0,1.372.435,1.99,1.99,0,0,0,1.346-.422,1.4,1.4,0,0,0,.5-1.108,1.25,1.25,0,0,0-.29-.858,1.854,1.854,0,0,0-.726-.5,11.335,11.335,0,0,0-1.174-.369,10.667,10.667,0,0,1-1.464-.475,2.432,2.432,0,0,1-.937-.739,2.247,2.247,0,0,1-.383-1.372,2.366,2.366,0,0,1,.383-1.332,2.5,2.5,0,0,1,1.069-.9,3.831,3.831,0,0,1,1.6-.317,3.3,3.3,0,0,1,2.111.646,2.38,2.38,0,0,1,.937,1.715H61.27a1.4,1.4,0,0,0-.554-.924,1.947,1.947,0,0,0-1.293-.409,1.852,1.852,0,0,0-1.227.4,1.31,1.31,0,0,0-.475,1.082,1.2,1.2,0,0,0,.277.818,1.968,1.968,0,0,0,.7.488q.422.158,1.174.369a10.274,10.274,0,0,1,1.464.5,2.365,2.365,0,0,1,.95.752,2.158,2.158,0,0,1,.4,1.372,2.421,2.421,0,0,1-.356,1.267,2.619,2.619,0,0,1-1.055.963A3.483,3.483,0,0,1,59.621,346.445Zm11.424-3.984a7.064,7.064,0,0,1-.04.726H65.227a2.251,2.251,0,0,0,2.348,2.269,2.219,2.219,0,0,0,1.293-.356,1.943,1.943,0,0,0,.739-.976H70.9a3.139,3.139,0,0,1-1.161,1.7,3.529,3.529,0,0,1-2.164.646,3.691,3.691,0,0,1-1.847-.462,3.292,3.292,0,0,1-1.267-1.306,4.5,4.5,0,0,1-.013-3.945,3.118,3.118,0,0,1,1.253-1.293A3.745,3.745,0,0,1,67.575,339a3.628,3.628,0,0,1,1.821.449,3.051,3.051,0,0,1,1.214,1.24A3.559,3.559,0,0,1,71.045,342.46Zm-1.24-.251a2.18,2.18,0,0,0-.3-1.174,1.909,1.909,0,0,0-.831-.752,2.478,2.478,0,0,0-1.148-.264,2.249,2.249,0,0,0-1.557.581,2.379,2.379,0,0,0-.726,1.61Zm4.025-5.62v9.763h-1.2V336.59Zm1.6,6.122a4.022,4.022,0,0,1,.449-1.939,3.258,3.258,0,0,1,1.227-1.306A3.419,3.419,0,0,1,78.858,339a3.208,3.208,0,0,1,1.649.409,2.725,2.725,0,0,1,1.042,1.029v-1.319h1.214v7.23H81.549v-1.346a2.863,2.863,0,0,1-1.069,1.055,3.181,3.181,0,0,1-1.636.409A3.277,3.277,0,0,1,77.1,346a3.331,3.331,0,0,1-1.227-1.332A4.15,4.15,0,0,1,75.428,342.711Zm6.122.013a2.939,2.939,0,0,0-.33-1.425,2.271,2.271,0,0,0-.9-.924,2.354,2.354,0,0,0-1.227-.33,2.429,2.429,0,0,0-1.227.317,2.3,2.3,0,0,0-.884.923,2.939,2.939,0,0,0-.33,1.425,3.046,3.046,0,0,0,.33,1.451,2.391,2.391,0,0,0,.884.937,2.535,2.535,0,0,0,2.454,0,2.361,2.361,0,0,0,.9-.937A3.017,3.017,0,0,0,81.549,342.724Zm4.707-2.612v4.261a1.039,1.039,0,0,0,.224.752,1.13,1.13,0,0,0,.778.211h.884v1.016H87.061a2.153,2.153,0,0,1-1.5-.462,1.982,1.982,0,0,1-.5-1.517v-4.261h-.937v-.989h.937V337.3h1.2v1.821h1.887v.989Zm2.893,2.6a4.022,4.022,0,0,1,.449-1.939,3.258,3.258,0,0,1,1.227-1.306A3.419,3.419,0,0,1,92.579,339a3.208,3.208,0,0,1,1.649.409,2.725,2.725,0,0,1,1.042,1.029v-1.319h1.214v7.23H95.27v-1.346a2.863,2.863,0,0,1-1.069,1.055,3.181,3.181,0,0,1-1.636.409A3.277,3.277,0,0,1,90.824,346a3.331,3.331,0,0,1-1.227-1.332A4.15,4.15,0,0,1,89.149,342.711Zm6.122.013a2.939,2.939,0,0,0-.33-1.425,2.271,2.271,0,0,0-.9-.924,2.354,2.354,0,0,0-1.227-.33,2.429,2.429,0,0,0-1.227.317,2.3,2.3,0,0,0-.884.923,2.939,2.939,0,0,0-.33,1.425,3.046,3.046,0,0,0,.33,1.451,2.391,2.391,0,0,0,.884.937,2.535,2.535,0,0,0,2.454,0,2.361,2.361,0,0,0,.9-.937A3.017,3.017,0,0,0,95.27,342.724Zm6.765-3.734a2.917,2.917,0,0,1,2.137.8,3.049,3.049,0,0,1,.818,2.3v4.261H103.8v-4.09a2.3,2.3,0,0,0-.541-1.649,1.921,1.921,0,0,0-1.478-.581,2,2,0,0,0-1.517.594,2.444,2.444,0,0,0-.554,1.728v4h-1.2v-7.23h1.2v1.029a2.393,2.393,0,0,1,.963-.858A3.049,3.049,0,0,1,102.035,338.991Z" transform="translate(-31.721 -177.701)" fill="#7d7d7d"/><path d="M85.782,260.083H83.44v2.375h-.935v-2.375H80.175v-.847h2.331V256.85h.935v2.386h2.342Zm1.623-.462a5.878,5.878,0,0,1,.616-2.946,2.7,2.7,0,0,1,4.3,0,5.875,5.875,0,0,1,.616,2.946,6.021,6.021,0,0,1-.616,2.99,2.7,2.7,0,0,1-4.3,0A6.024,6.024,0,0,1,87.4,259.621Zm4.54,0A8.4,8.4,0,0,0,91.813,258a2.012,2.012,0,0,0-.517-1.077,1.47,1.47,0,0,0-1.121-.407,1.523,1.523,0,0,0-1.143.407A2.125,2.125,0,0,0,88.515,258a9.148,9.148,0,0,0-.121,1.616,9.574,9.574,0,0,0,.121,1.66,2.125,2.125,0,0,0,.517,1.077,1.523,1.523,0,0,0,1.143.407,1.47,1.47,0,0,0,1.121-.407,2.012,2.012,0,0,0,.517-1.077A8.792,8.792,0,0,0,91.945,259.621Zm2.242,3.254q1.4-1.121,2.188-1.836a8.971,8.971,0,0,0,1.33-1.506,2.721,2.721,0,0,0,.55-1.55,1.659,1.659,0,0,0-.352-1.121,1.354,1.354,0,0,0-1.11-.418,1.473,1.473,0,0,0-1.165.473,1.942,1.942,0,0,0-.44,1.242h-.967a2.639,2.639,0,0,1,.748-1.9,2.831,2.831,0,0,1,3.606-.044,2.248,2.248,0,0,1,.671,1.726,3.294,3.294,0,0,1-.55,1.781,7.851,7.851,0,0,1-1.231,1.517q-.693.648-1.77,1.517h3.782v.836H94.188Zm6.181-6.234v-.913h2.067v7.949h-1.011v-7.036Zm8.678-.132-3.056,7.168h-1.011l3.1-7.069h-4.244v-.858h5.211Zm2.4,5.035a1.587,1.587,0,0,0,.506.967,1.638,1.638,0,0,0,1.088.341,1.452,1.452,0,0,0,1.341-.715,4.728,4.728,0,0,0,.418-2.408,1.687,1.687,0,0,1-.77.781,2.6,2.6,0,0,1-1.2.275,2.864,2.864,0,0,1-1.319-.3,2.243,2.243,0,0,1-.9-.891,2.814,2.814,0,0,1-.33-1.407,2.625,2.625,0,0,1,.682-1.891,2.526,2.526,0,0,1,1.935-.726,2.325,2.325,0,0,1,2.155,1,5.69,5.69,0,0,1,.627,2.979,8.653,8.653,0,0,1-.253,2.287,2.53,2.53,0,0,1-.836,1.374,2.478,2.478,0,0,1-1.605.473,2.413,2.413,0,0,1-1.748-.6,2.371,2.371,0,0,1-.715-1.539Zm1.55-1.605a1.683,1.683,0,0,0,1.209-.451,1.658,1.658,0,0,0,.473-1.242,1.9,1.9,0,0,0-.462-1.33,1.668,1.668,0,0,0-1.3-.506,1.623,1.623,0,0,0-1.231.484,2.045,2.045,0,0,0,0,2.562A1.7,1.7,0,0,0,112.992,259.94Zm8.981-3.43-3.056,7.168h-1.011l3.1-7.069h-4.244v-.858h5.211Zm.845.132v-.913h2.067v7.949h-1.011v-7.036Zm3.522,0v-.913h2.067v7.949H127.4v-7.036Zm3.522,0v-.913h2.067v7.949h-1.011v-7.036Zm8.854-.044h-3.859V259.1a1.784,1.784,0,0,1,.748-.572,2.49,2.49,0,0,1,1.066-.231,2.611,2.611,0,0,1,1.484.385,2.071,2.071,0,0,1,.814.979,3.194,3.194,0,0,1,.253,1.264,3.273,3.273,0,0,1-.3,1.418,2.245,2.245,0,0,1-.913.989,2.884,2.884,0,0,1-1.506.363,2.828,2.828,0,0,1-1.869-.594,2.473,2.473,0,0,1-.869-1.583h.978a1.64,1.64,0,0,0,.6.979,1.869,1.869,0,0,0,1.165.352,1.623,1.623,0,0,0,1.308-.517,2.094,2.094,0,0,0,.44-1.385,1.84,1.84,0,0,0-.44-1.319,1.686,1.686,0,0,0-1.3-.473,1.834,1.834,0,0,0-1.022.286,1.6,1.6,0,0,0-.627.759h-.945v-4.486h4.782Z" transform="translate(-45.136 -143.401)"/><rect width="89.273" height="23.308" rx="11.654" transform="translate(20.01 104.445)" fill="rgba(143,255,115,0.3)"/><path d="M827.585,332.38V329.72l7.909-11.32h3.943v11.029h2.129v2.951h-2.129v3.435h-3.386V332.38Zm8.683-10.352-4.958,7.4h4.958Z" transform="translate(-463.859 -178.598)" fill="#fff"/><path d="M779.61,388.316a1.268,1.268,0,0,1,.607.273,1.533,1.533,0,0,1,.44.545,1.5,1.5,0,0,1,.167.695,1.554,1.554,0,0,1-.237.844,1.65,1.65,0,0,1-.695.589,2.48,2.48,0,0,1-1.064.211H776.54v-6.13h2.2a2.443,2.443,0,0,1,1.064.211,1.48,1.48,0,0,1,.66.554,1.463,1.463,0,0,1,.22.792,1.372,1.372,0,0,1-.3.906A1.637,1.637,0,0,1,779.61,388.316Zm-2.269-.325h1.346a1.3,1.3,0,0,0,.871-.264,1.02,1.02,0,0,0,0-1.46,1.328,1.328,0,0,0-.888-.264H777.34Zm1.416,2.823a1.4,1.4,0,0,0,.932-.281.968.968,0,0,0,.334-.783.982.982,0,0,0-.352-.8,1.405,1.405,0,0,0-.941-.3h-1.39v2.164Zm7.576-1.935a4.714,4.714,0,0,1-.026.484h-3.852a1.5,1.5,0,0,0,1.566,1.513,1.48,1.48,0,0,0,.862-.237,1.3,1.3,0,0,0,.492-.651h.862a2.1,2.1,0,0,1-.774,1.135,2.354,2.354,0,0,1-1.442.431,2.459,2.459,0,0,1-1.231-.308,2.193,2.193,0,0,1-.844-.871,3,3,0,0,1-.009-2.63,2.076,2.076,0,0,1,.836-.862,2.493,2.493,0,0,1,1.249-.308,2.42,2.42,0,0,1,1.214.3,2.034,2.034,0,0,1,.809.827A2.374,2.374,0,0,1,786.332,388.879Zm-.827-.167a1.457,1.457,0,0,0-.2-.783,1.273,1.273,0,0,0-.554-.5,1.65,1.65,0,0,0-.765-.176,1.5,1.5,0,0,0-1.038.387,1.586,1.586,0,0,0-.484,1.073Zm1.584.334a2.683,2.683,0,0,1,.3-1.293,2.172,2.172,0,0,1,.818-.871,2.293,2.293,0,0,1,1.179-.308,2.151,2.151,0,0,1,1.047.264,1.845,1.845,0,0,1,.739.677v-2.551h.809v6.509h-.809v-.906a1.906,1.906,0,0,1-.7.712,2.122,2.122,0,0,1-1.091.273,2.18,2.18,0,0,1-1.988-1.2A2.768,2.768,0,0,1,787.089,389.046Zm4.081.009a1.96,1.96,0,0,0-.22-.95,1.514,1.514,0,0,0-.6-.616,1.571,1.571,0,0,0-.818-.22,1.619,1.619,0,0,0-.818.211,1.531,1.531,0,0,0-.589.616,1.96,1.96,0,0,0-.22.95,2.033,2.033,0,0,0,.22.967,1.593,1.593,0,0,0,.589.624,1.69,1.69,0,0,0,1.636,0,1.574,1.574,0,0,0,.6-.624A2.013,2.013,0,0,0,791.17,389.055Zm8.13,1.055h-2.674l-.493,1.363h-.844l2.216-6.1h.924l2.208,6.1h-.844Zm-.229-.651-1.108-3.1-1.108,3.1Zm4.326,1.275,1.5-4.081h.853l-1.891,4.82h-.932l-1.891-4.82h.862Zm2.837-1.689a2.683,2.683,0,0,1,.3-1.293,2.172,2.172,0,0,1,.818-.871,2.277,2.277,0,0,1,1.17-.308,2.14,2.14,0,0,1,1.1.273,1.815,1.815,0,0,1,.695.686v-.88h.809v4.82h-.809v-.9a1.91,1.91,0,0,1-.712.7,2.122,2.122,0,0,1-1.091.273,2.186,2.186,0,0,1-1.161-.317,2.217,2.217,0,0,1-.818-.888A2.768,2.768,0,0,1,806.234,389.046Zm4.081.009a1.96,1.96,0,0,0-.22-.95,1.513,1.513,0,0,0-.6-.616,1.57,1.57,0,0,0-.818-.22,1.619,1.619,0,0,0-.818.211,1.531,1.531,0,0,0-.589.616,1.96,1.96,0,0,0-.22.95,2.032,2.032,0,0,0,.22.967,1.592,1.592,0,0,0,.589.624,1.69,1.69,0,0,0,1.636,0,1.573,1.573,0,0,0,.6-.624A2.012,2.012,0,0,0,810.316,389.055Zm2.575-3.184a.545.545,0,1,1,0-1.091.488.488,0,0,1,.369.158.552.552,0,0,1,0,.774A.488.488,0,0,1,812.891,385.871Zm.387.783v4.82h-.8v-4.82Zm2.165-1.689v6.509h-.8v-6.509Zm1.065,4.081a2.677,2.677,0,0,1,.3-1.293,2.172,2.172,0,0,1,.818-.871,2.276,2.276,0,0,1,1.17-.308,2.14,2.14,0,0,1,1.1.273,1.818,1.818,0,0,1,.695.686v-.88h.809v4.82h-.809v-.9a1.91,1.91,0,0,1-.712.7,2.123,2.123,0,0,1-1.091.273,2.183,2.183,0,0,1-1.161-.317,2.217,2.217,0,0,1-.818-.888A2.762,2.762,0,0,1,816.508,389.046Zm4.081.009a1.96,1.96,0,0,0-.22-.95,1.516,1.516,0,0,0-.6-.616,1.57,1.57,0,0,0-.818-.22,1.619,1.619,0,0,0-.818.211,1.531,1.531,0,0,0-.589.616,1.956,1.956,0,0,0-.22.95,2.028,2.028,0,0,0,.22.967,1.593,1.593,0,0,0,.589.624,1.69,1.69,0,0,0,1.636,0,1.577,1.577,0,0,0,.6-.624A2.012,2.012,0,0,0,820.589,389.055Zm2.962-1.5a1.892,1.892,0,0,1,.721-.7,2.135,2.135,0,0,1,1.082-.273,2.247,2.247,0,0,1,1.17.308,2.172,2.172,0,0,1,.818.871,2.683,2.683,0,0,1,.3,1.293,2.768,2.768,0,0,1-.3,1.3,2.206,2.206,0,0,1-1.988,1.2,2.17,2.17,0,0,1-1.1-.273,1.861,1.861,0,0,1-.7-.695v.888h-.8v-6.509h.8Zm3.272,1.5a1.96,1.96,0,0,0-.22-.95,1.514,1.514,0,0,0-.6-.616,1.619,1.619,0,0,0-.818-.211,1.6,1.6,0,0,0-.818.22,1.576,1.576,0,0,0-.6.624,1.942,1.942,0,0,0-.22.941,2.013,2.013,0,0,0,.22.959,1.562,1.562,0,0,0,1.416.836,1.619,1.619,0,0,0,.818-.211,1.574,1.574,0,0,0,.6-.624A2.033,2.033,0,0,0,826.822,389.046Zm2.672-4.081v6.509h-.8v-6.509Zm5.762,3.914a4.714,4.714,0,0,1-.026.484h-3.852a1.5,1.5,0,0,0,1.566,1.513,1.48,1.48,0,0,0,.862-.237,1.3,1.3,0,0,0,.492-.651h.862a2.1,2.1,0,0,1-.774,1.135,2.354,2.354,0,0,1-1.442.431,2.459,2.459,0,0,1-1.231-.308,2.193,2.193,0,0,1-.844-.871,3,3,0,0,1-.009-2.63,2.076,2.076,0,0,1,.836-.862,2.493,2.493,0,0,1,1.249-.308,2.42,2.42,0,0,1,1.214.3,2.034,2.034,0,0,1,.809.827A2.374,2.374,0,0,1,835.256,388.879Zm-.827-.167a1.457,1.457,0,0,0-.2-.783,1.273,1.273,0,0,0-.554-.5,1.65,1.65,0,0,0-.765-.176,1.5,1.5,0,0,0-1.038.387,1.586,1.586,0,0,0-.484,1.073Z" transform="translate(-435.262 -215.786)" fill="#fff"/></g></g></svg>