<svg xmlns="http://www.w3.org/2000/svg" width="417.461" height="192.299" viewBox="0 0 417.461 192.299"><g transform="translate(0.5 0.5)"><path d="M9.075.5h399.31a8.575,8.575,0,0,1,8.575,8.575V183.224a8.575,8.575,0,0,1-8.575,8.576H9.075A8.575,8.575,0,0,1,.5,183.224V9.075A8.575,8.575,0,0,1,9.075.5Z" transform="translate(-0.5 -0.5)" fill="#fff" stroke="#d6d6d6" stroke-width="1"/><path d="M64.093,90.431l-2.709-4.785H60.223v4.785H57.76V78.153h4.609a5.3,5.3,0,0,1,2.428.51,3.376,3.376,0,0,1,1.5,1.354,3.6,3.6,0,0,1,.51,1.9,3.694,3.694,0,0,1-.7,2.2A3.632,3.632,0,0,1,64,85.453l2.938,4.978ZM60.223,83.8h2.058a2.081,2.081,0,0,0,1.5-.475,1.83,1.83,0,0,0,.493-1.354,1.689,1.689,0,0,0-.493-1.3,2.081,2.081,0,0,0-1.5-.475H60.223Zm13.046,6.755a5.894,5.894,0,0,1-2.322-.44,3.809,3.809,0,0,1-1.618-1.267,3.334,3.334,0,0,1-.616-1.953h2.639a1.724,1.724,0,0,0,.528,1.2,1.934,1.934,0,0,0,1.337.44,2.074,2.074,0,0,0,1.354-.4,1.37,1.37,0,0,0,.493-1.091,1.25,1.25,0,0,0-.334-.9,2.238,2.238,0,0,0-.844-.545,11.561,11.561,0,0,0-1.372-.457,16.421,16.421,0,0,1-1.953-.686,3.619,3.619,0,0,1-1.284-1.038,3.032,3.032,0,0,1-.528-1.865,3.318,3.318,0,0,1,.545-1.9,3.412,3.412,0,0,1,1.53-1.231,5.471,5.471,0,0,1,2.252-.44,4.816,4.816,0,0,1,3.078.932,3.386,3.386,0,0,1,1.319,2.568H74.764a1.37,1.37,0,0,0-.545-1.038,1.958,1.958,0,0,0-1.319-.422,1.745,1.745,0,0,0-1.161.369,1.349,1.349,0,0,0-.422,1.073,1.156,1.156,0,0,0,.317.827,2.842,2.842,0,0,0,.809.528q.493.193,1.372.457a14.322,14.322,0,0,1,1.953.7,3.507,3.507,0,0,1,1.3,1.055,2.931,2.931,0,0,1,.545,1.847,3.476,3.476,0,0,1-.51,1.829,3.658,3.658,0,0,1-1.5,1.354A5.174,5.174,0,0,1,73.268,90.554Zm8.908-12.4v7.6a2.636,2.636,0,0,0,.651,1.917,2.473,2.473,0,0,0,1.829.651,2.5,2.5,0,0,0,1.847-.651,2.636,2.636,0,0,0,.651-1.917v-7.6h2.48v7.582a4.891,4.891,0,0,1-.686,2.656,4.245,4.245,0,0,1-1.812,1.618,6.034,6.034,0,0,1-5.013,0,4.181,4.181,0,0,1-1.759-1.618,5.094,5.094,0,0,1-.651-2.656V78.153Zm18.792,3.8a3.768,3.768,0,0,1-.475,1.847,3.36,3.36,0,0,1-1.46,1.39,5.258,5.258,0,0,1-2.5.528H94.477v4.714H92.014V78.153h4.521a5.463,5.463,0,0,1,2.428.493,3.377,3.377,0,0,1,1.5,1.354A3.762,3.762,0,0,1,100.968,81.952Zm-4.538,1.777a2.162,2.162,0,0,0,1.513-.457,1.748,1.748,0,0,0,.493-1.319q0-1.794-2.005-1.794H94.477v3.571Zm18.06-5.576v1.988H109.37v3.149h3.923v1.953H109.37v5.189h-2.463V78.153Zm1.113,7.371a5.711,5.711,0,0,1,.58-2.621,4.4,4.4,0,0,1,1.6-1.759,4.306,4.306,0,0,1,2.269-.616,3.92,3.92,0,0,1,1.9.44,3.854,3.854,0,0,1,1.319,1.108v-1.39h2.48v9.745h-2.48V89.006a3.72,3.72,0,0,1-1.319,1.143,4.022,4.022,0,0,1-1.917.44,4.185,4.185,0,0,1-2.252-.633,4.531,4.531,0,0,1-1.6-1.777A5.861,5.861,0,0,1,115.6,85.523Zm7.67.035a3.109,3.109,0,0,0-.352-1.53,2.41,2.41,0,0,0-.95-.985,2.543,2.543,0,0,0-2.551-.018,2.563,2.563,0,0,0-.95.985,3.066,3.066,0,0,0-.352,1.513,3.272,3.272,0,0,0,.352,1.548,2.7,2.7,0,0,0,.95,1,2.459,2.459,0,0,0,1.267.352,2.589,2.589,0,0,0,1.284-.334,2.562,2.562,0,0,0,.95-.985A3.212,3.212,0,0,0,123.272,85.559Zm7.753-2.85v4.714a.985.985,0,0,0,.229.721,1.239,1.239,0,0,0,.809.211h1.143v2.076h-1.548q-3.114,0-3.114-3.026v-4.7h-1.161V80.686h1.161v-2.41h2.48v2.41h2.181v2.023Zm16.055-2.164a3.865,3.865,0,0,1,2.885,1.108,4.1,4.1,0,0,1,1.108,3.061v5.717H148.61V85.048a2.4,2.4,0,0,0-.58-1.741,2.071,2.071,0,0,0-1.583-.616,2.129,2.129,0,0,0-1.6.616,2.4,2.4,0,0,0-.58,1.741v5.383H141.8V85.048a2.4,2.4,0,0,0-.58-1.741,2.071,2.071,0,0,0-1.583-.616,2.152,2.152,0,0,0-1.618.616,2.4,2.4,0,0,0-.581,1.741v5.383h-2.463V80.686h2.463v1.179a3.294,3.294,0,0,1,1.214-.967,3.873,3.873,0,0,1,1.654-.352,4.17,4.17,0,0,1,2.041.493,3.335,3.335,0,0,1,1.39,1.372,3.544,3.544,0,0,1,1.372-1.354A3.981,3.981,0,0,1,147.08,80.545Zm5.7,4.978a5.711,5.711,0,0,1,.581-2.621,4.4,4.4,0,0,1,1.6-1.759,4.308,4.308,0,0,1,2.269-.616,3.92,3.92,0,0,1,1.9.44,3.853,3.853,0,0,1,1.319,1.108v-1.39h2.48v9.745h-2.48V89.006a3.72,3.72,0,0,1-1.319,1.143,4.021,4.021,0,0,1-1.917.44,4.186,4.186,0,0,1-2.252-.633,4.534,4.534,0,0,1-1.6-1.777A5.861,5.861,0,0,1,152.776,85.523Zm7.67.035a3.109,3.109,0,0,0-.352-1.53,2.4,2.4,0,0,0-.95-.985,2.543,2.543,0,0,0-2.551-.018,2.563,2.563,0,0,0-.95.985,3.071,3.071,0,0,0-.352,1.513,3.277,3.277,0,0,0,.352,1.548,2.7,2.7,0,0,0,.95,1,2.461,2.461,0,0,0,1.267.352,2.589,2.589,0,0,0,1.284-.334,2.556,2.556,0,0,0,.95-.985A3.212,3.212,0,0,0,160.446,85.559Zm18.4-4.873-2.85,9.745h-2.656l-1.777-6.808-1.777,6.808h-2.674l-2.867-9.745h2.5l1.724,7.423,1.865-7.423h2.6l1.829,7.406,1.724-7.406Zm.7,4.837a5.711,5.711,0,0,1,.58-2.621,4.4,4.4,0,0,1,1.6-1.759,4.308,4.308,0,0,1,2.269-.616,3.917,3.917,0,0,1,1.9.44,3.845,3.845,0,0,1,1.319,1.108v-1.39h2.48v9.745h-2.48V89.006a3.72,3.72,0,0,1-1.319,1.143,4.02,4.02,0,0,1-1.917.44,4.187,4.187,0,0,1-2.252-.633,4.534,4.534,0,0,1-1.6-1.777A5.861,5.861,0,0,1,179.54,85.523Zm7.67.035a3.1,3.1,0,0,0-.352-1.53,2.4,2.4,0,0,0-.95-.985,2.543,2.543,0,0,0-2.551-.018,2.563,2.563,0,0,0-.95.985,3.071,3.071,0,0,0-.352,1.513,3.277,3.277,0,0,0,.352,1.548,2.7,2.7,0,0,0,.95,1,2.461,2.461,0,0,0,1.267.352,2.588,2.588,0,0,0,1.284-.334,2.556,2.556,0,0,0,.95-.985A3.207,3.207,0,0,0,187.21,85.559Zm7.753-2.85v4.714a.985.985,0,0,0,.229.721,1.238,1.238,0,0,0,.809.211h1.143v2.076H195.6q-3.114,0-3.114-3.026v-4.7h-1.161V80.686h1.161v-2.41h2.48v2.41h2.181v2.023Zm5.2-3.184a1.55,1.55,0,0,1-1.091-.4,1.411,1.411,0,0,1-.422-1.038,1.353,1.353,0,0,1,.422-1.02,1.513,1.513,0,0,1,1.091-.422,1.454,1.454,0,0,1,1.073.422,1.328,1.328,0,0,1,.44,1.02,1.383,1.383,0,0,1-.44,1.038A1.488,1.488,0,0,1,200.165,79.525Zm1.214,1.161v9.745h-2.463V80.686Z" transform="translate(-32.579 -43.156)"/><path d="M738,284.8a8.8,8.8,0,0,1,8.8-8.8h83.556v61.568a8.8,8.8,0,0,1-8.8,8.8H738Z" transform="translate(-413.67 -154.844)" fill="#2773e4"/><path d="M61.336,362.014v6.794a2.435,2.435,0,0,1-.7,1.821,2.563,2.563,0,0,1-4.406-1.913h1.2a1.786,1.786,0,0,0,.343,1.1,1.45,1.45,0,0,0,2.019.026,1.587,1.587,0,0,0,.33-1.029v-6.794Zm3.566-.567v9.763H63.7v-9.763Zm2.429,9.842a.818.818,0,1,1,0-1.636.732.732,0,0,1,.554.237.828.828,0,0,1,0,1.161A.732.732,0,0,1,67.33,371.289Zm10.747-.079-2.19-3.76H74.436v3.76h-1.2v-9.2H76.2a3.9,3.9,0,0,1,1.755.356,2.474,2.474,0,0,1,1.082.963,2.837,2.837,0,0,1-.2,3.061,2.647,2.647,0,0,1-1.636.963l2.309,3.852Zm-3.641-4.723H76.2a2.023,2.023,0,0,0,1.464-.475,1.748,1.748,0,0,0,.488-1.293,1.634,1.634,0,0,0-.488-1.267A2.07,2.07,0,0,0,76.2,363H74.436Zm9.742,4.815a4.051,4.051,0,0,1-1.636-.317,2.794,2.794,0,0,1-1.121-.9A2.33,2.33,0,0,1,81,368.756h1.28a1.725,1.725,0,0,0,.528,1.1,1.961,1.961,0,0,0,1.372.435,1.99,1.99,0,0,0,1.346-.422,1.4,1.4,0,0,0,.5-1.108,1.25,1.25,0,0,0-.29-.858,1.854,1.854,0,0,0-.726-.5,11.349,11.349,0,0,0-1.174-.369,10.663,10.663,0,0,1-1.464-.475,2.432,2.432,0,0,1-.937-.739,2.246,2.246,0,0,1-.383-1.372,2.366,2.366,0,0,1,.383-1.332,2.5,2.5,0,0,1,1.069-.9,3.831,3.831,0,0,1,1.6-.317,3.3,3.3,0,0,1,2.111.646,2.38,2.38,0,0,1,.937,1.715H85.826a1.4,1.4,0,0,0-.554-.924,1.947,1.947,0,0,0-1.293-.409,1.852,1.852,0,0,0-1.227.4,1.31,1.31,0,0,0-.475,1.082,1.2,1.2,0,0,0,.277.818,1.969,1.969,0,0,0,.7.488q.422.158,1.174.369a10.271,10.271,0,0,1,1.464.5,2.365,2.365,0,0,1,.95.752,2.158,2.158,0,0,1,.4,1.372,2.421,2.421,0,0,1-.356,1.267,2.619,2.619,0,0,1-1.055.963A3.483,3.483,0,0,1,84.177,371.3Zm13.543-9.288v.976h-4v3.1h3.245v.976H93.722v4.143h-1.2v-9.2Zm1,5.554a4.022,4.022,0,0,1,.449-1.939,3.258,3.258,0,0,1,1.227-1.306,3.419,3.419,0,0,1,1.755-.462,3.208,3.208,0,0,1,1.649.409,2.725,2.725,0,0,1,1.042,1.029V363.98h1.214v7.23h-1.214v-1.346a2.863,2.863,0,0,1-1.069,1.055,3.181,3.181,0,0,1-1.636.409,3.277,3.277,0,0,1-1.741-.475,3.331,3.331,0,0,1-1.227-1.332A4.15,4.15,0,0,1,98.722,367.569Zm6.122.013a2.939,2.939,0,0,0-.33-1.425,2.271,2.271,0,0,0-.9-.924,2.354,2.354,0,0,0-1.227-.33,2.429,2.429,0,0,0-1.227.317,2.3,2.3,0,0,0-.884.923,2.939,2.939,0,0,0-.33,1.425,3.046,3.046,0,0,0,.33,1.451,2.391,2.391,0,0,0,.884.937,2.535,2.535,0,0,0,2.454,0,2.361,2.361,0,0,0,.9-.937A3.017,3.017,0,0,0,104.843,367.582Zm4.707-2.612v4.261a1.039,1.039,0,0,0,.224.752,1.129,1.129,0,0,0,.778.211h.884v1.016h-1.082a2.153,2.153,0,0,1-1.5-.462,1.982,1.982,0,0,1-.5-1.517V364.97h-.937v-.989h.937V362.16h1.2v1.821h1.887v.989Zm12.036-1.121a3.115,3.115,0,0,1,1.5.356,2.481,2.481,0,0,1,1.042,1.042,3.5,3.5,0,0,1,.383,1.7v4.261h-1.187v-4.09a2.3,2.3,0,0,0-.541-1.649,1.847,1.847,0,0,0-1.438-.581,1.92,1.92,0,0,0-1.491.607,2.444,2.444,0,0,0-.554,1.728v3.984h-1.187v-4.09a2.3,2.3,0,0,0-.541-1.649,1.847,1.847,0,0,0-1.438-.581,1.92,1.92,0,0,0-1.491.607,2.444,2.444,0,0,0-.554,1.728v3.984h-1.2v-7.23h1.2v1.042a2.383,2.383,0,0,1,.95-.871,2.937,2.937,0,0,1,1.333-.3,3.129,3.129,0,0,1,1.61.409,2.5,2.5,0,0,1,1.042,1.2,2.371,2.371,0,0,1,1-1.187A2.954,2.954,0,0,1,121.586,363.848Zm4.45,3.72a4.022,4.022,0,0,1,.449-1.939,3.258,3.258,0,0,1,1.227-1.306,3.419,3.419,0,0,1,1.755-.462,3.208,3.208,0,0,1,1.649.409,2.725,2.725,0,0,1,1.042,1.029V363.98h1.214v7.23h-1.214v-1.346a2.863,2.863,0,0,1-1.069,1.055,3.181,3.181,0,0,1-1.636.409,3.277,3.277,0,0,1-1.741-.475,3.331,3.331,0,0,1-1.227-1.332A4.15,4.15,0,0,1,126.035,367.569Zm6.122.013a2.939,2.939,0,0,0-.33-1.425,2.271,2.271,0,0,0-.9-.924,2.354,2.354,0,0,0-1.227-.33,2.429,2.429,0,0,0-1.227.317,2.3,2.3,0,0,0-.884.923,2.939,2.939,0,0,0-.33,1.425,3.046,3.046,0,0,0,.33,1.451,2.391,2.391,0,0,0,.884.937,2.535,2.535,0,0,0,2.454,0,2.361,2.361,0,0,0,.9-.937A3.017,3.017,0,0,0,132.157,367.582Zm12.873-3.6-2.256,7.23h-1.24l-1.741-5.739-1.741,5.739h-1.24l-2.269-7.23h1.227l1.662,6.069,1.794-6.069h1.227l1.755,6.082,1.636-6.082Zm.743,3.589a4.022,4.022,0,0,1,.449-1.939,3.259,3.259,0,0,1,1.227-1.306,3.419,3.419,0,0,1,1.755-.462,3.208,3.208,0,0,1,1.649.409A2.725,2.725,0,0,1,151.9,365.3V363.98h1.214v7.23H151.9v-1.346a2.863,2.863,0,0,1-1.069,1.055,3.181,3.181,0,0,1-1.636.409,3.277,3.277,0,0,1-1.741-.475,3.331,3.331,0,0,1-1.227-1.332A4.15,4.15,0,0,1,145.774,367.569Zm6.122.013a2.939,2.939,0,0,0-.33-1.425,2.271,2.271,0,0,0-.9-.924,2.354,2.354,0,0,0-1.227-.33,2.429,2.429,0,0,0-1.227.317,2.3,2.3,0,0,0-.884.923,2.939,2.939,0,0,0-.33,1.425,3.046,3.046,0,0,0,.33,1.451,2.391,2.391,0,0,0,.884.937,2.535,2.535,0,0,0,2.454,0,2.361,2.361,0,0,0,.9-.937A3.017,3.017,0,0,0,151.9,367.582Zm4.707-2.612v4.261a1.039,1.039,0,0,0,.224.752,1.13,1.13,0,0,0,.778.211h.884v1.016h-1.082a2.153,2.153,0,0,1-1.5-.462,1.982,1.982,0,0,1-.5-1.517V364.97h-.937v-.989h.937V362.16h1.2v1.821h1.887v.989Zm3.961-2.164a.818.818,0,1,1,0-1.636.732.732,0,0,1,.554.237.828.828,0,0,1,0,1.161A.732.732,0,0,1,160.563,362.806Zm.58,1.174v7.23h-1.2v-7.23Zm5.115,2.625a4.8,4.8,0,0,1,.607-2.414,4.411,4.411,0,0,1,1.649-1.689,4.6,4.6,0,0,1,2.335-.607,4.725,4.725,0,0,1,2.625.726,4.159,4.159,0,0,1,1.636,2.058h-1.438a2.874,2.874,0,0,0-1.108-1.28,3.154,3.154,0,0,0-1.715-.449,3.353,3.353,0,0,0-1.728.449,3.127,3.127,0,0,0-1.2,1.28,4.043,4.043,0,0,0-.435,1.926,4.092,4.092,0,0,0,.435,1.926,3.147,3.147,0,0,0,1.2,1.267,3.353,3.353,0,0,0,1.728.449,3.227,3.227,0,0,0,1.715-.435,2.873,2.873,0,0,0,1.108-1.28h1.438a4.164,4.164,0,0,1-1.636,2.045,4.791,4.791,0,0,1-2.625.712,4.681,4.681,0,0,1-2.335-.594,4.437,4.437,0,0,1-1.649-1.676A4.8,4.8,0,0,1,166.259,366.606Zm11.26-3.8a.818.818,0,1,1,0-1.636.732.732,0,0,1,.554.237.828.828,0,0,1,0,1.161A.732.732,0,0,1,177.519,362.806Zm.581,1.174v7.23h-1.2v-7.23Zm3.246-2.533v9.763h-1.2v-9.763Zm1.6,6.122a4.022,4.022,0,0,1,.449-1.939,3.259,3.259,0,0,1,1.227-1.306,3.419,3.419,0,0,1,1.755-.462,3.208,3.208,0,0,1,1.649.409,2.725,2.725,0,0,1,1.042,1.029V363.98h1.214v7.23h-1.214v-1.346A2.863,2.863,0,0,1,188,370.92a3.181,3.181,0,0,1-1.636.409,3.277,3.277,0,0,1-1.741-.475,3.331,3.331,0,0,1-1.227-1.332A4.15,4.15,0,0,1,182.943,367.569Zm6.122.013a2.939,2.939,0,0,0-.33-1.425,2.271,2.271,0,0,0-.9-.924,2.354,2.354,0,0,0-1.227-.33,2.429,2.429,0,0,0-1.227.317,2.3,2.3,0,0,0-.884.923,2.939,2.939,0,0,0-.33,1.425,3.046,3.046,0,0,0,.33,1.451,2.391,2.391,0,0,0,.884.937,2.535,2.535,0,0,0,2.454,0,2.361,2.361,0,0,0,.9-.937A3.017,3.017,0,0,0,189.065,367.582Zm6.765-3.734a2.917,2.917,0,0,1,2.137.8,3.05,3.05,0,0,1,.818,2.3v4.261H197.6v-4.09a2.3,2.3,0,0,0-.541-1.649,1.921,1.921,0,0,0-1.478-.581,2,2,0,0,0-1.517.594,2.444,2.444,0,0,0-.554,1.728v4h-1.2v-7.23h1.2v1.029a2.393,2.393,0,0,1,.963-.858A3.049,3.049,0,0,1,195.83,363.848Zm4.468,3.72a4.022,4.022,0,0,1,.449-1.939,3.258,3.258,0,0,1,1.227-1.306,3.444,3.444,0,0,1,1.768-.462,3.226,3.226,0,0,1,1.57.4,2.763,2.763,0,0,1,1.108,1.016v-3.826h1.214v9.763h-1.214v-1.359a2.856,2.856,0,0,1-1.055,1.069,3.181,3.181,0,0,1-1.636.409,3.27,3.27,0,0,1-2.982-1.807A4.15,4.15,0,0,1,200.3,367.569Zm6.122.013a2.939,2.939,0,0,0-.33-1.425,2.271,2.271,0,0,0-.9-.924,2.354,2.354,0,0,0-1.227-.33,2.429,2.429,0,0,0-1.227.317,2.3,2.3,0,0,0-.884.923,2.939,2.939,0,0,0-.33,1.425,3.046,3.046,0,0,0,.33,1.451,2.391,2.391,0,0,0,.884.937,2.535,2.535,0,0,0,2.454,0,2.361,2.361,0,0,0,.9-.937A3.017,3.017,0,0,0,206.419,367.582Zm2.794-.013a4.022,4.022,0,0,1,.449-1.939,3.259,3.259,0,0,1,1.227-1.306,3.419,3.419,0,0,1,1.755-.462,3.208,3.208,0,0,1,1.649.409,2.725,2.725,0,0,1,1.042,1.029V363.98h1.214v7.23h-1.214v-1.346a2.863,2.863,0,0,1-1.069,1.055,3.181,3.181,0,0,1-1.636.409,3.277,3.277,0,0,1-1.742-.475,3.331,3.331,0,0,1-1.227-1.332A4.15,4.15,0,0,1,209.214,367.569Zm6.122.013a2.939,2.939,0,0,0-.33-1.425,2.271,2.271,0,0,0-.9-.924,2.354,2.354,0,0,0-1.227-.33,2.429,2.429,0,0,0-1.227.317,2.3,2.3,0,0,0-.884.923,2.939,2.939,0,0,0-.33,1.425,3.046,3.046,0,0,0,.33,1.451,2.391,2.391,0,0,0,.884.937,2.535,2.535,0,0,0,2.454,0,2.361,2.361,0,0,0,.9-.937A3.017,3.017,0,0,0,215.335,367.582Zm7.279,3.628-2.837-3.193v3.193h-1.2v-9.763h1.2v5.739l2.784-3.206h1.676l-3.4,3.6,3.417,3.628Zm3.993-1.662L225.13,373.1h-.8l.963-3.549Zm6.006-7.533v6.794a2.435,2.435,0,0,1-.7,1.821,2.563,2.563,0,0,1-4.406-1.913h1.2a1.786,1.786,0,0,0,.343,1.1,1.45,1.45,0,0,0,2.019.026,1.587,1.587,0,0,0,.33-1.029v-6.794Zm1.917,5.554a4.022,4.022,0,0,1,.449-1.939,3.258,3.258,0,0,1,1.227-1.306,3.419,3.419,0,0,1,1.755-.462,3.208,3.208,0,0,1,1.649.409,2.725,2.725,0,0,1,1.042,1.029V363.98h1.214v7.23h-1.214v-1.346a2.863,2.863,0,0,1-1.069,1.055,3.181,3.181,0,0,1-1.636.409,3.277,3.277,0,0,1-1.741-.475,3.331,3.331,0,0,1-1.227-1.332A4.15,4.15,0,0,1,234.53,367.569Zm6.122.013a2.939,2.939,0,0,0-.33-1.425,2.271,2.271,0,0,0-.9-.924,2.354,2.354,0,0,0-1.227-.33,2.429,2.429,0,0,0-1.227.317,2.3,2.3,0,0,0-.884.923,2.939,2.939,0,0,0-.33,1.425,3.046,3.046,0,0,0,.33,1.451,2.391,2.391,0,0,0,.884.937,2.535,2.535,0,0,0,2.454,0,2.361,2.361,0,0,0,.9-.937A3.017,3.017,0,0,0,240.652,367.582Zm7.279,3.628-2.837-3.193v3.193h-1.2v-9.763h1.2v5.739l2.784-3.206h1.676l-3.4,3.6,3.417,3.628Zm5.312.119a3.818,3.818,0,0,1-1.491-.277,2.59,2.59,0,0,1-1.042-.792,2.139,2.139,0,0,1-.422-1.174h1.24a1.224,1.224,0,0,0,.5.884,1.962,1.962,0,0,0,1.2.343,1.737,1.737,0,0,0,1.082-.3.927.927,0,0,0,.4-.765.741.741,0,0,0-.422-.7,5.648,5.648,0,0,0-1.306-.462,10.751,10.751,0,0,1-1.319-.422,2.505,2.505,0,0,1-.871-.646,1.734,1.734,0,0,1-.356-1.135,1.709,1.709,0,0,1,.33-1.016,2.19,2.19,0,0,1,.937-.726,3.3,3.3,0,0,1,1.385-.277,2.958,2.958,0,0,1,1.939.607,2.187,2.187,0,0,1,.792,1.662h-1.2a1.232,1.232,0,0,0-.462-.91,1.67,1.67,0,0,0-1.108-.343,1.719,1.719,0,0,0-1.029.277.856.856,0,0,0-.383.726.831.831,0,0,0,.224.594,1.931,1.931,0,0,0,.581.369q.356.132.976.3a9.617,9.617,0,0,1,1.267.422,2.1,2.1,0,0,1,.831.607,1.62,1.62,0,0,1,.369,1.069,1.83,1.83,0,0,1-.33,1.069,2.239,2.239,0,0,1-.937.752A3.349,3.349,0,0,1,253.244,371.329Zm10.93-4.011a7.07,7.07,0,0,1-.04.726h-5.779a2.251,2.251,0,0,0,2.348,2.269,2.219,2.219,0,0,0,1.293-.356,1.943,1.943,0,0,0,.739-.976h1.293a3.139,3.139,0,0,1-1.161,1.7,3.529,3.529,0,0,1-2.164.646,3.691,3.691,0,0,1-1.847-.462,3.293,3.293,0,0,1-1.267-1.306,4.5,4.5,0,0,1-.013-3.945,3.118,3.118,0,0,1,1.253-1.293,3.745,3.745,0,0,1,1.873-.462,3.628,3.628,0,0,1,1.821.449,3.051,3.051,0,0,1,1.214,1.24A3.559,3.559,0,0,1,264.174,367.318Zm-1.24-.251a2.18,2.18,0,0,0-.3-1.174,1.909,1.909,0,0,0-.831-.752,2.478,2.478,0,0,0-1.148-.264,2.249,2.249,0,0,0-1.557.581,2.379,2.379,0,0,0-.726,1.61Zm4.025-5.62v9.763h-1.2v-9.763Z" transform="translate(-31.721 -202.559)" fill="#7d7d7d"/><path d="M78.55,301.75a5.878,5.878,0,0,1,.616-2.946,2.7,2.7,0,0,1,4.3,0,5.878,5.878,0,0,1,.616,2.946,6.024,6.024,0,0,1-.616,2.99,2.7,2.7,0,0,1-4.3,0A6.024,6.024,0,0,1,78.55,301.75Zm4.541,0a8.4,8.4,0,0,0-.132-1.616,2.013,2.013,0,0,0-.517-1.077,1.47,1.47,0,0,0-1.121-.407,1.523,1.523,0,0,0-1.143.407,2.124,2.124,0,0,0-.517,1.077,9.147,9.147,0,0,0-.121,1.616,9.573,9.573,0,0,0,.121,1.66,2.124,2.124,0,0,0,.517,1.077,1.523,1.523,0,0,0,1.143.407,1.47,1.47,0,0,0,1.121-.407,2.013,2.013,0,0,0,.517-1.077A8.793,8.793,0,0,0,83.091,301.75ZM85.333,305q1.4-1.121,2.188-1.836a8.953,8.953,0,0,0,1.33-1.506,2.718,2.718,0,0,0,.55-1.55,1.657,1.657,0,0,0-.352-1.121,1.353,1.353,0,0,0-1.11-.418,1.473,1.473,0,0,0-1.165.473,1.943,1.943,0,0,0-.44,1.242h-.967a2.641,2.641,0,0,1,.748-1.9,2.521,2.521,0,0,1,1.814-.671,2.5,2.5,0,0,1,1.792.627,2.246,2.246,0,0,1,.671,1.726,3.29,3.29,0,0,1-.55,1.781,7.837,7.837,0,0,1-1.231,1.517q-.693.648-1.77,1.517h3.782v.836H85.333Zm6.181-6.234v-.913H93.58v7.949H92.569V298.77Zm8.678-.132-3.056,7.168H96.124l3.1-7.069H94.98v-.858h5.211Zm6.177.088H102.51v2.507a1.786,1.786,0,0,1,.748-.572,2.491,2.491,0,0,1,1.066-.231,2.609,2.609,0,0,1,1.484.385,2.065,2.065,0,0,1,.814.978,3.187,3.187,0,0,1,.253,1.264,3.274,3.274,0,0,1-.3,1.418,2.242,2.242,0,0,1-.913.989,2.882,2.882,0,0,1-1.506.363,2.829,2.829,0,0,1-1.869-.594,2.477,2.477,0,0,1-.869-1.583h.978a1.643,1.643,0,0,0,.6.979,1.869,1.869,0,0,0,1.165.352,1.622,1.622,0,0,0,1.308-.517,2.092,2.092,0,0,0,.44-1.385,1.838,1.838,0,0,0-.44-1.319,1.685,1.685,0,0,0-1.3-.473,1.836,1.836,0,0,0-1.022.286,1.6,1.6,0,0,0-.627.759h-.946v-4.486h4.782Zm1.836,3.023a5.875,5.875,0,0,1,.616-2.946,2.7,2.7,0,0,1,4.3,0,5.88,5.88,0,0,1,.616,2.946,6.025,6.025,0,0,1-.616,2.99,2.7,2.7,0,0,1-4.3,0A6.02,6.02,0,0,1,108.2,301.75Zm4.541,0a8.4,8.4,0,0,0-.132-1.616,2.015,2.015,0,0,0-.517-1.077,1.471,1.471,0,0,0-1.121-.407,1.522,1.522,0,0,0-1.143.407,2.122,2.122,0,0,0-.517,1.077,9.119,9.119,0,0,0-.121,1.616,9.544,9.544,0,0,0,.121,1.66,2.122,2.122,0,0,0,.517,1.077,1.522,1.522,0,0,0,1.143.407,1.471,1.471,0,0,0,1.121-.407,2.015,2.015,0,0,0,.517-1.077A8.792,8.792,0,0,0,112.745,301.75Zm2.1-2.979v-.913h2.067v7.949H115.9V298.77Zm8.854-.044h-3.859v2.507a1.783,1.783,0,0,1,.748-.572,2.49,2.49,0,0,1,1.066-.231,2.611,2.611,0,0,1,1.484.385,2.07,2.07,0,0,1,.814.978,3.2,3.2,0,0,1,.253,1.264,3.274,3.274,0,0,1-.3,1.418,2.245,2.245,0,0,1-.913.989,2.884,2.884,0,0,1-1.506.363,2.828,2.828,0,0,1-1.869-.594,2.473,2.473,0,0,1-.869-1.583h.978a1.641,1.641,0,0,0,.6.979,1.869,1.869,0,0,0,1.165.352,1.624,1.624,0,0,0,1.308-.517,2.094,2.094,0,0,0,.44-1.385,1.84,1.84,0,0,0-.44-1.319,1.686,1.686,0,0,0-1.3-.473,1.834,1.834,0,0,0-1.022.286,1.6,1.6,0,0,0-.627.759h-.946v-4.486H123.7ZM125.412,305q1.4-1.121,2.188-1.836a8.969,8.969,0,0,0,1.33-1.506,2.721,2.721,0,0,0,.55-1.55,1.659,1.659,0,0,0-.352-1.121,1.353,1.353,0,0,0-1.11-.418,1.473,1.473,0,0,0-1.165.473,1.942,1.942,0,0,0-.44,1.242h-.967a2.641,2.641,0,0,1,.748-1.9,2.521,2.521,0,0,1,1.814-.671,2.5,2.5,0,0,1,1.792.627,2.246,2.246,0,0,1,.671,1.726,3.294,3.294,0,0,1-.55,1.781,7.852,7.852,0,0,1-1.231,1.517q-.693.648-1.77,1.517H130.7v.836h-5.288Zm6.2-.967v-.759l3.859-5.343h1.2v5.233h1.1v.869h-1.1v1.77h-.989v-1.77Zm4.112-5.057-2.957,4.189h2.957Zm9.879-3.529-3.012,12.226H141.6l3-12.226Zm9.149,3.188-3.056,7.168h-1.011l3.1-7.069h-4.244v-.858h5.211Zm5.54,1.11a1.38,1.38,0,0,0-1.506-1.22,1.617,1.617,0,0,0-1.462.759,4.679,4.679,0,0,0-.473,2.474,1.851,1.851,0,0,1,.836-.891,2.67,2.67,0,0,1,1.319-.33,2.374,2.374,0,0,1,1.8.7,2.68,2.68,0,0,1,.682,1.946,2.958,2.958,0,0,1-.3,1.341,2.186,2.186,0,0,1-.88.946,2.7,2.7,0,0,1-1.418.352,2.778,2.778,0,0,1-1.77-.506,2.643,2.643,0,0,1-.891-1.4,8.158,8.158,0,0,1-.253-2.2q0-4.035,2.815-4.035a2.253,2.253,0,0,1,2.419,2.056Zm-1.5,1.638a2.054,2.054,0,0,0-.891.2,1.583,1.583,0,0,0-.682.583,1.682,1.682,0,0,0-.253.946,1.937,1.937,0,0,0,.484,1.363,1.805,1.805,0,0,0,1.385.517,1.607,1.607,0,0,0,1.22-.473,1.8,1.8,0,0,0,.462-1.3,1.922,1.922,0,0,0-.44-1.341A1.631,1.631,0,0,0,158.8,301.387Zm8.474-1.638a1.38,1.38,0,0,0-1.506-1.22,1.617,1.617,0,0,0-1.462.759,4.679,4.679,0,0,0-.473,2.474,1.851,1.851,0,0,1,.836-.891,2.67,2.67,0,0,1,1.319-.33,2.374,2.374,0,0,1,1.8.7,2.68,2.68,0,0,1,.682,1.946,2.958,2.958,0,0,1-.3,1.341,2.186,2.186,0,0,1-.88.946,2.7,2.7,0,0,1-1.418.352,2.778,2.778,0,0,1-1.77-.506,2.643,2.643,0,0,1-.891-1.4,8.158,8.158,0,0,1-.253-2.2q0-4.035,2.815-4.035a2.253,2.253,0,0,1,2.419,2.056Zm-1.5,1.638a2.054,2.054,0,0,0-.891.2,1.583,1.583,0,0,0-.682.583,1.682,1.682,0,0,0-.253.946,1.937,1.937,0,0,0,.484,1.363,1.805,1.805,0,0,0,1.385.517,1.607,1.607,0,0,0,1.22-.473,1.8,1.8,0,0,0,.462-1.3,1.922,1.922,0,0,0-.44-1.341A1.631,1.631,0,0,0,165.778,301.387Zm4.043.363a5.88,5.88,0,0,1,.616-2.946,2.7,2.7,0,0,1,4.3,0,5.88,5.88,0,0,1,.616,2.946,6.025,6.025,0,0,1-.616,2.99,2.7,2.7,0,0,1-4.3,0A6.025,6.025,0,0,1,169.821,301.75Zm4.541,0a8.4,8.4,0,0,0-.132-1.616,2.012,2.012,0,0,0-.517-1.077,1.47,1.47,0,0,0-1.121-.407,1.523,1.523,0,0,0-1.143.407,2.125,2.125,0,0,0-.517,1.077,9.161,9.161,0,0,0-.121,1.616,9.587,9.587,0,0,0,.121,1.66,2.125,2.125,0,0,0,.517,1.077,1.523,1.523,0,0,0,1.143.407,1.47,1.47,0,0,0,1.121-.407,2.012,2.012,0,0,0,.517-1.077A8.79,8.79,0,0,0,174.362,301.75Zm7.431-3.023h-3.859v2.507a1.786,1.786,0,0,1,.748-.572,2.491,2.491,0,0,1,1.066-.231,2.609,2.609,0,0,1,1.484.385,2.065,2.065,0,0,1,.814.978,3.187,3.187,0,0,1,.253,1.264,3.273,3.273,0,0,1-.3,1.418,2.242,2.242,0,0,1-.913.989,2.882,2.882,0,0,1-1.506.363,2.829,2.829,0,0,1-1.869-.594,2.477,2.477,0,0,1-.869-1.583h.979a1.643,1.643,0,0,0,.6.979,1.869,1.869,0,0,0,1.165.352,1.622,1.622,0,0,0,1.308-.517,2.092,2.092,0,0,0,.44-1.385,1.838,1.838,0,0,0-.44-1.319,1.685,1.685,0,0,0-1.3-.473,1.836,1.836,0,0,0-1.022.286,1.6,1.6,0,0,0-.627.759h-.945v-4.486h4.782Zm6.9,0h-3.859v2.507a1.786,1.786,0,0,1,.748-.572,2.491,2.491,0,0,1,1.066-.231,2.609,2.609,0,0,1,1.484.385,2.065,2.065,0,0,1,.814.978,3.187,3.187,0,0,1,.253,1.264,3.274,3.274,0,0,1-.3,1.418,2.242,2.242,0,0,1-.913.989,2.882,2.882,0,0,1-1.506.363,2.829,2.829,0,0,1-1.869-.594,2.477,2.477,0,0,1-.869-1.583h.978a1.643,1.643,0,0,0,.6.979,1.869,1.869,0,0,0,1.165.352,1.622,1.622,0,0,0,1.308-.517,2.092,2.092,0,0,0,.44-1.385,1.838,1.838,0,0,0-.44-1.319,1.685,1.685,0,0,0-1.3-.473,1.836,1.836,0,0,0-1.022.286,1.6,1.6,0,0,0-.627.759h-.945v-4.486H188.7ZM190.411,305q1.4-1.121,2.188-1.836a8.971,8.971,0,0,0,1.33-1.506,2.721,2.721,0,0,0,.55-1.55,1.659,1.659,0,0,0-.352-1.121,1.354,1.354,0,0,0-1.11-.418,1.473,1.473,0,0,0-1.165.473,1.942,1.942,0,0,0-.44,1.242h-.967a2.639,2.639,0,0,1,.748-1.9,2.831,2.831,0,0,1,3.606-.044,2.248,2.248,0,0,1,.671,1.726,3.294,3.294,0,0,1-.55,1.781,7.854,7.854,0,0,1-1.231,1.517q-.693.648-1.77,1.517H195.7v.836h-5.288Z" transform="translate(-44.226 -165.74)"/><rect width="149.961" height="23.308" rx="11.654" transform="translate(20.01 124.235)" fill="rgba(143,255,115,0.3)"/><path d="M812.585,332.165V329.5l7.909-11.32h3.943v11.029h2.128v2.951h-2.128V335.6h-3.386v-3.435Zm8.683-10.352-4.958,7.4h4.958Zm18.676-1.282L833.51,335.6h-3.435l6.482-14.682h-8.272v-2.9h11.658Z" transform="translate(-455.455 -178.382)" fill="#fff"/><path d="M779.61,388.316a1.268,1.268,0,0,1,.607.273,1.533,1.533,0,0,1,.44.545,1.5,1.5,0,0,1,.167.695,1.554,1.554,0,0,1-.237.844,1.649,1.649,0,0,1-.695.589,2.48,2.48,0,0,1-1.064.211H776.54v-6.13h2.2a2.443,2.443,0,0,1,1.064.211,1.48,1.48,0,0,1,.66.554,1.463,1.463,0,0,1,.22.792,1.373,1.373,0,0,1-.3.906A1.638,1.638,0,0,1,779.61,388.316Zm-2.269-.325h1.346a1.3,1.3,0,0,0,.871-.264,1.019,1.019,0,0,0,0-1.46,1.328,1.328,0,0,0-.888-.264H777.34Zm1.416,2.823a1.4,1.4,0,0,0,.932-.281.968.968,0,0,0,.334-.783.982.982,0,0,0-.352-.8,1.405,1.405,0,0,0-.941-.3h-1.39v2.164Zm7.576-1.935a4.715,4.715,0,0,1-.026.484h-3.852a1.5,1.5,0,0,0,1.565,1.513,1.48,1.48,0,0,0,.862-.237,1.3,1.3,0,0,0,.493-.651h.862a2.1,2.1,0,0,1-.774,1.135,2.355,2.355,0,0,1-1.443.431,2.458,2.458,0,0,1-1.231-.308,2.193,2.193,0,0,1-.844-.871,3,3,0,0,1-.009-2.63,2.076,2.076,0,0,1,.836-.862,2.493,2.493,0,0,1,1.249-.308,2.421,2.421,0,0,1,1.214.3,2.035,2.035,0,0,1,.809.827A2.374,2.374,0,0,1,786.332,388.879Zm-.827-.167a1.457,1.457,0,0,0-.2-.783,1.273,1.273,0,0,0-.554-.5,1.65,1.65,0,0,0-.765-.176,1.5,1.5,0,0,0-1.038.387,1.586,1.586,0,0,0-.484,1.073Zm1.584.334a2.683,2.683,0,0,1,.3-1.293,2.172,2.172,0,0,1,.818-.871,2.294,2.294,0,0,1,1.179-.308,2.151,2.151,0,0,1,1.047.264,1.845,1.845,0,0,1,.739.677v-2.551h.809v6.509h-.809v-.906a1.906,1.906,0,0,1-.7.712,2.122,2.122,0,0,1-1.091.273,2.18,2.18,0,0,1-1.988-1.2A2.768,2.768,0,0,1,787.089,389.046Zm4.081.009a1.96,1.96,0,0,0-.22-.95,1.514,1.514,0,0,0-.6-.616,1.57,1.57,0,0,0-.818-.22,1.619,1.619,0,0,0-.818.211,1.531,1.531,0,0,0-.589.616,1.96,1.96,0,0,0-.22.95,2.033,2.033,0,0,0,.22.967,1.593,1.593,0,0,0,.589.624,1.69,1.69,0,0,0,1.636,0,1.574,1.574,0,0,0,.6-.624A2.013,2.013,0,0,0,791.17,389.055Zm8.13,1.055h-2.674l-.492,1.363h-.844l2.216-6.1h.924l2.208,6.1h-.844Zm-.229-.651-1.108-3.1-1.108,3.1Zm4.326,1.275,1.5-4.081h.853l-1.891,4.82h-.932l-1.891-4.82h.862Zm2.837-1.689a2.683,2.683,0,0,1,.3-1.293,2.172,2.172,0,0,1,.818-.871,2.278,2.278,0,0,1,1.17-.308,2.14,2.14,0,0,1,1.1.273,1.815,1.815,0,0,1,.695.686v-.88h.809v4.82h-.809v-.9a1.91,1.91,0,0,1-.712.7,2.122,2.122,0,0,1-1.091.273,2.186,2.186,0,0,1-1.161-.317,2.217,2.217,0,0,1-.818-.888A2.768,2.768,0,0,1,806.234,389.046Zm4.081.009a1.96,1.96,0,0,0-.22-.95,1.514,1.514,0,0,0-.6-.616,1.57,1.57,0,0,0-.818-.22,1.619,1.619,0,0,0-.818.211,1.53,1.53,0,0,0-.589.616,1.96,1.96,0,0,0-.22.95,2.032,2.032,0,0,0,.22.967,1.593,1.593,0,0,0,.589.624,1.69,1.69,0,0,0,1.636,0,1.573,1.573,0,0,0,.6-.624A2.012,2.012,0,0,0,810.316,389.055Zm2.575-3.184a.545.545,0,1,1,0-1.091.488.488,0,0,1,.369.158.552.552,0,0,1,0,.774A.488.488,0,0,1,812.891,385.871Zm.387.783v4.82h-.8v-4.82Zm2.165-1.689v6.509h-.8v-6.509Zm1.065,4.081a2.677,2.677,0,0,1,.3-1.293,2.172,2.172,0,0,1,.818-.871,2.276,2.276,0,0,1,1.17-.308,2.14,2.14,0,0,1,1.1.273,1.818,1.818,0,0,1,.695.686v-.88h.809v4.82h-.809v-.9a1.91,1.91,0,0,1-.712.7,2.123,2.123,0,0,1-1.091.273,2.183,2.183,0,0,1-1.161-.317,2.217,2.217,0,0,1-.818-.888A2.762,2.762,0,0,1,816.508,389.046Zm4.081.009a1.96,1.96,0,0,0-.22-.95,1.517,1.517,0,0,0-.6-.616,1.57,1.57,0,0,0-.818-.22,1.619,1.619,0,0,0-.818.211,1.53,1.53,0,0,0-.589.616,1.955,1.955,0,0,0-.22.95,2.027,2.027,0,0,0,.22.967,1.593,1.593,0,0,0,.589.624,1.69,1.69,0,0,0,1.636,0,1.577,1.577,0,0,0,.6-.624A2.012,2.012,0,0,0,820.589,389.055Zm2.962-1.5a1.892,1.892,0,0,1,.721-.7,2.135,2.135,0,0,1,1.082-.273,2.247,2.247,0,0,1,1.17.308,2.172,2.172,0,0,1,.818.871,2.683,2.683,0,0,1,.3,1.293,2.768,2.768,0,0,1-.3,1.3,2.206,2.206,0,0,1-1.988,1.2,2.17,2.17,0,0,1-1.1-.273,1.861,1.861,0,0,1-.7-.695v.888h-.8v-6.509h.8Zm3.272,1.5a1.96,1.96,0,0,0-.22-.95,1.514,1.514,0,0,0-.6-.616,1.619,1.619,0,0,0-.818-.211,1.6,1.6,0,0,0-.818.22,1.576,1.576,0,0,0-.6.624,1.942,1.942,0,0,0-.22.941,2.013,2.013,0,0,0,.22.959,1.562,1.562,0,0,0,1.416.836,1.619,1.619,0,0,0,.818-.211,1.574,1.574,0,0,0,.6-.624A2.033,2.033,0,0,0,826.822,389.046Zm2.672-4.081v6.509h-.8v-6.509Zm5.762,3.914a4.715,4.715,0,0,1-.026.484h-3.852a1.5,1.5,0,0,0,1.566,1.513,1.48,1.48,0,0,0,.862-.237,1.3,1.3,0,0,0,.492-.651h.862a2.1,2.1,0,0,1-.774,1.135,2.355,2.355,0,0,1-1.442.431,2.459,2.459,0,0,1-1.231-.308,2.193,2.193,0,0,1-.844-.871,3,3,0,0,1-.009-2.63,2.076,2.076,0,0,1,.836-.862,2.493,2.493,0,0,1,1.249-.308,2.421,2.421,0,0,1,1.214.3,2.035,2.035,0,0,1,.809.827A2.374,2.374,0,0,1,835.256,388.879Zm-.827-.167a1.457,1.457,0,0,0-.2-.783,1.273,1.273,0,0,0-.554-.5,1.65,1.65,0,0,0-.765-.176,1.5,1.5,0,0,0-1.038.387,1.586,1.586,0,0,0-.484,1.073Z" transform="translate(-435.262 -215.786)" fill="#fff"/></g></svg>