<svg xmlns="http://www.w3.org/2000/svg" width="417.461" height="192.299" viewBox="0 0 417.461 192.299"><g transform="translate(0.5 0.5)"><path d="M9.075.5h399.31a8.575,8.575,0,0,1,8.575,8.575V183.224a8.575,8.575,0,0,1-8.575,8.576H9.075A8.575,8.575,0,0,1,.5,183.224V9.075A8.575,8.575,0,0,1,9.075.5Z" transform="translate(-0.5 -0.5)" fill="#fff" stroke="#d6d6d6" stroke-width="1"/><path d="M64.093,90.431l-2.709-4.785H60.223v4.785H57.76V78.153h4.609a5.3,5.3,0,0,1,2.428.51,3.376,3.376,0,0,1,1.5,1.354,3.6,3.6,0,0,1,.51,1.9,3.694,3.694,0,0,1-.7,2.2A3.632,3.632,0,0,1,64,85.453l2.938,4.978ZM60.223,83.8h2.058a2.081,2.081,0,0,0,1.5-.475,1.83,1.83,0,0,0,.493-1.354,1.689,1.689,0,0,0-.493-1.3,2.081,2.081,0,0,0-1.5-.475H60.223Zm13.046,6.755a5.894,5.894,0,0,1-2.322-.44,3.809,3.809,0,0,1-1.618-1.267,3.334,3.334,0,0,1-.616-1.953h2.639a1.724,1.724,0,0,0,.528,1.2,1.934,1.934,0,0,0,1.337.44,2.074,2.074,0,0,0,1.354-.4,1.37,1.37,0,0,0,.493-1.091,1.25,1.25,0,0,0-.334-.9,2.238,2.238,0,0,0-.844-.545,11.561,11.561,0,0,0-1.372-.457,16.421,16.421,0,0,1-1.953-.686,3.619,3.619,0,0,1-1.284-1.038,3.032,3.032,0,0,1-.528-1.865,3.318,3.318,0,0,1,.545-1.9,3.412,3.412,0,0,1,1.53-1.231,5.471,5.471,0,0,1,2.252-.44,4.816,4.816,0,0,1,3.078.932,3.386,3.386,0,0,1,1.319,2.568H74.764a1.37,1.37,0,0,0-.545-1.038,1.958,1.958,0,0,0-1.319-.422,1.745,1.745,0,0,0-1.161.369,1.349,1.349,0,0,0-.422,1.073,1.156,1.156,0,0,0,.317.827,2.842,2.842,0,0,0,.809.528q.493.193,1.372.457a14.322,14.322,0,0,1,1.953.7,3.507,3.507,0,0,1,1.3,1.055,2.931,2.931,0,0,1,.545,1.847,3.476,3.476,0,0,1-.51,1.829,3.658,3.658,0,0,1-1.5,1.354A5.174,5.174,0,0,1,73.268,90.554Zm13.1-12.4v7.6a2.638,2.638,0,0,0,.651,1.917,2.921,2.921,0,0,0,3.676,0,2.636,2.636,0,0,0,.651-1.917v-7.6h2.48v7.582a4.891,4.891,0,0,1-.686,2.656,4.243,4.243,0,0,1-1.812,1.618,6.034,6.034,0,0,1-5.013,0,4.181,4.181,0,0,1-1.759-1.618,5.1,5.1,0,0,1-.651-2.656V78.153Zm21.941,2.392a3.866,3.866,0,0,1,2.885,1.108,4.1,4.1,0,0,1,1.108,3.061v5.717h-2.463V85.048a2.4,2.4,0,0,0-.58-1.741,2.071,2.071,0,0,0-1.583-.616,2.129,2.129,0,0,0-1.6.616,2.4,2.4,0,0,0-.58,1.741v5.383h-2.463V85.048a2.4,2.4,0,0,0-.58-1.741,2.071,2.071,0,0,0-1.583-.616,2.152,2.152,0,0,0-1.618.616,2.4,2.4,0,0,0-.58,1.741v5.383H96.205V80.686h2.463v1.179a3.294,3.294,0,0,1,1.214-.967,3.873,3.873,0,0,1,1.654-.352,4.17,4.17,0,0,1,2.041.493,3.335,3.335,0,0,1,1.39,1.372,3.543,3.543,0,0,1,1.372-1.354A3.98,3.98,0,0,1,108.308,80.545Zm15.53.141v9.745h-2.48V89.2a3.313,3.313,0,0,1-1.249,1,3.875,3.875,0,0,1-1.654.352,4.191,4.191,0,0,1-2.023-.475,3.538,3.538,0,0,1-1.39-1.425,4.83,4.83,0,0,1-.493-2.252V80.686h2.463v5.365a2.56,2.56,0,0,0,.58,1.794,2.072,2.072,0,0,0,1.583.616,2.094,2.094,0,0,0,1.6-.616,2.56,2.56,0,0,0,.58-1.794V80.686Zm14.532-.141a3.866,3.866,0,0,1,2.885,1.108,4.1,4.1,0,0,1,1.108,3.061v5.717H139.9V85.048a2.4,2.4,0,0,0-.581-1.741,2.071,2.071,0,0,0-1.583-.616,2.129,2.129,0,0,0-1.6.616,2.4,2.4,0,0,0-.58,1.741v5.383h-2.463V85.048a2.4,2.4,0,0,0-.581-1.741,2.071,2.071,0,0,0-1.583-.616,2.153,2.153,0,0,0-1.618.616,2.4,2.4,0,0,0-.58,1.741v5.383h-2.463V80.686h2.463v1.179a3.294,3.294,0,0,1,1.214-.967,3.873,3.873,0,0,1,1.654-.352,4.169,4.169,0,0,1,2.041.493,3.333,3.333,0,0,1,1.39,1.372,3.544,3.544,0,0,1,1.372-1.354A3.98,3.98,0,0,1,138.37,80.545Zm18.051,7.546h-4.89l-.809,2.34h-2.586l4.415-12.3h2.867l4.415,12.3h-2.6Zm-.668-1.97-1.777-5.136L152.2,86.121Zm11.131-5.576a3.74,3.74,0,0,1,2.815,1.108,4.177,4.177,0,0,1,1.073,3.061v5.717h-2.463V85.048a2.494,2.494,0,0,0-.58-1.777,2.041,2.041,0,0,0-1.583-.633,2.12,2.12,0,0,0-1.618.633,2.494,2.494,0,0,0-.581,1.777v5.383h-2.463V80.686h2.463V81.9a3.342,3.342,0,0,1,1.249-.985A3.872,3.872,0,0,1,166.884,80.545Zm5.6,4.978a5.711,5.711,0,0,1,.581-2.621,4.355,4.355,0,0,1,1.618-1.759,4.306,4.306,0,0,1,2.269-.616,4.068,4.068,0,0,1,1.812.422,3.553,3.553,0,0,1,1.372,1.091V77.414h2.5V90.431h-2.5V88.989a3.343,3.343,0,0,1-1.284,1.161,4.022,4.022,0,0,1-1.917.44,4.185,4.185,0,0,1-2.252-.633,4.483,4.483,0,0,1-1.618-1.777A5.861,5.861,0,0,1,172.48,85.523Zm7.67.035a3.109,3.109,0,0,0-.352-1.53,2.411,2.411,0,0,0-.95-.985,2.543,2.543,0,0,0-2.551-.018,2.563,2.563,0,0,0-.95.985A3.066,3.066,0,0,0,175,85.523a3.272,3.272,0,0,0,.352,1.548,2.7,2.7,0,0,0,.95,1,2.459,2.459,0,0,0,1.267.352,2.589,2.589,0,0,0,1.284-.334,2.562,2.562,0,0,0,.95-.985A3.212,3.212,0,0,0,180.15,85.559Zm10.374-5.013a3.9,3.9,0,0,1,1.97.493,3.217,3.217,0,0,1,1.337,1.425,4.763,4.763,0,0,1,.493,2.252v5.717H191.86V85.048a2.494,2.494,0,0,0-.58-1.777,2.041,2.041,0,0,0-1.583-.633,2.12,2.12,0,0,0-1.618.633,2.494,2.494,0,0,0-.581,1.777v5.383h-2.463V77.414H187.5V81.9a3.141,3.141,0,0,1,1.267-.985A4.109,4.109,0,0,1,190.524,80.545Zm7.39-1.02a1.551,1.551,0,0,1-1.091-.4,1.411,1.411,0,0,1-.422-1.038,1.353,1.353,0,0,1,.422-1.02,1.514,1.514,0,0,1,1.091-.422,1.453,1.453,0,0,1,1.073.422,1.327,1.327,0,0,1,.44,1.02,1.382,1.382,0,0,1-.44,1.038A1.488,1.488,0,0,1,197.914,79.525Zm1.214,1.161v9.745h-2.463V80.686Zm8.2,9.745-3.307-4.151v4.151h-2.463V77.414h2.463V84.82l3.272-4.134h3.2l-4.292,4.89,4.327,4.855Zm3.87-4.908a5.711,5.711,0,0,1,.581-2.621,4.4,4.4,0,0,1,1.6-1.759,4.306,4.306,0,0,1,2.269-.616,3.92,3.92,0,0,1,1.9.44,3.853,3.853,0,0,1,1.319,1.108v-1.39h2.48v9.745h-2.48V89.006a3.72,3.72,0,0,1-1.319,1.143,4.022,4.022,0,0,1-1.917.44,4.185,4.185,0,0,1-2.252-.633,4.531,4.531,0,0,1-1.6-1.777A5.861,5.861,0,0,1,211.2,85.523Zm7.67.035a3.109,3.109,0,0,0-.352-1.53,2.41,2.41,0,0,0-.95-.985,2.543,2.543,0,0,0-2.551-.018,2.563,2.563,0,0,0-.95.985,3.066,3.066,0,0,0-.352,1.513,3.272,3.272,0,0,0,.352,1.548,2.7,2.7,0,0,0,.95,1,2.459,2.459,0,0,0,1.267.352,2.589,2.589,0,0,0,1.284-.334,2.562,2.562,0,0,0,.95-.985A3.212,3.212,0,0,0,218.87,85.559Z" transform="translate(-32.579 -43.156)"/><path d="M738,284.8a8.8,8.8,0,0,1,8.8-8.8h83.556v61.568a8.8,8.8,0,0,1-8.8,8.8H738Z" transform="translate(-413.67 -154.844)" fill="#2773e4"/><path d="M61.336,268.972v6.794a2.435,2.435,0,0,1-.7,1.821,2.563,2.563,0,0,1-4.406-1.913h1.2a1.786,1.786,0,0,0,.343,1.1,1.45,1.45,0,0,0,2.019.026,1.587,1.587,0,0,0,.33-1.029v-6.794ZM64.9,268.4v9.763H63.7V268.4Zm2.429,9.842a.818.818,0,1,1,0-1.636.732.732,0,0,1,.554.237.828.828,0,0,1,0,1.161A.732.732,0,0,1,67.33,278.247Zm17.462-9.275-2.665,9.2H80.781l-2.137-7.4-2.216,7.4-1.333.013-2.573-9.209H73.8l2.005,7.8,2.216-7.8H79.37l2.111,7.771,2.019-7.771Zm.865,5.554a4.022,4.022,0,0,1,.449-1.939,3.258,3.258,0,0,1,1.227-1.306,3.418,3.418,0,0,1,1.755-.462,3.208,3.208,0,0,1,1.649.409,2.725,2.725,0,0,1,1.042,1.029v-1.319h1.214v7.23H91.779v-1.346a2.863,2.863,0,0,1-1.069,1.055,3.181,3.181,0,0,1-1.636.409,3.277,3.277,0,0,1-1.741-.475,3.331,3.331,0,0,1-1.227-1.333A4.15,4.15,0,0,1,85.657,274.527Zm6.122.013a2.94,2.94,0,0,0-.33-1.425,2.27,2.27,0,0,0-.9-.923,2.354,2.354,0,0,0-1.227-.33,2.429,2.429,0,0,0-1.227.317,2.3,2.3,0,0,0-.884.924,2.939,2.939,0,0,0-.33,1.425,3.046,3.046,0,0,0,.33,1.451,2.391,2.391,0,0,0,.884.937,2.535,2.535,0,0,0,2.454,0,2.361,2.361,0,0,0,.9-.937A3.017,3.017,0,0,0,91.779,274.54Zm4.443-2.428a2.316,2.316,0,0,1,.9-.963,2.83,2.83,0,0,1,1.438-.343v1.24h-.317q-2.019,0-2.019,2.19v3.932h-1.2v-7.23h1.2Zm10.133-1.174v7.23h-1.2V277.1a2.373,2.373,0,0,1-.963.871,2.966,2.966,0,0,1-1.346.3,3.292,3.292,0,0,1-1.517-.343,2.625,2.625,0,0,1-1.069-1.055,3.5,3.5,0,0,1-.383-1.7v-4.235h1.187v4.077a2.329,2.329,0,0,0,.541,1.649,1.945,1.945,0,0,0,1.478.567,1.974,1.974,0,0,0,1.517-.594,2.444,2.444,0,0,0,.554-1.728v-3.971Zm5.55-.132a2.917,2.917,0,0,1,2.137.8,3.049,3.049,0,0,1,.818,2.3v4.261h-1.187v-4.09a2.3,2.3,0,0,0-.541-1.649,1.921,1.921,0,0,0-1.478-.581,2,2,0,0,0-1.517.594,2.444,2.444,0,0,0-.554,1.728v4h-1.2v-7.23h1.2v1.029a2.393,2.393,0,0,1,.963-.858A3.049,3.049,0,0,1,111.9,270.806Zm7.9.013a3.181,3.181,0,0,1,1.636.409,2.7,2.7,0,0,1,1.055,1.029v-1.319h1.214v7.388a3.572,3.572,0,0,1-.422,1.755,2.987,2.987,0,0,1-1.214,1.214,3.669,3.669,0,0,1-1.821.435,4.007,4.007,0,0,1-2.375-.673,2.629,2.629,0,0,1-1.121-1.834h1.187a1.861,1.861,0,0,0,.818,1.055,2.646,2.646,0,0,0,1.491.409,2.178,2.178,0,0,0,1.61-.62,2.326,2.326,0,0,0,.633-1.742v-1.517a2.889,2.889,0,0,1-1.055,1.055,3.1,3.1,0,0,1-1.636.422,3.27,3.27,0,0,1-2.982-1.807,4.15,4.15,0,0,1-.449-1.953,4.022,4.022,0,0,1,.449-1.939,3.258,3.258,0,0,1,1.227-1.306A3.418,3.418,0,0,1,119.8,270.819Zm2.691,3.72a2.939,2.939,0,0,0-.33-1.425,2.27,2.27,0,0,0-.9-.923,2.354,2.354,0,0,0-1.227-.33,2.429,2.429,0,0,0-1.227.317,2.3,2.3,0,0,0-.884.924,2.939,2.939,0,0,0-.33,1.425,3.046,3.046,0,0,0,.33,1.451,2.391,2.391,0,0,0,.884.937,2.535,2.535,0,0,0,2.454,0,2.361,2.361,0,0,0,.9-.937A3.017,3.017,0,0,0,122.494,274.54Zm9.676,3.72a4.051,4.051,0,0,1-1.636-.317,2.8,2.8,0,0,1-1.121-.9,2.33,2.33,0,0,1-.422-1.332h1.28a1.725,1.725,0,0,0,.528,1.1,1.961,1.961,0,0,0,1.372.435,1.99,1.99,0,0,0,1.346-.422,1.4,1.4,0,0,0,.5-1.108,1.25,1.25,0,0,0-.29-.858,1.855,1.855,0,0,0-.726-.5,11.341,11.341,0,0,0-1.174-.369,10.676,10.676,0,0,1-1.464-.475,2.432,2.432,0,0,1-.937-.739,2.246,2.246,0,0,1-.383-1.372,2.366,2.366,0,0,1,.383-1.333,2.5,2.5,0,0,1,1.069-.9,3.831,3.831,0,0,1,1.6-.317,3.3,3.3,0,0,1,2.111.646,2.38,2.38,0,0,1,.937,1.715h-1.319a1.4,1.4,0,0,0-.554-.924,1.947,1.947,0,0,0-1.293-.409,1.852,1.852,0,0,0-1.227.4,1.31,1.31,0,0,0-.475,1.082,1.2,1.2,0,0,0,.277.818,1.968,1.968,0,0,0,.7.488q.422.158,1.174.369a10.276,10.276,0,0,1,1.464.5,2.365,2.365,0,0,1,.95.752,2.158,2.158,0,0,1,.4,1.372,2.421,2.421,0,0,1-.356,1.267,2.618,2.618,0,0,1-1.055.963A3.483,3.483,0,0,1,132.17,278.26Zm5.447-8.5a.818.818,0,1,1,0-1.636.732.732,0,0,1,.554.237.828.828,0,0,1,0,1.161A.732.732,0,0,1,137.617,269.764Zm.58,1.174v7.23H137v-7.23Zm3.247-2.533v9.763h-1.2V268.4Zm1.6,6.122a4.022,4.022,0,0,1,.449-1.939,3.258,3.258,0,0,1,1.227-1.306,3.418,3.418,0,0,1,1.755-.462,3.208,3.208,0,0,1,1.649.409,2.725,2.725,0,0,1,1.042,1.029v-1.319h1.214v7.23h-1.214v-1.346a2.863,2.863,0,0,1-1.069,1.055,3.182,3.182,0,0,1-1.636.409,3.277,3.277,0,0,1-1.741-.475,3.331,3.331,0,0,1-1.227-1.333A4.15,4.15,0,0,1,143.042,274.527Zm6.122.013a2.939,2.939,0,0,0-.33-1.425,2.27,2.27,0,0,0-.9-.923,2.354,2.354,0,0,0-1.227-.33,2.429,2.429,0,0,0-1.227.317,2.3,2.3,0,0,0-.884.924,2.939,2.939,0,0,0-.33,1.425,3.046,3.046,0,0,0,.33,1.451,2.391,2.391,0,0,0,.884.937,2.535,2.535,0,0,0,2.454,0,2.361,2.361,0,0,0,.9-.937A3.017,3.017,0,0,0,149.164,274.54Zm13.989,3.628h-1.2l-4.829-7.322v7.322h-1.2v-9.209h1.2l4.829,7.309v-7.309h1.2Zm5.2.119a3.738,3.738,0,0,1-1.847-.462,3.356,3.356,0,0,1-1.293-1.306,4.11,4.11,0,0,1-.462-1.979,3.915,3.915,0,0,1,.475-1.953,3.305,3.305,0,0,1,1.319-1.306,3.978,3.978,0,0,1,3.72,0,3.241,3.241,0,0,1,1.306,1.293,4.179,4.179,0,0,1-.013,3.945,3.4,3.4,0,0,1-1.332,1.306A3.84,3.84,0,0,1,168.353,278.287Zm0-1.055a2.535,2.535,0,0,0,1.214-.3,2.266,2.266,0,0,0,.91-.91,2.873,2.873,0,0,0,.356-1.478,2.961,2.961,0,0,0-.343-1.478,2.2,2.2,0,0,0-.9-.9,2.46,2.46,0,0,0-1.2-.3,2.486,2.486,0,0,0-1.214.3,2.145,2.145,0,0,0-.871.9,3.057,3.057,0,0,0-.33,1.478,3.194,3.194,0,0,0,.317,1.491,2.233,2.233,0,0,0,.871.91A2.471,2.471,0,0,0,168.353,277.231Zm5.668,1.016a.818.818,0,1,1,0-1.636.732.732,0,0,1,.554.237.828.828,0,0,1,0,1.161A.732.732,0,0,1,174.021,278.247Zm7.448-5.04a2.449,2.449,0,0,1-1.135-.844,2.255,2.255,0,0,1-.4-1.346,2.356,2.356,0,0,1,.356-1.28,2.4,2.4,0,0,1,1.055-.91,3.924,3.924,0,0,1,1.715-.343,3.837,3.837,0,0,1,1.7.343,2.385,2.385,0,0,1,1.069.91,2.41,2.41,0,0,1-.04,2.625,2.428,2.428,0,0,1-1.121.844,2.47,2.47,0,0,1,1.293.884,2.357,2.357,0,0,1,.488,1.5,2.688,2.688,0,0,1-.422,1.5,2.8,2.8,0,0,1-1.2.989,4.727,4.727,0,0,1-3.536,0,2.829,2.829,0,0,1-1.174-.989,2.688,2.688,0,0,1-.422-1.5,2.457,2.457,0,0,1,.475-1.517A2.4,2.4,0,0,1,181.47,273.207Zm3.575-2.045a1.517,1.517,0,0,0-.528-1.24,2.614,2.614,0,0,0-2.889,0,1.532,1.532,0,0,0-.528,1.253,1.466,1.466,0,0,0,.541,1.187,2.192,2.192,0,0,0,1.425.449,2.16,2.16,0,0,0,1.425-.449A1.489,1.489,0,0,0,185.045,271.162Zm-1.979,2.573a2.6,2.6,0,0,0-1.6.462,1.567,1.567,0,0,0-.62,1.359,1.71,1.71,0,0,0,.594,1.359,2.426,2.426,0,0,0,1.623.515,2.374,2.374,0,0,0,1.61-.515,1.71,1.71,0,0,0,.594-1.359,1.587,1.587,0,0,0-.607-1.346A2.517,2.517,0,0,0,183.066,273.735Zm6.423,2.771-1.478,3.549h-.8l.963-3.549Zm9.734,1.662-2.19-3.76h-1.451v3.76h-1.2v-9.2h2.968a3.9,3.9,0,0,1,1.755.356,2.474,2.474,0,0,1,1.082.963,2.837,2.837,0,0,1-.2,3.061,2.646,2.646,0,0,1-1.636.963l2.309,3.852Zm-3.641-4.723h1.768a2.023,2.023,0,0,0,1.464-.475,1.748,1.748,0,0,0,.488-1.293,1.634,1.634,0,0,0-.488-1.267,2.07,2.07,0,0,0-1.464-.449h-1.768Zm12.486-4.472v.976h-2.507v8.219h-1.2v-8.219h-2.52v-.976Zm1.861,9.275a.818.818,0,1,1,0-1.636.732.732,0,0,1,.554.237.828.828,0,0,1,0,1.161A.732.732,0,0,1,209.929,278.247Zm2.19-4.947a7.054,7.054,0,0,1,.739-3.536,3.239,3.239,0,0,1,5.158,0,7.054,7.054,0,0,1,.739,3.536,7.228,7.228,0,0,1-.739,3.589,3.239,3.239,0,0,1-5.158,0A7.229,7.229,0,0,1,212.118,273.3Zm5.449,0a10.082,10.082,0,0,0-.158-1.939,2.416,2.416,0,0,0-.62-1.293,1.765,1.765,0,0,0-1.346-.488,1.828,1.828,0,0,0-1.372.488,2.549,2.549,0,0,0-.62,1.293,10.976,10.976,0,0,0-.145,1.939,11.485,11.485,0,0,0,.145,1.992,2.549,2.549,0,0,0,.62,1.293,1.828,1.828,0,0,0,1.372.488,1.765,1.765,0,0,0,1.346-.488,2.416,2.416,0,0,0,.62-1.293A10.549,10.549,0,0,0,217.567,273.3Zm8.152-2.4a1.655,1.655,0,0,0-1.807-1.464,1.941,1.941,0,0,0-1.755.91,5.621,5.621,0,0,0-.567,2.968,2.225,2.225,0,0,1,1-1.069,3.2,3.2,0,0,1,1.583-.4,2.848,2.848,0,0,1,2.164.844,3.215,3.215,0,0,1,.818,2.335,3.55,3.55,0,0,1-.356,1.61,2.623,2.623,0,0,1-1.055,1.135,3.235,3.235,0,0,1-1.7.422,3.335,3.335,0,0,1-2.124-.607,3.173,3.173,0,0,1-1.069-1.676,9.8,9.8,0,0,1-.3-2.639q0-4.842,3.377-4.842a2.7,2.7,0,0,1,2.9,2.467Zm-1.794,1.966a2.465,2.465,0,0,0-1.069.237,1.9,1.9,0,0,0-.818.7,2.022,2.022,0,0,0-.3,1.135,2.326,2.326,0,0,0,.581,1.636,2.166,2.166,0,0,0,1.662.62,1.928,1.928,0,0,0,1.464-.567,2.161,2.161,0,0,0,.554-1.557,2.3,2.3,0,0,0-.528-1.61A1.957,1.957,0,0,0,223.925,272.864Zm9.536-7.124-3.615,14.671h-1.187l3.6-14.671Zm6.63,12.428-2.19-3.76H236.45v3.76h-1.2v-9.2h2.968a3.9,3.9,0,0,1,1.755.356,2.474,2.474,0,0,1,1.082.963,2.837,2.837,0,0,1-.2,3.061,2.646,2.646,0,0,1-1.636.963l2.309,3.852Zm-3.641-4.723h1.768a2.023,2.023,0,0,0,1.464-.475,1.748,1.748,0,0,0,.488-1.293,1.634,1.634,0,0,0-.488-1.267,2.07,2.07,0,0,0-1.464-.449H236.45Zm18.383-4.472-2.665,9.2h-1.346l-2.137-7.4-2.216,7.4-1.333.013-2.573-9.209h1.28l2.005,7.8,2.216-7.8h1.346l2.111,7.771,2.019-7.771Zm1.7,9.275a.818.818,0,1,1,0-1.636.732.732,0,0,1,.554.237.828.828,0,0,1,0,1.161A.732.732,0,0,1,256.53,278.247Zm2.189-4.947a7.054,7.054,0,0,1,.739-3.536,3.239,3.239,0,0,1,5.158,0,7.054,7.054,0,0,1,.739,3.536,7.228,7.228,0,0,1-.739,3.589,3.239,3.239,0,0,1-5.158,0A7.229,7.229,0,0,1,258.719,273.3Zm5.449,0a10.082,10.082,0,0,0-.158-1.939,2.416,2.416,0,0,0-.62-1.293,1.765,1.765,0,0,0-1.346-.488,1.828,1.828,0,0,0-1.372.488,2.549,2.549,0,0,0-.62,1.293,10.976,10.976,0,0,0-.145,1.939,11.485,11.485,0,0,0,.145,1.992,2.549,2.549,0,0,0,.62,1.293,1.828,1.828,0,0,0,1.372.488,1.765,1.765,0,0,0,1.346-.488,2.416,2.416,0,0,0,.62-1.293A10.549,10.549,0,0,0,264.168,273.3Zm2.545,2.744v-.91l4.631-6.412h1.438V275H274.1v1.042h-1.319v2.124h-1.187v-2.124Zm4.934-6.069L268.1,275h3.549Zm5.092,6.531-1.478,3.549h-.8l.963-3.549ZM63.671,291.427a2.818,2.818,0,0,0-1.108-1.24,3.146,3.146,0,0,0-1.689-.449,3.424,3.424,0,0,0-1.741.449,3.124,3.124,0,0,0-1.214,1.267,4.363,4.363,0,0,0,0,3.8,3.238,3.238,0,0,0,1.214,1.267,3.506,3.506,0,0,0,1.741.435,3.138,3.138,0,0,0,2.216-.8,3.322,3.322,0,0,0,1.016-2.177H60.439V293h4.947v.924A4.609,4.609,0,0,1,64.674,296a4.409,4.409,0,0,1-3.8,2.032,4.681,4.681,0,0,1-2.335-.594,4.5,4.5,0,0,1-1.676-1.676,5.106,5.106,0,0,1,0-4.829,4.38,4.38,0,0,1,1.676-1.676,4.6,4.6,0,0,1,2.335-.607,4.654,4.654,0,0,1,2.586.726,4.14,4.14,0,0,1,1.649,2.045Zm9.714-.7v7.23h-1.2v-1.069a2.374,2.374,0,0,1-.963.871,2.967,2.967,0,0,1-1.346.3,3.292,3.292,0,0,1-1.517-.343,2.625,2.625,0,0,1-1.069-1.055,3.5,3.5,0,0,1-.383-1.7v-4.235h1.187V294.8a2.329,2.329,0,0,0,.541,1.649,1.945,1.945,0,0,0,1.478.567,1.974,1.974,0,0,0,1.517-.594,2.444,2.444,0,0,0,.554-1.728v-3.971Zm1.579,3.589a4.022,4.022,0,0,1,.449-1.939,3.258,3.258,0,0,1,1.227-1.306,3.444,3.444,0,0,1,1.768-.462,3.226,3.226,0,0,1,1.57.4,2.763,2.763,0,0,1,1.108,1.016v-3.826H82.3v9.763H81.085V296.6a2.856,2.856,0,0,1-1.055,1.069,3.181,3.181,0,0,1-1.636.409,3.27,3.27,0,0,1-2.982-1.807A4.15,4.15,0,0,1,74.964,294.316Zm6.122.013a2.939,2.939,0,0,0-.33-1.425,2.271,2.271,0,0,0-.9-.924,2.354,2.354,0,0,0-1.227-.33,2.429,2.429,0,0,0-1.227.317,2.3,2.3,0,0,0-.884.923,2.939,2.939,0,0,0-.33,1.425,3.046,3.046,0,0,0,.33,1.451,2.391,2.391,0,0,0,.884.937,2.536,2.536,0,0,0,2.454,0,2.361,2.361,0,0,0,.9-.937A3.017,3.017,0,0,0,81.085,294.329Zm2.794-.013a4.022,4.022,0,0,1,.449-1.939,3.258,3.258,0,0,1,1.227-1.306,3.419,3.419,0,0,1,1.755-.462,3.208,3.208,0,0,1,1.649.409A2.725,2.725,0,0,1,90,292.047v-1.319h1.214v7.23H90v-1.346a2.863,2.863,0,0,1-1.069,1.055,3.181,3.181,0,0,1-1.636.409,3.277,3.277,0,0,1-1.741-.475,3.331,3.331,0,0,1-1.227-1.332A4.15,4.15,0,0,1,83.88,294.316Zm6.122.013a2.939,2.939,0,0,0-.33-1.425,2.271,2.271,0,0,0-.9-.924,2.354,2.354,0,0,0-1.227-.33,2.429,2.429,0,0,0-1.227.317,2.3,2.3,0,0,0-.884.923,2.939,2.939,0,0,0-.33,1.425,3.046,3.046,0,0,0,.33,1.451,2.391,2.391,0,0,0,.884.937,2.536,2.536,0,0,0,2.454,0,2.361,2.361,0,0,0,.9-.937A3.017,3.017,0,0,0,90,294.329Zm6.765-3.734a2.917,2.917,0,0,1,2.137.8,3.049,3.049,0,0,1,.818,2.3v4.261H98.534v-4.09a2.3,2.3,0,0,0-.541-1.649,1.921,1.921,0,0,0-1.478-.581,2,2,0,0,0-1.517.594,2.444,2.444,0,0,0-.554,1.728v4h-1.2v-7.23h1.2v1.029a2.393,2.393,0,0,1,.963-.858A3.049,3.049,0,0,1,96.766,290.6Zm7.9.013a3.181,3.181,0,0,1,1.636.409,2.7,2.7,0,0,1,1.055,1.029v-1.319h1.214v7.388a3.572,3.572,0,0,1-.422,1.755,2.987,2.987,0,0,1-1.214,1.214,3.669,3.669,0,0,1-1.821.435,4.007,4.007,0,0,1-2.375-.673,2.629,2.629,0,0,1-1.121-1.834H102.8a1.861,1.861,0,0,0,.818,1.055,2.647,2.647,0,0,0,1.491.409,2.178,2.178,0,0,0,1.61-.62,2.326,2.326,0,0,0,.633-1.742V296.6a2.889,2.889,0,0,1-1.055,1.055,3.1,3.1,0,0,1-1.636.422,3.27,3.27,0,0,1-2.982-1.807,4.15,4.15,0,0,1-.449-1.953,4.022,4.022,0,0,1,.449-1.939,3.258,3.258,0,0,1,1.227-1.306A3.419,3.419,0,0,1,104.664,290.609Zm2.691,3.72a2.939,2.939,0,0,0-.33-1.425,2.271,2.271,0,0,0-.9-.924,2.354,2.354,0,0,0-1.227-.33,2.429,2.429,0,0,0-1.227.317,2.3,2.3,0,0,0-.884.923,2.939,2.939,0,0,0-.33,1.425,3.046,3.046,0,0,0,.33,1.451,2.391,2.391,0,0,0,.884.937,2.536,2.536,0,0,0,2.454,0,2.361,2.361,0,0,0,.9-.937A3.017,3.017,0,0,0,107.355,294.329Zm11.365-1.108a1.9,1.9,0,0,1,.91.409,2.3,2.3,0,0,1,.66.818,2.25,2.25,0,0,1,.251,1.042,2.333,2.333,0,0,1-.356,1.267,2.474,2.474,0,0,1-1.042.884,3.719,3.719,0,0,1-1.6.317h-3.43v-9.2h3.3a3.665,3.665,0,0,1,1.6.317,2.219,2.219,0,0,1,.989.831,2.194,2.194,0,0,1,.33,1.187,2.057,2.057,0,0,1-.449,1.359A2.453,2.453,0,0,1,118.72,293.221Zm-3.4-.488h2.019a1.948,1.948,0,0,0,1.306-.4,1.529,1.529,0,0,0,0-2.19,1.992,1.992,0,0,0-1.333-.4h-1.992Zm2.124,4.235a2.107,2.107,0,0,0,1.4-.422,1.452,1.452,0,0,0,.5-1.174,1.472,1.472,0,0,0-.528-1.2,2.107,2.107,0,0,0-1.412-.449h-2.085v3.246Zm4.318-2.652a4.022,4.022,0,0,1,.449-1.939,3.258,3.258,0,0,1,1.227-1.306,3.419,3.419,0,0,1,1.755-.462,3.208,3.208,0,0,1,1.649.409,2.725,2.725,0,0,1,1.042,1.029v-1.319h1.214v7.23h-1.214v-1.346a2.863,2.863,0,0,1-1.069,1.055,3.181,3.181,0,0,1-1.636.409,3.277,3.277,0,0,1-1.741-.475,3.331,3.331,0,0,1-1.227-1.332A4.15,4.15,0,0,1,121.758,294.316Zm6.122.013a2.939,2.939,0,0,0-.33-1.425,2.271,2.271,0,0,0-.9-.924,2.354,2.354,0,0,0-1.227-.33,2.429,2.429,0,0,0-1.227.317,2.3,2.3,0,0,0-.884.923,2.939,2.939,0,0,0-.33,1.425,3.046,3.046,0,0,0,.33,1.451,2.391,2.391,0,0,0,.884.937,2.536,2.536,0,0,0,2.454,0,2.361,2.361,0,0,0,.9-.937A3.017,3.017,0,0,0,127.879,294.329Zm4.443-2.428a2.316,2.316,0,0,1,.9-.963,2.83,2.83,0,0,1,1.438-.343v1.24h-.317q-2.019,0-2.019,2.19v3.932h-1.2v-7.23h1.2Zm10.133-1.174v7.23h-1.2v-1.069a2.374,2.374,0,0,1-.963.871,2.966,2.966,0,0,1-1.346.3,3.292,3.292,0,0,1-1.517-.343,2.625,2.625,0,0,1-1.069-1.055,3.5,3.5,0,0,1-.383-1.7v-4.235h1.187V294.8a2.329,2.329,0,0,0,.541,1.649,1.945,1.945,0,0,0,1.478.567,1.974,1.974,0,0,0,1.517-.594,2.444,2.444,0,0,0,.554-1.728v-3.971Zm5.1,2.625a4.8,4.8,0,0,1,.607-2.414,4.41,4.41,0,0,1,1.649-1.689,4.6,4.6,0,0,1,2.335-.607,4.725,4.725,0,0,1,2.625.726,4.158,4.158,0,0,1,1.636,2.058h-1.438a2.874,2.874,0,0,0-1.108-1.28,3.154,3.154,0,0,0-1.715-.449,3.353,3.353,0,0,0-1.728.449,3.127,3.127,0,0,0-1.2,1.28,4.043,4.043,0,0,0-.435,1.926,4.092,4.092,0,0,0,.435,1.926,3.147,3.147,0,0,0,1.2,1.267,3.353,3.353,0,0,0,1.728.449,3.227,3.227,0,0,0,1.715-.435,2.874,2.874,0,0,0,1.108-1.28H156.4a4.164,4.164,0,0,1-1.636,2.045,4.791,4.791,0,0,1-2.625.712,4.681,4.681,0,0,1-2.335-.594,4.437,4.437,0,0,1-1.649-1.676A4.8,4.8,0,0,1,147.552,293.353Zm11.259-3.8a.818.818,0,1,1,0-1.636.732.732,0,0,1,.554.237.828.828,0,0,1,0,1.161A.732.732,0,0,1,158.811,289.553Zm.58,1.174v7.23h-1.2v-7.23Zm5.028-.119a3.181,3.181,0,0,1,1.636.409,2.7,2.7,0,0,1,1.055,1.029v-1.319h1.214v7.388a3.572,3.572,0,0,1-.422,1.755,2.987,2.987,0,0,1-1.214,1.214,3.669,3.669,0,0,1-1.821.435,4.007,4.007,0,0,1-2.375-.673,2.63,2.63,0,0,1-1.121-1.834h1.187a1.861,1.861,0,0,0,.818,1.055,2.647,2.647,0,0,0,1.491.409,2.178,2.178,0,0,0,1.61-.62,2.326,2.326,0,0,0,.633-1.742V296.6a2.89,2.89,0,0,1-1.055,1.055,3.1,3.1,0,0,1-1.636.422,3.27,3.27,0,0,1-2.982-1.807,4.15,4.15,0,0,1-.449-1.953,4.022,4.022,0,0,1,.449-1.939,3.258,3.258,0,0,1,1.227-1.306A3.419,3.419,0,0,1,164.419,290.609Zm2.691,3.72a2.939,2.939,0,0,0-.33-1.425,2.27,2.27,0,0,0-.9-.924,2.354,2.354,0,0,0-1.227-.33,2.429,2.429,0,0,0-1.227.317,2.3,2.3,0,0,0-.884.923,2.939,2.939,0,0,0-.33,1.425,3.046,3.046,0,0,0,.33,1.451,2.391,2.391,0,0,0,.884.937,2.536,2.536,0,0,0,2.454,0,2.361,2.361,0,0,0,.9-.937A3.017,3.017,0,0,0,167.111,294.329Zm2.794-.013a4.022,4.022,0,0,1,.449-1.939,3.258,3.258,0,0,1,1.227-1.306,3.419,3.419,0,0,1,1.755-.462,3.208,3.208,0,0,1,1.649.409,2.725,2.725,0,0,1,1.042,1.029v-1.319h1.214v7.23h-1.214v-1.346a2.863,2.863,0,0,1-1.069,1.055,3.181,3.181,0,0,1-1.636.409,3.277,3.277,0,0,1-1.741-.475,3.331,3.331,0,0,1-1.227-1.332A4.15,4.15,0,0,1,169.9,294.316Zm6.122.013a2.939,2.939,0,0,0-.33-1.425,2.271,2.271,0,0,0-.9-.924,2.354,2.354,0,0,0-1.227-.33,2.429,2.429,0,0,0-1.227.317,2.3,2.3,0,0,0-.884.923,2.939,2.939,0,0,0-.33,1.425,3.046,3.046,0,0,0,.33,1.451,2.391,2.391,0,0,0,.884.937,2.536,2.536,0,0,0,2.454,0,2.361,2.361,0,0,0,.9-.937A3.017,3.017,0,0,0,176.027,294.329Zm6.765-3.734a2.917,2.917,0,0,1,2.137.8,3.049,3.049,0,0,1,.818,2.3v4.261h-1.187v-4.09a2.3,2.3,0,0,0-.541-1.649,1.921,1.921,0,0,0-1.478-.581,2,2,0,0,0-1.517.594,2.444,2.444,0,0,0-.554,1.728v4h-1.2v-7.23h1.2v1.029a2.393,2.393,0,0,1,.963-.858A3.049,3.049,0,0,1,182.792,290.6Zm5.563-1.042a.79.79,0,0,1-.58-.237.863.863,0,0,1,0-1.161.79.79,0,0,1,.58-.237.747.747,0,0,1,.567.237.828.828,0,0,1,0,1.161A.747.747,0,0,1,188.355,289.553Zm.594,9.974a1.831,1.831,0,0,1-.488,1.412,2.036,2.036,0,0,1-1.425.449h-.7v-1.016h.5a.977.977,0,0,0,.7-.2.894.894,0,0,0,.211-.673v-8.773h1.2Zm8.444-8.8v7.23h-1.2v-1.069a2.374,2.374,0,0,1-.963.871,2.967,2.967,0,0,1-1.346.3,3.292,3.292,0,0,1-1.517-.343,2.625,2.625,0,0,1-1.069-1.055,3.5,3.5,0,0,1-.383-1.7v-4.235H192.1V294.8a2.329,2.329,0,0,0,.541,1.649,1.945,1.945,0,0,0,1.478.567,1.974,1.974,0,0,0,1.517-.594,2.444,2.444,0,0,0,.554-1.728v-3.971Zm3.227,1.174a2.315,2.315,0,0,1,.9-.963,2.829,2.829,0,0,1,1.438-.343v1.24h-.317q-2.019,0-2.019,2.19v3.932h-1.2v-7.23h1.2Zm4.961,4.393-1.478,3.549h-.8l.963-3.549Zm9.523-7.533v6.794a2.435,2.435,0,0,1-.7,1.821A2.563,2.563,0,0,1,210,295.464h1.2a1.787,1.787,0,0,0,.343,1.1,1.45,1.45,0,0,0,2.019.026,1.587,1.587,0,0,0,.33-1.029v-6.794Zm1.917,5.554a4.022,4.022,0,0,1,.449-1.939,3.258,3.258,0,0,1,1.227-1.306,3.419,3.419,0,0,1,1.755-.462,3.208,3.208,0,0,1,1.649.409,2.725,2.725,0,0,1,1.042,1.029v-1.319h1.214v7.23h-1.214v-1.346a2.863,2.863,0,0,1-1.069,1.055,3.181,3.181,0,0,1-1.636.409,3.277,3.277,0,0,1-1.742-.475,3.331,3.331,0,0,1-1.227-1.332A4.15,4.15,0,0,1,217.021,294.316Zm6.122.013a2.939,2.939,0,0,0-.33-1.425,2.27,2.27,0,0,0-.9-.924,2.354,2.354,0,0,0-1.227-.33,2.429,2.429,0,0,0-1.227.317,2.3,2.3,0,0,0-.884.923,2.939,2.939,0,0,0-.33,1.425,3.046,3.046,0,0,0,.33,1.451,2.391,2.391,0,0,0,.884.937,2.536,2.536,0,0,0,2.454,0,2.361,2.361,0,0,0,.9-.937A3.017,3.017,0,0,0,223.142,294.329Zm6.224-3.72a3.181,3.181,0,0,1,1.636.409,2.7,2.7,0,0,1,1.055,1.029v-1.319h1.214v7.388a3.572,3.572,0,0,1-.422,1.755,2.987,2.987,0,0,1-1.214,1.214,3.669,3.669,0,0,1-1.821.435,4.007,4.007,0,0,1-2.375-.673,2.63,2.63,0,0,1-1.121-1.834h1.187a1.861,1.861,0,0,0,.818,1.055,2.646,2.646,0,0,0,1.491.409,2.178,2.178,0,0,0,1.61-.62,2.326,2.326,0,0,0,.633-1.742V296.6A2.889,2.889,0,0,1,231,297.654a3.1,3.1,0,0,1-1.636.422,3.27,3.27,0,0,1-2.982-1.807,4.15,4.15,0,0,1-.449-1.953,4.022,4.022,0,0,1,.449-1.939,3.258,3.258,0,0,1,1.227-1.306A3.419,3.419,0,0,1,229.367,290.609Zm2.691,3.72a2.939,2.939,0,0,0-.33-1.425,2.271,2.271,0,0,0-.9-.924,2.354,2.354,0,0,0-1.227-.33,2.429,2.429,0,0,0-1.227.317,2.3,2.3,0,0,0-.884.923,2.939,2.939,0,0,0-.33,1.425,3.046,3.046,0,0,0,.33,1.451,2.391,2.391,0,0,0,.884.937,2.536,2.536,0,0,0,2.454,0,2.361,2.361,0,0,0,.9-.937A3.017,3.017,0,0,0,232.058,294.329Zm2.794-.013a4.022,4.022,0,0,1,.449-1.939,3.258,3.258,0,0,1,1.227-1.306,3.419,3.419,0,0,1,1.755-.462,3.208,3.208,0,0,1,1.649.409,2.725,2.725,0,0,1,1.042,1.029v-1.319h1.214v7.23h-1.214v-1.346a2.863,2.863,0,0,1-1.069,1.055,3.181,3.181,0,0,1-1.636.409,3.277,3.277,0,0,1-1.741-.475,3.331,3.331,0,0,1-1.227-1.332A4.15,4.15,0,0,1,234.852,294.316Zm6.122.013a2.939,2.939,0,0,0-.33-1.425,2.271,2.271,0,0,0-.9-.924,2.354,2.354,0,0,0-1.227-.33,2.429,2.429,0,0,0-1.227.317,2.3,2.3,0,0,0-.884.923,2.939,2.939,0,0,0-.33,1.425,3.046,3.046,0,0,0,.33,1.451,2.391,2.391,0,0,0,.884.937,2.536,2.536,0,0,0,2.454,0,2.361,2.361,0,0,0,.9-.937A3.017,3.017,0,0,0,240.974,294.329Zm7.28,3.628-2.837-3.193v3.193h-1.2v-9.763h1.2v5.739l2.784-3.206h1.676l-3.4,3.6,3.417,3.628Zm2.3-3.641a4.022,4.022,0,0,1,.449-1.939,3.258,3.258,0,0,1,1.227-1.306,3.419,3.419,0,0,1,1.755-.462,3.208,3.208,0,0,1,1.649.409,2.725,2.725,0,0,1,1.042,1.029v-1.319h1.214v7.23h-1.214v-1.346a2.863,2.863,0,0,1-1.069,1.055,3.181,3.181,0,0,1-1.636.409,3.277,3.277,0,0,1-1.742-.475,3.331,3.331,0,0,1-1.227-1.332A4.15,4.15,0,0,1,250.558,294.316Zm6.122.013a2.939,2.939,0,0,0-.33-1.425,2.27,2.27,0,0,0-.9-.924,2.354,2.354,0,0,0-1.227-.33,2.429,2.429,0,0,0-1.227.317,2.3,2.3,0,0,0-.884.923,2.94,2.94,0,0,0-.33,1.425,3.047,3.047,0,0,0,.33,1.451,2.392,2.392,0,0,0,.884.937,2.536,2.536,0,0,0,2.454,0,2.361,2.361,0,0,0,.9-.937A3.017,3.017,0,0,0,256.679,294.329Zm4.443-2.428a2.316,2.316,0,0,1,.9-.963,2.83,2.83,0,0,1,1.438-.343v1.24h-.317q-2.019,0-2.019,2.19v3.932h-1.2v-7.23h1.2Zm6.28,6.174a3.818,3.818,0,0,1-1.491-.277,2.591,2.591,0,0,1-1.042-.792,2.14,2.14,0,0,1-.422-1.174h1.24a1.223,1.223,0,0,0,.5.884,1.962,1.962,0,0,0,1.2.343,1.737,1.737,0,0,0,1.082-.3.927.927,0,0,0,.4-.765.741.741,0,0,0-.422-.7,5.651,5.651,0,0,0-1.306-.462,10.751,10.751,0,0,1-1.319-.422,2.505,2.505,0,0,1-.871-.646,1.734,1.734,0,0,1-.356-1.135,1.709,1.709,0,0,1,.33-1.016,2.19,2.19,0,0,1,.937-.726,3.3,3.3,0,0,1,1.385-.277,2.958,2.958,0,0,1,1.939.607,2.187,2.187,0,0,1,.792,1.662h-1.2a1.232,1.232,0,0,0-.462-.91,1.67,1.67,0,0,0-1.108-.343,1.72,1.72,0,0,0-1.029.277.856.856,0,0,0-.383.726.831.831,0,0,0,.224.594,1.932,1.932,0,0,0,.581.369q.356.132.976.3a9.614,9.614,0,0,1,1.267.422,2.1,2.1,0,0,1,.831.607,1.621,1.621,0,0,1,.369,1.069,1.829,1.829,0,0,1-.33,1.069,2.239,2.239,0,0,1-.937.752A3.349,3.349,0,0,1,267.4,298.076Zm3.885-3.76a4.022,4.022,0,0,1,.449-1.939,3.258,3.258,0,0,1,1.227-1.306,3.419,3.419,0,0,1,1.755-.462,3.208,3.208,0,0,1,1.649.409,2.725,2.725,0,0,1,1.042,1.029v-1.319h1.214v7.23H277.41v-1.346a2.863,2.863,0,0,1-1.069,1.055,3.181,3.181,0,0,1-1.636.409,3.277,3.277,0,0,1-1.741-.475,3.331,3.331,0,0,1-1.227-1.332A4.15,4.15,0,0,1,271.288,294.316Zm6.122.013a2.939,2.939,0,0,0-.33-1.425,2.271,2.271,0,0,0-.9-.924,2.354,2.354,0,0,0-1.227-.33,2.429,2.429,0,0,0-1.227.317,2.3,2.3,0,0,0-.884.923,2.939,2.939,0,0,0-.33,1.425,3.046,3.046,0,0,0,.33,1.451,2.391,2.391,0,0,0,.884.937,2.536,2.536,0,0,0,2.454,0,2.362,2.362,0,0,0,.9-.937A3.017,3.017,0,0,0,277.41,294.329Zm4.483,1.966-1.478,3.549h-.8l.963-3.549ZM61.336,308.551v6.794a2.435,2.435,0,0,1-.7,1.821,2.563,2.563,0,0,1-4.406-1.913h1.2a1.786,1.786,0,0,0,.343,1.1,1.45,1.45,0,0,0,2.019.026,1.587,1.587,0,0,0,.33-1.029v-6.794Zm1.917,5.554a4.022,4.022,0,0,1,.449-1.939,3.258,3.258,0,0,1,1.227-1.306,3.419,3.419,0,0,1,1.755-.462,3.208,3.208,0,0,1,1.649.409,2.725,2.725,0,0,1,1.042,1.029v-1.319h1.214v7.23H69.374V316.4a2.863,2.863,0,0,1-1.069,1.055,3.182,3.182,0,0,1-1.636.409,3.277,3.277,0,0,1-1.741-.475,3.331,3.331,0,0,1-1.227-1.333A4.15,4.15,0,0,1,63.252,314.106Zm6.122.013a2.939,2.939,0,0,0-.33-1.425,2.27,2.27,0,0,0-.9-.924,2.354,2.354,0,0,0-1.227-.33,2.429,2.429,0,0,0-1.227.317,2.3,2.3,0,0,0-.884.924,2.939,2.939,0,0,0-.33,1.425,3.046,3.046,0,0,0,.33,1.451,2.391,2.391,0,0,0,.884.937,2.536,2.536,0,0,0,2.454,0,2.361,2.361,0,0,0,.9-.937A3.017,3.017,0,0,0,69.374,314.119Zm7.28,3.628-2.837-3.193v3.193h-1.2v-9.763h1.2v5.739l2.784-3.206h1.676l-3.4,3.6,3.417,3.628Zm2.3-3.641a4.022,4.022,0,0,1,.449-1.939,3.258,3.258,0,0,1,1.227-1.306,3.419,3.419,0,0,1,1.755-.462,3.208,3.208,0,0,1,1.649.409,2.725,2.725,0,0,1,1.042,1.029v-1.319h1.214v7.23H85.079V316.4a2.863,2.863,0,0,1-1.069,1.055,3.181,3.181,0,0,1-1.636.409,3.277,3.277,0,0,1-1.741-.475,3.331,3.331,0,0,1-1.227-1.333A4.15,4.15,0,0,1,78.958,314.106Zm6.122.013a2.939,2.939,0,0,0-.33-1.425,2.27,2.27,0,0,0-.9-.924,2.354,2.354,0,0,0-1.227-.33,2.429,2.429,0,0,0-1.227.317,2.3,2.3,0,0,0-.884.924,2.939,2.939,0,0,0-.33,1.425,3.046,3.046,0,0,0,.33,1.451,2.391,2.391,0,0,0,.884.937,2.536,2.536,0,0,0,2.454,0,2.361,2.361,0,0,0,.9-.937A3.017,3.017,0,0,0,85.079,314.119Zm4.443-2.428a2.316,2.316,0,0,1,.9-.963,2.829,2.829,0,0,1,1.438-.343v1.24h-.317q-2.019,0-2.019,2.19v3.932h-1.2v-7.23h1.2Zm5.185-.185v4.261a1.039,1.039,0,0,0,.224.752,1.13,1.13,0,0,0,.778.211h.884v1.016H95.513a2.153,2.153,0,0,1-1.5-.462,1.982,1.982,0,0,1-.5-1.517v-4.261h-.937v-.989h.937V308.7h1.2v1.821h1.887v.989Zm2.893,2.6a4.022,4.022,0,0,1,.449-1.939,3.258,3.258,0,0,1,1.227-1.306,3.419,3.419,0,0,1,1.755-.462,3.208,3.208,0,0,1,1.649.409,2.725,2.725,0,0,1,1.042,1.029v-1.319h1.214v7.23h-1.214V316.4a2.863,2.863,0,0,1-1.069,1.055,3.182,3.182,0,0,1-1.636.409,3.277,3.277,0,0,1-1.741-.475,3.331,3.331,0,0,1-1.227-1.333A4.15,4.15,0,0,1,97.6,314.106Zm6.122.013a2.939,2.939,0,0,0-.33-1.425,2.27,2.27,0,0,0-.9-.924,2.354,2.354,0,0,0-1.227-.33,2.429,2.429,0,0,0-1.227.317,2.3,2.3,0,0,0-.884.924,2.939,2.939,0,0,0-.33,1.425,3.046,3.046,0,0,0,.33,1.451,2.391,2.391,0,0,0,.884.937,2.536,2.536,0,0,0,2.454,0,2.361,2.361,0,0,0,.9-.937A3.017,3.017,0,0,0,103.722,314.119Zm9.675,3.72a4.051,4.051,0,0,1-1.636-.317,2.8,2.8,0,0,1-1.121-.9,2.33,2.33,0,0,1-.422-1.333h1.28a1.725,1.725,0,0,0,.528,1.1,1.961,1.961,0,0,0,1.372.435,1.99,1.99,0,0,0,1.346-.422,1.4,1.4,0,0,0,.5-1.108,1.25,1.25,0,0,0-.29-.858,1.854,1.854,0,0,0-.726-.5,11.334,11.334,0,0,0-1.174-.369,10.671,10.671,0,0,1-1.464-.475,2.432,2.432,0,0,1-.937-.739,2.246,2.246,0,0,1-.383-1.372,2.366,2.366,0,0,1,.383-1.332,2.5,2.5,0,0,1,1.069-.9,3.831,3.831,0,0,1,1.6-.317,3.3,3.3,0,0,1,2.111.646,2.38,2.38,0,0,1,.937,1.715h-1.319a1.4,1.4,0,0,0-.554-.923,1.947,1.947,0,0,0-1.293-.409,1.852,1.852,0,0,0-1.227.4,1.31,1.31,0,0,0-.475,1.082,1.2,1.2,0,0,0,.277.818,1.968,1.968,0,0,0,.7.488q.422.158,1.174.369a10.275,10.275,0,0,1,1.464.5,2.365,2.365,0,0,1,.95.752,2.158,2.158,0,0,1,.4,1.372,2.421,2.421,0,0,1-.356,1.267,2.619,2.619,0,0,1-1.055.963A3.483,3.483,0,0,1,113.4,317.839Zm11.424-3.984a7.067,7.067,0,0,1-.04.726H119a2.251,2.251,0,0,0,2.348,2.269,2.219,2.219,0,0,0,1.293-.356,1.943,1.943,0,0,0,.739-.976h1.293a3.14,3.14,0,0,1-1.161,1.7,3.529,3.529,0,0,1-2.164.646,3.691,3.691,0,0,1-1.847-.462,3.292,3.292,0,0,1-1.267-1.306,4.5,4.5,0,0,1-.013-3.945,3.118,3.118,0,0,1,1.253-1.293,3.745,3.745,0,0,1,1.873-.462,3.629,3.629,0,0,1,1.821.449,3.051,3.051,0,0,1,1.214,1.24A3.559,3.559,0,0,1,124.822,313.855Zm-1.24-.251a2.18,2.18,0,0,0-.3-1.174,1.909,1.909,0,0,0-.831-.752,2.478,2.478,0,0,0-1.148-.264,2.249,2.249,0,0,0-1.557.581,2.379,2.379,0,0,0-.726,1.61Zm4.025-5.62v9.763h-1.2v-9.763Zm1.6,6.122a4.022,4.022,0,0,1,.449-1.939,3.258,3.258,0,0,1,1.227-1.306,3.419,3.419,0,0,1,1.755-.462,3.208,3.208,0,0,1,1.649.409,2.725,2.725,0,0,1,1.042,1.029v-1.319h1.214v7.23h-1.214V316.4a2.863,2.863,0,0,1-1.069,1.055,3.181,3.181,0,0,1-1.636.409,3.277,3.277,0,0,1-1.741-.475,3.331,3.331,0,0,1-1.227-1.333A4.15,4.15,0,0,1,129.2,314.106Zm6.122.013a2.939,2.939,0,0,0-.33-1.425,2.27,2.27,0,0,0-.9-.924,2.354,2.354,0,0,0-1.227-.33,2.429,2.429,0,0,0-1.227.317,2.3,2.3,0,0,0-.884.924,2.939,2.939,0,0,0-.33,1.425,3.046,3.046,0,0,0,.33,1.451,2.391,2.391,0,0,0,.884.937,2.536,2.536,0,0,0,2.454,0,2.361,2.361,0,0,0,.9-.937A3.017,3.017,0,0,0,135.326,314.119Zm4.707-2.612v4.261a1.039,1.039,0,0,0,.224.752,1.13,1.13,0,0,0,.778.211h.884v1.016h-1.082a2.153,2.153,0,0,1-1.5-.462,1.982,1.982,0,0,1-.5-1.517v-4.261H137.9v-.989h.937V308.7h1.2v1.821h1.887v.989Zm2.893,2.6a4.022,4.022,0,0,1,.449-1.939,3.258,3.258,0,0,1,1.227-1.306,3.419,3.419,0,0,1,1.755-.462,3.208,3.208,0,0,1,1.649.409,2.726,2.726,0,0,1,1.042,1.029v-1.319h1.214v7.23h-1.214V316.4a2.863,2.863,0,0,1-1.069,1.055,3.182,3.182,0,0,1-1.636.409,3.277,3.277,0,0,1-1.741-.475,3.331,3.331,0,0,1-1.227-1.333A4.15,4.15,0,0,1,142.926,314.106Zm6.122.013a2.939,2.939,0,0,0-.33-1.425,2.271,2.271,0,0,0-.9-.924,2.354,2.354,0,0,0-1.227-.33,2.429,2.429,0,0,0-1.227.317,2.3,2.3,0,0,0-.884.924,2.939,2.939,0,0,0-.33,1.425,3.046,3.046,0,0,0,.33,1.451,2.391,2.391,0,0,0,.884.937,2.536,2.536,0,0,0,2.454,0,2.361,2.361,0,0,0,.9-.937A3.017,3.017,0,0,0,149.048,314.119Zm6.765-3.734a2.917,2.917,0,0,1,2.137.8,3.049,3.049,0,0,1,.818,2.3v4.261h-1.187v-4.09a2.3,2.3,0,0,0-.541-1.649,1.921,1.921,0,0,0-1.478-.581,2,2,0,0,0-1.517.594,2.444,2.444,0,0,0-.554,1.728v4h-1.2v-7.23h1.2v1.029a2.394,2.394,0,0,1,.963-.858A3.049,3.049,0,0,1,155.813,310.385Z" transform="translate(-31.721 -149.096)" fill="#7d7d7d"/><path d="M78.55,214.607a5.878,5.878,0,0,1,.616-2.946,2.7,2.7,0,0,1,4.3,0,5.878,5.878,0,0,1,.616,2.946,6.024,6.024,0,0,1-.616,2.99,2.7,2.7,0,0,1-4.3,0A6.024,6.024,0,0,1,78.55,214.607Zm4.541,0a8.4,8.4,0,0,0-.132-1.616,2.013,2.013,0,0,0-.517-1.077,1.47,1.47,0,0,0-1.121-.407,1.523,1.523,0,0,0-1.143.407,2.124,2.124,0,0,0-.517,1.077,9.147,9.147,0,0,0-.121,1.616,9.572,9.572,0,0,0,.121,1.66,2.124,2.124,0,0,0,.517,1.077,1.523,1.523,0,0,0,1.143.407,1.47,1.47,0,0,0,1.121-.407,2.013,2.013,0,0,0,.517-1.077A8.792,8.792,0,0,0,83.091,214.607Zm3.814-.077a2.043,2.043,0,0,1-.946-.7,1.879,1.879,0,0,1-.33-1.121,1.964,1.964,0,0,1,.3-1.066,2,2,0,0,1,.88-.759,3.272,3.272,0,0,1,1.429-.286,3.2,3.2,0,0,1,1.418.286,1.99,1.99,0,0,1,.891.759,2.008,2.008,0,0,1-.033,2.188,2.021,2.021,0,0,1-.935.7,2.058,2.058,0,0,1,1.077.737,1.963,1.963,0,0,1,.407,1.253,2.239,2.239,0,0,1-.352,1.253,2.331,2.331,0,0,1-1,.825,3.939,3.939,0,0,1-2.946,0,2.358,2.358,0,0,1-.978-.825,2.241,2.241,0,0,1-.352-1.253,2.047,2.047,0,0,1,.4-1.264A2,2,0,0,1,86.9,214.53Zm2.979-1.7a1.263,1.263,0,0,0-.44-1.033,2.179,2.179,0,0,0-2.408,0,1.277,1.277,0,0,0-.44,1.044,1.222,1.222,0,0,0,.451.99,1.826,1.826,0,0,0,1.187.374,1.8,1.8,0,0,0,1.187-.374A1.241,1.241,0,0,0,89.884,212.826Zm-1.649,2.144a2.17,2.17,0,0,0-1.33.385,1.306,1.306,0,0,0-.517,1.132,1.425,1.425,0,0,0,.495,1.132,2.022,2.022,0,0,0,1.352.429,1.978,1.978,0,0,0,1.341-.429,1.425,1.425,0,0,0,.495-1.132,1.322,1.322,0,0,0-.506-1.121A2.1,2.1,0,0,0,88.235,214.97Zm5.441,1.561a1.588,1.588,0,0,0,.506.968,1.638,1.638,0,0,0,1.088.341,1.452,1.452,0,0,0,1.341-.715,4.728,4.728,0,0,0,.418-2.408,1.687,1.687,0,0,1-.77.781,2.6,2.6,0,0,1-1.2.275,2.864,2.864,0,0,1-1.319-.3,2.243,2.243,0,0,1-.9-.891,2.814,2.814,0,0,1-.33-1.407,2.625,2.625,0,0,1,.682-1.891,2.526,2.526,0,0,1,1.935-.726,2.325,2.325,0,0,1,2.155,1,5.69,5.69,0,0,1,.627,2.979,8.654,8.654,0,0,1-.253,2.287,2.53,2.53,0,0,1-.836,1.374,2.478,2.478,0,0,1-1.605.473,2.413,2.413,0,0,1-1.748-.6,2.371,2.371,0,0,1-.715-1.539Zm1.55-1.605a1.683,1.683,0,0,0,1.209-.451,1.658,1.658,0,0,0,.473-1.242,1.9,1.9,0,0,0-.462-1.33,1.668,1.668,0,0,0-1.3-.506,1.623,1.623,0,0,0-1.231.484,2.045,2.045,0,0,0,0,2.562A1.7,1.7,0,0,0,95.226,214.926Zm8.519-2.32a1.38,1.38,0,0,0-1.506-1.22,1.617,1.617,0,0,0-1.462.759,4.679,4.679,0,0,0-.473,2.474,1.851,1.851,0,0,1,.836-.891,2.67,2.67,0,0,1,1.319-.33,2.374,2.374,0,0,1,1.8.7,2.68,2.68,0,0,1,.682,1.946,2.959,2.959,0,0,1-.3,1.341,2.186,2.186,0,0,1-.88.945,2.7,2.7,0,0,1-1.418.352,2.778,2.778,0,0,1-1.77-.506,2.643,2.643,0,0,1-.891-1.4,8.158,8.158,0,0,1-.253-2.2q0-4.035,2.815-4.035a2.253,2.253,0,0,1,2.419,2.056Zm-1.5,1.638a2.053,2.053,0,0,0-.891.2,1.583,1.583,0,0,0-.682.583,1.682,1.682,0,0,0-.253.945,1.937,1.937,0,0,0,.484,1.363,1.805,1.805,0,0,0,1.385.517,1.607,1.607,0,0,0,1.22-.473,1.8,1.8,0,0,0,.462-1.3,1.922,1.922,0,0,0-.44-1.341A1.631,1.631,0,0,0,102.25,214.244Zm5.33,2.287a1.59,1.59,0,0,0,.506.968,1.64,1.64,0,0,0,1.088.341,1.452,1.452,0,0,0,1.341-.715,4.724,4.724,0,0,0,.418-2.408,1.685,1.685,0,0,1-.77.781,2.6,2.6,0,0,1-1.2.275,2.864,2.864,0,0,1-1.319-.3,2.243,2.243,0,0,1-.9-.891,2.814,2.814,0,0,1-.33-1.407,2.627,2.627,0,0,1,.682-1.891,2.526,2.526,0,0,1,1.935-.726,2.324,2.324,0,0,1,2.155,1,5.69,5.69,0,0,1,.627,2.979,8.654,8.654,0,0,1-.253,2.287,2.53,2.53,0,0,1-.836,1.374,2.477,2.477,0,0,1-1.605.473,2.413,2.413,0,0,1-1.748-.6,2.371,2.371,0,0,1-.715-1.539Zm1.55-1.605a1.682,1.682,0,0,0,1.209-.451,1.657,1.657,0,0,0,.473-1.242,1.9,1.9,0,0,0-.462-1.33,1.667,1.667,0,0,0-1.3-.506,1.623,1.623,0,0,0-1.231.484,2.045,2.045,0,0,0,0,2.562A1.7,1.7,0,0,0,109.13,214.926Zm5.375,1.605a1.59,1.59,0,0,0,.506.968,1.64,1.64,0,0,0,1.088.341,1.452,1.452,0,0,0,1.341-.715,4.723,4.723,0,0,0,.418-2.408,1.685,1.685,0,0,1-.77.781,2.6,2.6,0,0,1-1.2.275,2.864,2.864,0,0,1-1.319-.3,2.243,2.243,0,0,1-.9-.891,2.814,2.814,0,0,1-.33-1.407,2.627,2.627,0,0,1,.682-1.891,2.526,2.526,0,0,1,1.935-.726,2.324,2.324,0,0,1,2.155,1,5.69,5.69,0,0,1,.627,2.979,8.653,8.653,0,0,1-.253,2.287,2.53,2.53,0,0,1-.836,1.374,2.477,2.477,0,0,1-1.605.473,2.413,2.413,0,0,1-1.748-.6,2.371,2.371,0,0,1-.715-1.539Zm1.55-1.605a1.682,1.682,0,0,0,1.209-.451,1.657,1.657,0,0,0,.473-1.242,1.9,1.9,0,0,0-.462-1.33,1.667,1.667,0,0,0-1.3-.506,1.623,1.623,0,0,0-1.231.484,2.045,2.045,0,0,0,0,2.562A1.7,1.7,0,0,0,116.055,214.926Zm5.375,1.605a1.59,1.59,0,0,0,.506.968,1.64,1.64,0,0,0,1.088.341,1.452,1.452,0,0,0,1.341-.715,4.723,4.723,0,0,0,.418-2.408,1.685,1.685,0,0,1-.77.781,2.6,2.6,0,0,1-1.2.275,2.864,2.864,0,0,1-1.319-.3,2.243,2.243,0,0,1-.9-.891,2.814,2.814,0,0,1-.33-1.407,2.627,2.627,0,0,1,.682-1.891,2.526,2.526,0,0,1,1.935-.726,2.324,2.324,0,0,1,2.155,1,5.69,5.69,0,0,1,.627,2.979,8.654,8.654,0,0,1-.253,2.287,2.53,2.53,0,0,1-.836,1.374,2.477,2.477,0,0,1-1.605.473,2.413,2.413,0,0,1-1.748-.6,2.371,2.371,0,0,1-.715-1.539Zm1.55-1.605a1.682,1.682,0,0,0,1.209-.451,1.657,1.657,0,0,0,.473-1.242,1.9,1.9,0,0,0-.462-1.33,1.667,1.667,0,0,0-1.3-.506,1.623,1.623,0,0,0-1.231.484,2.045,2.045,0,0,0,0,2.562A1.7,1.7,0,0,0,122.98,214.926Zm5.375,1.605a1.59,1.59,0,0,0,.506.968,1.64,1.64,0,0,0,1.088.341,1.452,1.452,0,0,0,1.341-.715,4.723,4.723,0,0,0,.418-2.408,1.685,1.685,0,0,1-.77.781,2.6,2.6,0,0,1-1.2.275,2.865,2.865,0,0,1-1.319-.3,2.243,2.243,0,0,1-.9-.891,2.814,2.814,0,0,1-.33-1.407,2.627,2.627,0,0,1,.682-1.891,2.526,2.526,0,0,1,1.935-.726,2.324,2.324,0,0,1,2.155,1,5.69,5.69,0,0,1,.627,2.979,8.653,8.653,0,0,1-.253,2.287,2.53,2.53,0,0,1-.836,1.374,2.477,2.477,0,0,1-1.605.473,2.413,2.413,0,0,1-1.748-.6,2.371,2.371,0,0,1-.715-1.539Zm1.55-1.605a1.682,1.682,0,0,0,1.209-.451,1.657,1.657,0,0,0,.473-1.242,1.9,1.9,0,0,0-.462-1.33,1.667,1.667,0,0,0-1.3-.506,1.623,1.623,0,0,0-1.231.484,2.045,2.045,0,0,0,0,2.562A1.7,1.7,0,0,0,129.9,214.926Zm5.375,1.605a1.59,1.59,0,0,0,.506.968,1.64,1.64,0,0,0,1.088.341,1.452,1.452,0,0,0,1.341-.715,4.719,4.719,0,0,0,.418-2.408,1.685,1.685,0,0,1-.77.781,2.6,2.6,0,0,1-1.2.275,2.867,2.867,0,0,1-1.319-.3,2.246,2.246,0,0,1-.9-.891,2.814,2.814,0,0,1-.33-1.407,2.627,2.627,0,0,1,.682-1.891,2.526,2.526,0,0,1,1.935-.726,2.324,2.324,0,0,1,2.155,1,5.69,5.69,0,0,1,.627,2.979,8.635,8.635,0,0,1-.253,2.287,2.527,2.527,0,0,1-.836,1.374,2.477,2.477,0,0,1-1.605.473,2.413,2.413,0,0,1-1.748-.6,2.373,2.373,0,0,1-.715-1.539Zm1.55-1.605a1.681,1.681,0,0,0,1.209-.451,1.657,1.657,0,0,0,.473-1.242,1.9,1.9,0,0,0-.462-1.33,1.667,1.667,0,0,0-1.3-.506,1.624,1.624,0,0,0-1.231.484,2.045,2.045,0,0,0,0,2.562A1.7,1.7,0,0,0,136.83,214.926Zm8.981-3.43-3.056,7.168h-1.011l3.1-7.069H140.6v-.858h5.211Zm2.4,5.035a1.587,1.587,0,0,0,.506.968,1.638,1.638,0,0,0,1.088.341,1.452,1.452,0,0,0,1.341-.715,4.728,4.728,0,0,0,.418-2.408,1.687,1.687,0,0,1-.77.781,2.6,2.6,0,0,1-1.2.275,2.865,2.865,0,0,1-1.319-.3,2.243,2.243,0,0,1-.9-.891,2.814,2.814,0,0,1-.33-1.407,2.625,2.625,0,0,1,.682-1.891,2.526,2.526,0,0,1,1.935-.726,2.325,2.325,0,0,1,2.155,1,5.69,5.69,0,0,1,.627,2.979,8.654,8.654,0,0,1-.253,2.287,2.53,2.53,0,0,1-.836,1.374,2.478,2.478,0,0,1-1.605.473,2.413,2.413,0,0,1-1.748-.6,2.371,2.371,0,0,1-.715-1.539Zm1.55-1.605a1.683,1.683,0,0,0,1.209-.451,1.658,1.658,0,0,0,.473-1.242,1.9,1.9,0,0,0-.462-1.33,1.668,1.668,0,0,0-1.3-.506,1.623,1.623,0,0,0-1.231.484,2.045,2.045,0,0,0,0,2.562A1.7,1.7,0,0,0,149.757,214.926Zm8.519-2.32a1.38,1.38,0,0,0-1.506-1.22,1.617,1.617,0,0,0-1.462.759,4.679,4.679,0,0,0-.473,2.474,1.851,1.851,0,0,1,.836-.891,2.67,2.67,0,0,1,1.319-.33,2.374,2.374,0,0,1,1.8.7,2.68,2.68,0,0,1,.682,1.946,2.958,2.958,0,0,1-.3,1.341,2.186,2.186,0,0,1-.88.945,2.7,2.7,0,0,1-1.418.352,2.778,2.778,0,0,1-1.77-.506,2.643,2.643,0,0,1-.891-1.4,8.159,8.159,0,0,1-.253-2.2q0-4.035,2.815-4.035a2.253,2.253,0,0,1,2.419,2.056Zm-1.5,1.638a2.053,2.053,0,0,0-.891.2,1.583,1.583,0,0,0-.682.583,1.682,1.682,0,0,0-.253.945,1.937,1.937,0,0,0,.484,1.363,1.805,1.805,0,0,0,1.385.517,1.607,1.607,0,0,0,1.22-.473,1.8,1.8,0,0,0,.462-1.3,1.922,1.922,0,0,0-.44-1.341A1.631,1.631,0,0,0,156.781,214.244Z" transform="translate(-44.226 -118.177)"/><rect width="111.262" height="23.308" rx="11.654" transform="translate(20.01 84.656)" fill="rgba(143,255,115,0.3)"/><path d="M838.583,320.53,832.149,335.6h-3.435l6.482-14.682h-8.272v-2.9h11.658Z" transform="translate(-463.489 -178.382)" fill="#fff"/><path d="M779.61,388.316a1.268,1.268,0,0,1,.607.273,1.533,1.533,0,0,1,.44.545,1.5,1.5,0,0,1,.167.695,1.554,1.554,0,0,1-.237.844,1.649,1.649,0,0,1-.695.589,2.48,2.48,0,0,1-1.064.211H776.54v-6.13h2.2a2.443,2.443,0,0,1,1.064.211,1.48,1.48,0,0,1,.66.554,1.463,1.463,0,0,1,.22.792,1.373,1.373,0,0,1-.3.906A1.638,1.638,0,0,1,779.61,388.316Zm-2.269-.325h1.346a1.3,1.3,0,0,0,.871-.264,1.019,1.019,0,0,0,0-1.46,1.328,1.328,0,0,0-.888-.264H777.34Zm1.416,2.823a1.4,1.4,0,0,0,.932-.281.968.968,0,0,0,.334-.783.982.982,0,0,0-.352-.8,1.405,1.405,0,0,0-.941-.3h-1.39v2.164Zm7.576-1.935a4.715,4.715,0,0,1-.026.484h-3.852a1.5,1.5,0,0,0,1.565,1.513,1.48,1.48,0,0,0,.862-.237,1.3,1.3,0,0,0,.493-.651h.862a2.1,2.1,0,0,1-.774,1.135,2.355,2.355,0,0,1-1.443.431,2.458,2.458,0,0,1-1.231-.308,2.193,2.193,0,0,1-.844-.871,3,3,0,0,1-.009-2.63,2.076,2.076,0,0,1,.836-.862,2.493,2.493,0,0,1,1.249-.308,2.421,2.421,0,0,1,1.214.3,2.035,2.035,0,0,1,.809.827A2.374,2.374,0,0,1,786.332,388.879Zm-.827-.167a1.457,1.457,0,0,0-.2-.783,1.273,1.273,0,0,0-.554-.5,1.65,1.65,0,0,0-.765-.176,1.5,1.5,0,0,0-1.038.387,1.586,1.586,0,0,0-.484,1.073Zm1.584.334a2.683,2.683,0,0,1,.3-1.293,2.172,2.172,0,0,1,.818-.871,2.294,2.294,0,0,1,1.179-.308,2.151,2.151,0,0,1,1.047.264,1.845,1.845,0,0,1,.739.677v-2.551h.809v6.509h-.809v-.906a1.906,1.906,0,0,1-.7.712,2.122,2.122,0,0,1-1.091.273,2.18,2.18,0,0,1-1.988-1.2A2.768,2.768,0,0,1,787.089,389.046Zm4.081.009a1.96,1.96,0,0,0-.22-.95,1.514,1.514,0,0,0-.6-.616,1.57,1.57,0,0,0-.818-.22,1.619,1.619,0,0,0-.818.211,1.531,1.531,0,0,0-.589.616,1.96,1.96,0,0,0-.22.95,2.033,2.033,0,0,0,.22.967,1.593,1.593,0,0,0,.589.624,1.69,1.69,0,0,0,1.636,0,1.574,1.574,0,0,0,.6-.624A2.013,2.013,0,0,0,791.17,389.055Zm8.13,1.055h-2.674l-.492,1.363h-.844l2.216-6.1h.924l2.208,6.1h-.844Zm-.229-.651-1.108-3.1-1.108,3.1Zm4.326,1.275,1.5-4.081h.853l-1.891,4.82h-.932l-1.891-4.82h.862Zm2.837-1.689a2.683,2.683,0,0,1,.3-1.293,2.172,2.172,0,0,1,.818-.871,2.278,2.278,0,0,1,1.17-.308,2.14,2.14,0,0,1,1.1.273,1.815,1.815,0,0,1,.695.686v-.88h.809v4.82h-.809v-.9a1.91,1.91,0,0,1-.712.7,2.122,2.122,0,0,1-1.091.273,2.186,2.186,0,0,1-1.161-.317,2.217,2.217,0,0,1-.818-.888A2.768,2.768,0,0,1,806.234,389.046Zm4.081.009a1.96,1.96,0,0,0-.22-.95,1.514,1.514,0,0,0-.6-.616,1.57,1.57,0,0,0-.818-.22,1.619,1.619,0,0,0-.818.211,1.53,1.53,0,0,0-.589.616,1.96,1.96,0,0,0-.22.95,2.032,2.032,0,0,0,.22.967,1.593,1.593,0,0,0,.589.624,1.69,1.69,0,0,0,1.636,0,1.573,1.573,0,0,0,.6-.624A2.012,2.012,0,0,0,810.316,389.055Zm2.575-3.184a.545.545,0,1,1,0-1.091.488.488,0,0,1,.369.158.552.552,0,0,1,0,.774A.488.488,0,0,1,812.891,385.871Zm.387.783v4.82h-.8v-4.82Zm2.165-1.689v6.509h-.8v-6.509Zm1.065,4.081a2.677,2.677,0,0,1,.3-1.293,2.172,2.172,0,0,1,.818-.871,2.276,2.276,0,0,1,1.17-.308,2.14,2.14,0,0,1,1.1.273,1.818,1.818,0,0,1,.695.686v-.88h.809v4.82h-.809v-.9a1.91,1.91,0,0,1-.712.7,2.123,2.123,0,0,1-1.091.273,2.183,2.183,0,0,1-1.161-.317,2.217,2.217,0,0,1-.818-.888A2.762,2.762,0,0,1,816.508,389.046Zm4.081.009a1.96,1.96,0,0,0-.22-.95,1.517,1.517,0,0,0-.6-.616,1.57,1.57,0,0,0-.818-.22,1.619,1.619,0,0,0-.818.211,1.53,1.53,0,0,0-.589.616,1.955,1.955,0,0,0-.22.95,2.027,2.027,0,0,0,.22.967,1.593,1.593,0,0,0,.589.624,1.69,1.69,0,0,0,1.636,0,1.577,1.577,0,0,0,.6-.624A2.012,2.012,0,0,0,820.589,389.055Zm2.962-1.5a1.892,1.892,0,0,1,.721-.7,2.135,2.135,0,0,1,1.082-.273,2.247,2.247,0,0,1,1.17.308,2.172,2.172,0,0,1,.818.871,2.683,2.683,0,0,1,.3,1.293,2.768,2.768,0,0,1-.3,1.3,2.206,2.206,0,0,1-1.988,1.2,2.17,2.17,0,0,1-1.1-.273,1.861,1.861,0,0,1-.7-.695v.888h-.8v-6.509h.8Zm3.272,1.5a1.96,1.96,0,0,0-.22-.95,1.514,1.514,0,0,0-.6-.616,1.619,1.619,0,0,0-.818-.211,1.6,1.6,0,0,0-.818.22,1.576,1.576,0,0,0-.6.624,1.942,1.942,0,0,0-.22.941,2.013,2.013,0,0,0,.22.959,1.562,1.562,0,0,0,1.416.836,1.619,1.619,0,0,0,.818-.211,1.574,1.574,0,0,0,.6-.624A2.033,2.033,0,0,0,826.822,389.046Zm2.672-4.081v6.509h-.8v-6.509Zm5.762,3.914a4.715,4.715,0,0,1-.026.484h-3.852a1.5,1.5,0,0,0,1.566,1.513,1.48,1.48,0,0,0,.862-.237,1.3,1.3,0,0,0,.492-.651h.862a2.1,2.1,0,0,1-.774,1.135,2.355,2.355,0,0,1-1.442.431,2.459,2.459,0,0,1-1.231-.308,2.193,2.193,0,0,1-.844-.871,3,3,0,0,1-.009-2.63,2.076,2.076,0,0,1,.836-.862,2.493,2.493,0,0,1,1.249-.308,2.421,2.421,0,0,1,1.214.3,2.035,2.035,0,0,1,.809.827A2.374,2.374,0,0,1,835.256,388.879Zm-.827-.167a1.457,1.457,0,0,0-.2-.783,1.273,1.273,0,0,0-.554-.5,1.65,1.65,0,0,0-.765-.176,1.5,1.5,0,0,0-1.038.387,1.586,1.586,0,0,0-.484,1.073Z" transform="translate(-435.262 -215.786)" fill="#fff"/></g></svg>