<svg xmlns="http://www.w3.org/2000/svg" width="37" height="41" viewBox="0 0 37 41"><g transform="translate(-453 -1033)"><path d="M5,3A2,2,0,0,0,3,5V32a2,2,0,0,0,2,2H32a2,2,0,0,0,2-2V5a2,2,0,0,0-2-2H5M5,0H32a5,5,0,0,1,5,5V32a5,5,0,0,1-5,5H5a5,5,0,0,1-5-5V5A5,5,0,0,1,5,0Z" transform="translate(453 1037)" fill="#828282"/><path d="M5,0H32a5,5,0,0,1,5,5v7a0,0,0,0,1,0,0H0a0,0,0,0,1,0,0V5A5,5,0,0,1,5,0Z" transform="translate(453 1037)" fill="#828282"/><path d="M5,2A3,3,0,0,0,2,5v5H35V5a3,3,0,0,0-3-3H5M5,0H32a5,5,0,0,1,5,5v7H0V5A5,5,0,0,1,5,0Z" transform="translate(453 1037)" fill="#828282"/><rect width="4" height="8" transform="translate(461 1033)" fill="#828282"/><rect width="4" height="8" transform="translate(478 1033)" fill="#828282"/></g></svg>